<?xml version="1.0" encoding="us-ascii" standalone="no"?><svg xmlns="http://www.w3.org/2000/svg" xmlns:xlink="http://www.w3.org/1999/xlink" contentStyleType="text/css" height="482px" preserveAspectRatio="none" style="width:775px;height:482px;background:#F0F8FF;" version="1.1" viewBox="0 0 775 482" width="775px" zoomAndPan="magnify"><defs/><g><rect fill="#F0F8FF" height="482" style="stroke:none;stroke-width:1.0;" width="775" x="0" y="0"/><rect fill="#FFFFFF" height="312.0605" style="stroke:#181818;stroke-width:1.0;" width="10" x="379" y="84.2871"/><rect fill="#FFFFFF" height="29.3105" style="stroke:#181818;stroke-width:1.0;" width="10" x="604" y="113.5977"/><rect fill="#FFFFFF" height="112.8867" style="stroke:#181818;stroke-width:1.0;" width="10" x="604" y="172.2188"/><rect fill="#FFFFFF" height="29.3105" style="stroke:#181818;stroke-width:1.0;" width="10" x="710" y="330.7266"/><rect fill="none" height="90.8867" style="stroke:#000000;stroke-width:1.5;" width="387" x="283.5" y="187.2188"/><rect fill="none" height="75.9316" style="stroke:#000000;stroke-width:1.5;" width="486" x="283.5" y="292.1055"/><line style="stroke:#181818;stroke-width:0.5;stroke-dasharray:5.0,5.0;" x1="52" x2="52" y1="52.9766" y2="414.3477"/><line style="stroke:#181818;stroke-width:0.5;stroke-dasharray:5.0,5.0;" x1="383.5" x2="383.5" y1="52.9766" y2="414.3477"/><line style="stroke:#181818;stroke-width:0.5;stroke-dasharray:5.0,5.0;" x1="608.5" x2="608.5" y1="52.9766" y2="414.3477"/><line style="stroke:#181818;stroke-width:0.5;stroke-dasharray:5.0,5.0;" x1="714.5" x2="714.5" y1="52.9766" y2="414.3477"/><rect fill="#DDDDDD" height="30.4883" rx="2.5" ry="2.5" style="stroke:#666666;stroke-width:0.5;" width="94" x="5" y="21.4883"/><text fill="#333333" font-family="sans-serif" font-size="14" lengthAdjust="spacing" textLength="80" x="12" y="42.0234">HTTP Client</text><rect fill="#DDDDDD" height="30.4883" rx="2.5" ry="2.5" style="stroke:#666666;stroke-width:0.5;" width="94" x="5" y="413.3477"/><text fill="#333333" font-family="sans-serif" font-size="14" lengthAdjust="spacing" textLength="80" x="12" y="433.8828">HTTP Client</text><rect fill="#DDDDDD" height="46.9766" rx="2.5" ry="2.5" style="stroke:#666666;stroke-width:0.5;" width="181" x="293.5" y="5"/><text fill="#333333" font-family="sans-serif" font-size="14" lengthAdjust="spacing" textLength="83" x="342.5" y="25.5352">HTTP Server</text><text fill="#333333" font-family="sans-serif" font-size="14" lengthAdjust="spacing" textLength="167" x="300.5" y="42.0234">(asset/httpimpl/http.go)</text><rect fill="#DDDDDD" height="46.9766" rx="2.5" ry="2.5" style="stroke:#666666;stroke-width:0.5;" width="181" x="293.5" y="413.3477"/><text fill="#333333" font-family="sans-serif" font-size="14" lengthAdjust="spacing" textLength="83" x="342.5" y="433.8828">HTTP Server</text><text fill="#333333" font-family="sans-serif" font-size="14" lengthAdjust="spacing" textLength="167" x="300.5" y="450.3711">(asset/httpimpl/http.go)</text><rect fill="#DDDDDD" height="30.4883" rx="2.5" ry="2.5" style="stroke:#666666;stroke-width:0.5;" width="103" x="557.5" y="21.4883"/><text fill="#333333" font-family="sans-serif" font-size="14" lengthAdjust="spacing" textLength="89" x="564.5" y="42.0234">SubtreeStore</text><rect fill="#DDDDDD" height="30.4883" rx="2.5" ry="2.5" style="stroke:#666666;stroke-width:0.5;" width="103" x="557.5" y="413.3477"/><text fill="#333333" font-family="sans-serif" font-size="14" lengthAdjust="spacing" textLength="89" x="564.5" y="433.8828">SubtreeStore</text><rect fill="#DDDDDD" height="30.4883" rx="2.5" ry="2.5" style="stroke:#666666;stroke-width:0.5;" width="89" x="670.5" y="21.4883"/><text fill="#333333" font-family="sans-serif" font-size="14" lengthAdjust="spacing" textLength="75" x="677.5" y="42.0234">UTXOStore</text><rect fill="#DDDDDD" height="30.4883" rx="2.5" ry="2.5" style="stroke:#666666;stroke-width:0.5;" width="89" x="670.5" y="413.3477"/><text fill="#333333" font-family="sans-serif" font-size="14" lengthAdjust="spacing" textLength="75" x="677.5" y="433.8828">UTXOStore</text><rect fill="#FFFFFF" height="312.0605" style="stroke:#181818;stroke-width:1.0;" width="10" x="379" y="84.2871"/><rect fill="#FFFFFF" height="29.3105" style="stroke:#181818;stroke-width:1.0;" width="10" x="604" y="113.5977"/><rect fill="#FFFFFF" height="112.8867" style="stroke:#181818;stroke-width:1.0;" width="10" x="604" y="172.2188"/><rect fill="#FFFFFF" height="29.3105" style="stroke:#181818;stroke-width:1.0;" width="10" x="710" y="330.7266"/><polygon fill="#666666" points="367,80.2871,377,84.2871,367,88.2871,371,84.2871" style="stroke:#666666;stroke-width:1.0;"/><line style="stroke:#666666;stroke-width:1.0;" x1="52" x2="373" y1="84.2871" y2="84.2871"/><text fill="#333333" font-family="sans-serif" font-size="13" lengthAdjust="spacing" textLength="308" x="59" y="79.5449">GET /subtree/:hash/txs/json?offset=0&amp;limit=20</text><polygon fill="#666666" points="592,109.5977,602,113.5977,592,117.5977,596,113.5977" style="stroke:#666666;stroke-width:1.0;"/><line style="stroke:#666666;stroke-width:1.0;" x1="389" x2="598" y1="113.5977" y2="113.5977"/><text fill="#333333" font-family="sans-serif" font-size="13" lengthAdjust="spacing" textLength="134" x="396" y="108.8555">GetSubtree(ctx, hash)</text><polygon fill="#666666" points="400,138.9082,390,142.9082,400,146.9082,396,142.9082" style="stroke:#666666;stroke-width:1.0;"/><line style="stroke:#666666;stroke-width:1.0;stroke-dasharray:2.0,2.0;" x1="394" x2="608" y1="142.9082" y2="142.9082"/><text fill="#333333" font-family="sans-serif" font-size="13" lengthAdjust="spacing" textLength="120" x="406" y="138.166">Subtree with nodes</text><polygon fill="#666666" points="592,168.2188,602,172.2188,592,176.2188,596,172.2188" style="stroke:#666666;stroke-width:1.0;"/><line style="stroke:#666666;stroke-width:1.0;" x1="389" x2="598" y1="172.2188" y2="172.2188"/><text fill="#333333" font-family="sans-serif" font-size="13" lengthAdjust="spacing" textLength="163" x="396" y="167.4766">GetSubtreeData(ctx, hash)</text><path d="M283.5,187.2188 L345.5,187.2188 L345.5,194.5293 L335.5,204.5293 L283.5,204.5293 L283.5,187.2188 " fill="#EEEEEE" style="stroke:#000000;stroke-width:1.5;"/><rect fill="none" height="90.8867" style="stroke:#000000;stroke-width:1.5;" width="387" x="283.5" y="187.2188"/><text fill="#333333" font-family="sans-serif" font-size="13" font-weight="bold" lengthAdjust="spacing" textLength="17" x="298.5" y="200.7871">alt</text><text fill="#333333" font-family="sans-serif" font-size="11" font-weight="bold" lengthAdjust="spacing" textLength="128" x="360.5" y="199.8535">[SubtreeData available]</text><polygon fill="#666666" points="400,221.8398,390,225.8398,400,229.8398,396,225.8398" style="stroke:#666666;stroke-width:1.0;"/><line style="stroke:#666666;stroke-width:1.0;stroke-dasharray:2.0,2.0;" x1="394" x2="603" y1="225.8398" y2="225.8398"/><text fill="#333333" font-family="sans-serif" font-size="13" lengthAdjust="spacing" textLength="191" x="406" y="221.0977">Subtree data with transactions</text><line style="stroke:#000000;stroke-width:1.0;stroke-dasharray:2.0,2.0;" x1="283.5" x2="670.5" y1="234.8398" y2="234.8398"/><text fill="#333333" font-family="sans-serif" font-size="11" font-weight="bold" lengthAdjust="spacing" textLength="150" x="288.5" y="245.4746">[SubtreeData not available]</text><polygon fill="#666666" points="400,266.1055,390,270.1055,400,274.1055,396,270.1055" style="stroke:#666666;stroke-width:1.0;"/><line style="stroke:#666666;stroke-width:1.0;stroke-dasharray:2.0,2.0;" x1="394" x2="603" y1="270.1055" y2="270.1055"/><text fill="#333333" font-family="sans-serif" font-size="13" lengthAdjust="spacing" textLength="64" x="406" y="265.3633">Not found</text><path d="M283.5,292.1055 L357.5,292.1055 L357.5,299.416 L347.5,309.416 L283.5,309.416 L283.5,292.1055 " fill="#EEEEEE" style="stroke:#000000;stroke-width:1.5;"/><rect fill="none" height="75.9316" style="stroke:#000000;stroke-width:1.5;" width="486" x="283.5" y="292.1055"/><text fill="#333333" font-family="sans-serif" font-size="13" font-weight="bold" lengthAdjust="spacing" textLength="29" x="298.5" y="305.6738">loop</text><text fill="#333333" font-family="sans-serif" font-size="11" font-weight="bold" lengthAdjust="spacing" textLength="288" x="372.5" y="304.7402">[For each transaction in range [offset:offset+limit]]</text><polygon fill="#666666" points="698,326.7266,708,330.7266,698,334.7266,702,330.7266" style="stroke:#666666;stroke-width:1.0;"/><line style="stroke:#666666;stroke-width:1.0;" x1="389" x2="704" y1="330.7266" y2="330.7266"/><text fill="#333333" font-family="sans-serif" font-size="13" lengthAdjust="spacing" textLength="206" x="396" y="325.9844">GetTransactionMeta(ctx, txHash)</text><polygon fill="#666666" points="400,356.0371,390,360.0371,400,364.0371,396,360.0371" style="stroke:#666666;stroke-width:1.0;"/><line style="stroke:#666666;stroke-width:1.0;stroke-dasharray:2.0,2.0;" x1="394" x2="714" y1="360.0371" y2="360.0371"/><text fill="#333333" font-family="sans-serif" font-size="13" lengthAdjust="spacing" textLength="136" x="406" y="355.2949">Transaction metadata</text><polygon fill="#666666" points="63,392.3477,53,396.3477,63,400.3477,59,396.3477" style="stroke:#666666;stroke-width:1.0;"/><line style="stroke:#666666;stroke-width:1.0;stroke-dasharray:2.0,2.0;" x1="57" x2="383" y1="396.3477" y2="396.3477"/><text fill="#333333" font-family="sans-serif" font-size="13" lengthAdjust="spacing" textLength="194" x="69" y="391.6055">JSON response with pagination</text><text fill="#333333" font-family="sans-serif" font-size="10" lengthAdjust="spacing" textLength="154" x="0" y="471.9922">Last Modified On: 8-Dec-2025</text><!--SRC=[fPDlZn8n4CRVzrDCC2f44U8bnf2S9Xwk5tCSbu29YVgYiBDGhxHhEt1SZD_TQNTbktTdFBK9iDi-y-EPF_MNofJIoGqivF9ovUpMv2TMMmSFic7sCik4FoXoBEHMKsODrPAZk1A9TCvUrOSluXBYCOonK0PXOLsEpaF1fr9hG8qRDEIJU7vLT0tV1S2Rg6wpUFUcot5SueT8A4jswAp-Nmn_arggKXhwDvGGAQ9pEfzVm8bMd6G7fAyVxz3CqEtGVJPTwJtIO4rKgasfuyEpbUt5wA2iX6t2RBiWXpWZwp0AqusszCFyuxJH7Tv2ozwzdOF3Rrlq5FlbAmYGayRB9IbhF5mfMdELLih8i26gXA3_AZ47eyWQr831Q2tzUa1xF_ZghNbjYu9JF1u-qcgZwFZvK0JuJXAc2Og4n_Gqey17gdUwIze_XV0FlORJohyLsh_fj3wj4ZCsHozol1jqNqjZIVBFjgGcI090xgJISg6H1mpWVgRp41YTfqqIg3sssCRIN_7FRHW1dc-1_FbjFRIr9MGyAYneMG1bWDzM29-gRe-gdoUnvL-YWtOn3vDOLNBUi2RugvgqFutr3D47Hyq8X-q6Sokd10aRPeRQnPWalGOMycxrct7rh8_W_MnwpbV5brnil7Kb4buwpngBK5HBJ3kJVCScDbU5mXocPWGFsGvsEtdUdqmc_MjUdPxu2G00]--></g></svg>