<?xml version="1.0" encoding="us-ascii" standalone="no"?><svg xmlns="http://www.w3.org/2000/svg" xmlns:xlink="http://www.w3.org/1999/xlink" contentStyleType="text/css" height="333px" preserveAspectRatio="none" style="width:640px;height:333px;background:#F0F8FF;" version="1.1" viewBox="0 0 640 333" width="640px" zoomAndPan="magnify"><defs/><g><rect fill="#F0F8FF" height="333" style="stroke:none;stroke-width:1.0;" width="640" x="0" y="0"/><rect fill="#FFFFFF" height="163.5078" style="stroke:#181818;stroke-width:1.0;" width="10" x="333" y="84.2871"/><rect fill="#FFFFFF" height="112.8867" style="stroke:#181818;stroke-width:1.0;" width="10" x="567" y="113.5977"/><rect fill="none" height="90.8867" style="stroke:#000000;stroke-width:1.5;" width="396" x="237.5" y="128.5977"/><line style="stroke:#181818;stroke-width:0.5;stroke-dasharray:5.0,5.0;" x1="52" x2="52" y1="52.9766" y2="265.7949"/><line style="stroke:#181818;stroke-width:0.5;stroke-dasharray:5.0,5.0;" x1="337.5" x2="337.5" y1="52.9766" y2="265.7949"/><line style="stroke:#181818;stroke-width:0.5;stroke-dasharray:5.0,5.0;" x1="571.5" x2="571.5" y1="52.9766" y2="265.7949"/><rect fill="#DDDDDD" height="30.4883" rx="2.5" ry="2.5" style="stroke:#666666;stroke-width:0.5;" width="94" x="5" y="21.4883"/><text fill="#333333" font-family="sans-serif" font-size="14" lengthAdjust="spacing" textLength="80" x="12" y="42.0234">HTTP Client</text><rect fill="#DDDDDD" height="30.4883" rx="2.5" ry="2.5" style="stroke:#666666;stroke-width:0.5;" width="94" x="5" y="264.7949"/><text fill="#333333" font-family="sans-serif" font-size="14" lengthAdjust="spacing" textLength="80" x="12" y="285.3301">HTTP Client</text><rect fill="#DDDDDD" height="46.9766" rx="2.5" ry="2.5" style="stroke:#666666;stroke-width:0.5;" width="181" x="247.5" y="5"/><text fill="#333333" font-family="sans-serif" font-size="14" lengthAdjust="spacing" textLength="83" x="296.5" y="25.5352">HTTP Server</text><text fill="#333333" font-family="sans-serif" font-size="14" lengthAdjust="spacing" textLength="167" x="254.5" y="42.0234">(asset/httpimpl/http.go)</text><rect fill="#DDDDDD" height="46.9766" rx="2.5" ry="2.5" style="stroke:#666666;stroke-width:0.5;" width="181" x="247.5" y="264.7949"/><text fill="#333333" font-family="sans-serif" font-size="14" lengthAdjust="spacing" textLength="83" x="296.5" y="285.3301">HTTP Server</text><text fill="#333333" font-family="sans-serif" font-size="14" lengthAdjust="spacing" textLength="167" x="254.5" y="301.8184">(asset/httpimpl/http.go)</text><rect fill="#DDDDDD" height="30.4883" rx="2.5" ry="2.5" style="stroke:#666666;stroke-width:0.5;" width="103" x="520.5" y="21.4883"/><text fill="#333333" font-family="sans-serif" font-size="14" lengthAdjust="spacing" textLength="89" x="527.5" y="42.0234">SubtreeStore</text><rect fill="#DDDDDD" height="30.4883" rx="2.5" ry="2.5" style="stroke:#666666;stroke-width:0.5;" width="103" x="520.5" y="264.7949"/><text fill="#333333" font-family="sans-serif" font-size="14" lengthAdjust="spacing" textLength="89" x="527.5" y="285.3301">SubtreeStore</text><rect fill="#FFFFFF" height="163.5078" style="stroke:#181818;stroke-width:1.0;" width="10" x="333" y="84.2871"/><rect fill="#FFFFFF" height="112.8867" style="stroke:#181818;stroke-width:1.0;" width="10" x="567" y="113.5977"/><polygon fill="#666666" points="321,80.2871,331,84.2871,321,88.2871,325,84.2871" style="stroke:#666666;stroke-width:1.0;"/><line style="stroke:#666666;stroke-width:1.0;" x1="52" x2="327" y1="84.2871" y2="84.2871"/><text fill="#333333" font-family="sans-serif" font-size="13" lengthAdjust="spacing" textLength="157" x="59" y="79.5449">GET /subtree_data/:hash</text><polygon fill="#666666" points="555,109.5977,565,113.5977,555,117.5977,559,113.5977" style="stroke:#666666;stroke-width:1.0;"/><line style="stroke:#666666;stroke-width:1.0;" x1="343" x2="561" y1="113.5977" y2="113.5977"/><text fill="#333333" font-family="sans-serif" font-size="13" lengthAdjust="spacing" textLength="205" x="350" y="108.8555">GetSubtreeDataReader(ctx, hash)</text><path d="M237.5,128.5977 L299.5,128.5977 L299.5,135.9082 L289.5,145.9082 L237.5,145.9082 L237.5,128.5977 " fill="#EEEEEE" style="stroke:#000000;stroke-width:1.5;"/><rect fill="none" height="90.8867" style="stroke:#000000;stroke-width:1.5;" width="396" x="237.5" y="128.5977"/><text fill="#333333" font-family="sans-serif" font-size="13" font-weight="bold" lengthAdjust="spacing" textLength="17" x="252.5" y="142.166">alt</text><text fill="#333333" font-family="sans-serif" font-size="11" font-weight="bold" lengthAdjust="spacing" textLength="127" x="314.5" y="141.2324">[SubtreeStore has data]</text><polygon fill="#666666" points="354,163.2188,344,167.2188,354,171.2188,350,167.2188" style="stroke:#666666;stroke-width:1.0;"/><line style="stroke:#666666;stroke-width:1.0;stroke-dasharray:2.0,2.0;" x1="348" x2="566" y1="167.2188" y2="167.2188"/><text fill="#333333" font-family="sans-serif" font-size="13" lengthAdjust="spacing" textLength="191" x="360" y="162.4766">Subtree data reader (io.Reader)</text><line style="stroke:#000000;stroke-width:1.0;stroke-dasharray:2.0,2.0;" x1="237.5" x2="633.5" y1="176.2188" y2="176.2188"/><text fill="#333333" font-family="sans-serif" font-size="11" font-weight="bold" lengthAdjust="spacing" textLength="186" x="242.5" y="186.8535">[SubtreeStore does not have data]</text><polygon fill="#666666" points="354,207.4844,344,211.4844,354,215.4844,350,211.4844" style="stroke:#666666;stroke-width:1.0;"/><line style="stroke:#666666;stroke-width:1.0;stroke-dasharray:2.0,2.0;" x1="348" x2="566" y1="211.4844" y2="211.4844"/><text fill="#333333" font-family="sans-serif" font-size="13" lengthAdjust="spacing" textLength="95" x="360" y="206.7422">Data not found</text><polygon fill="#666666" points="63,243.7949,53,247.7949,63,251.7949,59,247.7949" style="stroke:#666666;stroke-width:1.0;"/><line style="stroke:#666666;stroke-width:1.0;stroke-dasharray:2.0,2.0;" x1="57" x2="337" y1="247.7949" y2="247.7949"/><text fill="#333333" font-family="sans-serif" font-size="13" lengthAdjust="spacing" textLength="257" x="69" y="243.0527">Binary stream (application/octet-stream)</text><text fill="#333333" font-family="sans-serif" font-size="10" lengthAdjust="spacing" textLength="154" x="0" y="323.4395">Last Modified On: 8-Dec-2025</text><!--SRC=[fP9HYnCn4CVVyoc6YhWBxbKGHFfm3tTrzS6Ys3uUo7GpUmsN9cioxLd4x-uaksXQ1C4Rs2MR_ESt_ybiV31km81xs6BtS1_ymUbRRts0P-shzctRglXReQd7W-NMEvuahtCK4Wp1Fqw7Rt8ezGAMr1j7iFL1KuZGoobQ2sHfJuvZaI-VXa_mGm7SPFKvItOlNIvpg9-ge7JYC7ZxL8oysNHcGCV_XrAgHCm-R3QVuTOQQN866AVbNpHh2aSATwx268ddE-R1x0UR5rVtlixPIJaApmdhmvO3qPfze2pCgpI6z-ys4EZRWIBd6GHyX3YgGIEZ6Wr1Srt0OP7pvfFmQnBE5pkCEuKTcoCobLPKaIcSN3iXY2TVIyd_GYWNMNNy_IKaKlq7DPf5or3saLIZHP0OjvfBc-kY5UapbO3A-AknMgt8HZgdQayHd6V17-cV_EGyg_iqR4NoQBemVjQ-0AORNS2DSHXE4AMu_5aL3eCr7RBnRkux9cx6axf4bjTggK-5FGlu8ye0LrwRtf26Jsu1pyKxLJEjczLgrPmaPhNw1G00]--></g></svg>