<?xml version="1.0" encoding="us-ascii" standalone="no"?><svg xmlns="http://www.w3.org/2000/svg" xmlns:xlink="http://www.w3.org/1999/xlink" contentStyleType="text/css" height="406px" preserveAspectRatio="none" style="width:1008px;height:406px;background:#F0F8FF;" version="1.1" viewBox="0 0 1008 406" width="1008px" zoomAndPan="magnify"><defs/><g><rect fill="#F0F8FF" height="406" style="stroke:none;stroke-width:1.0;" width="1008" x="0" y="0"/><rect fill="#FFFFFF" height="236.4844" style="stroke:#181818;stroke-width:1.0;" width="10" x="324" y="84.2871"/><rect fill="#FFFFFF" height="29.3105" style="stroke:#181818;stroke-width:1.0;" width="10" x="643" y="137.9082"/><rect fill="#FFFFFF" height="87.9316" style="stroke:#181818;stroke-width:1.0;" width="10" x="643" y="203.5293"/><rect fill="#FFFFFF" height="29.3105" style="stroke:#181818;stroke-width:1.0;" width="10" x="934" y="232.8398"/><rect fill="none" height="75.9316" style="stroke:#000000;stroke-width:1.5;" width="473" x="228.5" y="99.2871"/><line style="stroke:#181818;stroke-width:0.5;stroke-dasharray:5.0,5.0;" x1="52" x2="52" y1="52.9766" y2="338.7715"/><line style="stroke:#181818;stroke-width:0.5;stroke-dasharray:5.0,5.0;" x1="328.5" x2="328.5" y1="52.9766" y2="338.7715"/><line style="stroke:#181818;stroke-width:0.5;stroke-dasharray:5.0,5.0;" x1="647.5" x2="647.5" y1="52.9766" y2="338.7715"/><line style="stroke:#181818;stroke-width:0.5;stroke-dasharray:5.0,5.0;" x1="938.5" x2="938.5" y1="52.9766" y2="338.7715"/><rect fill="#DDDDDD" height="30.4883" rx="2.5" ry="2.5" style="stroke:#666666;stroke-width:0.5;" width="94" x="5" y="21.4883"/><text fill="#333333" font-family="sans-serif" font-size="14" lengthAdjust="spacing" textLength="80" x="12" y="42.0234">HTTP Client</text><rect fill="#DDDDDD" height="30.4883" rx="2.5" ry="2.5" style="stroke:#666666;stroke-width:0.5;" width="94" x="5" y="337.7715"/><text fill="#333333" font-family="sans-serif" font-size="14" lengthAdjust="spacing" textLength="80" x="12" y="358.3066">HTTP Client</text><rect fill="#DDDDDD" height="46.9766" rx="2.5" ry="2.5" style="stroke:#666666;stroke-width:0.5;" width="181" x="238.5" y="5"/><text fill="#333333" font-family="sans-serif" font-size="14" lengthAdjust="spacing" textLength="83" x="287.5" y="25.5352">HTTP Server</text><text fill="#333333" font-family="sans-serif" font-size="14" lengthAdjust="spacing" textLength="167" x="245.5" y="42.0234">(asset/httpimpl/http.go)</text><rect fill="#DDDDDD" height="46.9766" rx="2.5" ry="2.5" style="stroke:#666666;stroke-width:0.5;" width="181" x="238.5" y="337.7715"/><text fill="#333333" font-family="sans-serif" font-size="14" lengthAdjust="spacing" textLength="83" x="287.5" y="358.3066">HTTP Server</text><text fill="#333333" font-family="sans-serif" font-size="14" lengthAdjust="spacing" textLength="167" x="245.5" y="374.7949">(asset/httpimpl/http.go)</text><rect fill="#DDDDDD" height="30.4883" rx="2.5" ry="2.5" style="stroke:#666666;stroke-width:0.5;" width="87" x="604.5" y="21.4883"/><text fill="#333333" font-family="sans-serif" font-size="14" lengthAdjust="spacing" textLength="73" x="611.5" y="42.0234">Repository</text><rect fill="#DDDDDD" height="30.4883" rx="2.5" ry="2.5" style="stroke:#666666;stroke-width:0.5;" width="87" x="604.5" y="337.7715"/><text fill="#333333" font-family="sans-serif" font-size="14" lengthAdjust="spacing" textLength="73" x="611.5" y="358.3066">Repository</text><rect fill="#DDDDDD" height="30.4883" rx="2.5" ry="2.5" style="stroke:#666666;stroke-width:0.5;" width="127" x="875.5" y="21.4883"/><text fill="#333333" font-family="sans-serif" font-size="14" lengthAdjust="spacing" textLength="113" x="882.5" y="42.0234">BlockchainClient</text><rect fill="#DDDDDD" height="30.4883" rx="2.5" ry="2.5" style="stroke:#666666;stroke-width:0.5;" width="127" x="875.5" y="337.7715"/><text fill="#333333" font-family="sans-serif" font-size="14" lengthAdjust="spacing" textLength="113" x="882.5" y="358.3066">BlockchainClient</text><rect fill="#FFFFFF" height="236.4844" style="stroke:#181818;stroke-width:1.0;" width="10" x="324" y="84.2871"/><rect fill="#FFFFFF" height="29.3105" style="stroke:#181818;stroke-width:1.0;" width="10" x="643" y="137.9082"/><rect fill="#FFFFFF" height="87.9316" style="stroke:#181818;stroke-width:1.0;" width="10" x="643" y="203.5293"/><rect fill="#FFFFFF" height="29.3105" style="stroke:#181818;stroke-width:1.0;" width="10" x="934" y="232.8398"/><polygon fill="#666666" points="312,80.2871,322,84.2871,312,88.2871,316,84.2871" style="stroke:#666666;stroke-width:1.0;"/><line style="stroke:#666666;stroke-width:1.0;" x1="52" x2="318" y1="84.2871" y2="84.2871"/><text fill="#333333" font-family="sans-serif" font-size="13" lengthAdjust="spacing" textLength="238" x="59" y="79.5449">GET /block_locator?hash=&lt;optional&gt;</text><path d="M228.5,99.2871 L290.5,99.2871 L290.5,106.5977 L280.5,116.5977 L228.5,116.5977 L228.5,99.2871 " fill="#EEEEEE" style="stroke:#000000;stroke-width:1.5;"/><rect fill="none" height="75.9316" style="stroke:#000000;stroke-width:1.5;" width="473" x="228.5" y="99.2871"/><text fill="#333333" font-family="sans-serif" font-size="13" font-weight="bold" lengthAdjust="spacing" textLength="17" x="243.5" y="112.8555">alt</text><text fill="#333333" font-family="sans-serif" font-size="11" font-weight="bold" lengthAdjust="spacing" textLength="107" x="305.5" y="111.9219">[No hash provided]</text><polygon fill="#666666" points="631,133.9082,641,137.9082,631,141.9082,635,137.9082" style="stroke:#666666;stroke-width:1.0;"/><line style="stroke:#666666;stroke-width:1.0;" x1="334" x2="637" y1="137.9082" y2="137.9082"/><text fill="#333333" font-family="sans-serif" font-size="13" lengthAdjust="spacing" textLength="153" x="341" y="133.166">GetBestBlockHeader(ctx)</text><polygon fill="#666666" points="345,163.2188,335,167.2188,345,171.2188,341,167.2188" style="stroke:#666666;stroke-width:1.0;"/><line style="stroke:#666666;stroke-width:1.0;stroke-dasharray:2.0,2.0;" x1="339" x2="647" y1="167.2188" y2="167.2188"/><text fill="#333333" font-family="sans-serif" font-size="13" lengthAdjust="spacing" textLength="200" x="351" y="162.4766">Best block header and metadata</text><polygon fill="#666666" points="631,199.5293,641,203.5293,631,207.5293,635,203.5293" style="stroke:#666666;stroke-width:1.0;"/><line style="stroke:#666666;stroke-width:1.0;" x1="334" x2="637" y1="203.5293" y2="203.5293"/><text fill="#333333" font-family="sans-serif" font-size="13" lengthAdjust="spacing" textLength="290" x="341" y="198.7871">GetBlockLocator(ctx, blockHash, blockHeight)</text><polygon fill="#666666" points="922,228.8398,932,232.8398,922,236.8398,926,232.8398" style="stroke:#666666;stroke-width:1.0;"/><line style="stroke:#666666;stroke-width:1.0;" x1="653" x2="928" y1="232.8398" y2="232.8398"/><text fill="#333333" font-family="sans-serif" font-size="13" lengthAdjust="spacing" textLength="262" x="660" y="228.0977">GetBlockLocator(blockHash, blockHeight)</text><polygon fill="#666666" points="664,258.1504,654,262.1504,664,266.1504,660,262.1504" style="stroke:#666666;stroke-width:1.0;"/><line style="stroke:#666666;stroke-width:1.0;stroke-dasharray:2.0,2.0;" x1="658" x2="938" y1="262.1504" y2="262.1504"/><text fill="#333333" font-family="sans-serif" font-size="13" lengthAdjust="spacing" textLength="165" x="670" y="257.4082">Block locator hashes array</text><polygon fill="#666666" points="345,287.4609,335,291.4609,345,295.4609,341,291.4609" style="stroke:#666666;stroke-width:1.0;"/><line style="stroke:#666666;stroke-width:1.0;stroke-dasharray:2.0,2.0;" x1="339" x2="647" y1="291.4609" y2="291.4609"/><text fill="#333333" font-family="sans-serif" font-size="13" lengthAdjust="spacing" textLength="130" x="351" y="286.7188">Block locator hashes</text><polygon fill="#666666" points="63,316.7715,53,320.7715,63,324.7715,59,320.7715" style="stroke:#666666;stroke-width:1.0;"/><line style="stroke:#666666;stroke-width:1.0;stroke-dasharray:2.0,2.0;" x1="57" x2="328" y1="320.7715" y2="320.7715"/><text fill="#333333" font-family="sans-serif" font-size="13" lengthAdjust="spacing" textLength="248" x="69" y="316.0293">JSON response with block_locator array</text><text fill="#333333" font-family="sans-serif" font-size="10" lengthAdjust="spacing" textLength="154" x="0" y="396.416">Last Modified On: 8-Dec-2025</text><!--SRC=[fPDlYnCn4CRVvrCC5R45wmc274KhzCwroFNkyFfIaEbcjXkQ9cioxLaElxj9kbxJkdYWUR7appE_UJAJzIjb6dIuXWMMgwMp6oClhBOEdXMlY_EY4FvH8Qd2ZUR26cubRzB89EYSlMyFtwOXn0kuf4ePWeLrafo7AfoYra2QrcJOP_5XgNW73m9WajJ7hB1xwl8o3V5JP9GoE7HM_oycV5cLga73_uOI8aVqflFvBLne5IxP0_Jjj4DpHsvBxglfe_V4PpLpezQDJfDNIpj8qL6v5nuJlb1ZlMBhTabsM1xB9jgMgx96PJ97XytOjayVv-3e-uOyfvujuYc43mQSs8V1S9mvWL4AEalARwtoGus-Vl_EDgoiGJqMMBBQ8bD-1O6QuTf2r4BZx5P9ag6waDD3hiDrOYxYIJ2NN4y9GtFw9VyOfB3795a1udu669vwZx3sbdN20He9QsAKo9Z29NM1oKWXdZ0QiLVxYaINB_U9fk6-lwUabZKFH5U2tFKuQrC7-qbirkGCD3prFCcxdVf2FlxVk1DP4JBONolR0HFTjJogO-2qxsm4d-zkhiDxz8qrdk1USGr7x-nFS_dxqbJ5LsmvOAymz7bcfQeKIRWn8tWU6apzdfJ3sMmst8NH6uXV]--></g></svg>