<?xml version="1.0" encoding="us-ascii" standalone="no"?><svg xmlns="http://www.w3.org/2000/svg" xmlns:xlink="http://www.w3.org/1999/xlink" contentStyleType="text/css" height="333px" preserveAspectRatio="none" style="width:633px;height:333px;background:#F0F8FF;" version="1.1" viewBox="0 0 633 333" width="633px" zoomAndPan="magnify"><defs/><g><rect fill="#F0F8FF" height="333" style="stroke:none;stroke-width:1.0;" width="633" x="0" y="0"/><rect fill="#FFFFFF" height="163.5078" style="stroke:#181818;stroke-width:1.0;" width="10" x="333" y="84.2871"/><rect fill="#FFFFFF" height="112.8867" style="stroke:#181818;stroke-width:1.0;" width="10" x="568" y="113.5977"/><rect fill="none" height="90.8867" style="stroke:#000000;stroke-width:1.5;" width="389" x="237.5" y="128.5977"/><line style="stroke:#181818;stroke-width:0.5;stroke-dasharray:5.0,5.0;" x1="52" x2="52" y1="52.9766" y2="265.7949"/><line style="stroke:#181818;stroke-width:0.5;stroke-dasharray:5.0,5.0;" x1="337.5" x2="337.5" y1="52.9766" y2="265.7949"/><line style="stroke:#181818;stroke-width:0.5;stroke-dasharray:5.0,5.0;" x1="572.5" x2="572.5" y1="52.9766" y2="265.7949"/><rect fill="#DDDDDD" height="30.4883" rx="2.5" ry="2.5" style="stroke:#666666;stroke-width:0.5;" width="94" x="5" y="21.4883"/><text fill="#333333" font-family="sans-serif" font-size="14" lengthAdjust="spacing" textLength="80" x="12" y="42.0234">HTTP Client</text><rect fill="#DDDDDD" height="30.4883" rx="2.5" ry="2.5" style="stroke:#666666;stroke-width:0.5;" width="94" x="5" y="264.7949"/><text fill="#333333" font-family="sans-serif" font-size="14" lengthAdjust="spacing" textLength="80" x="12" y="285.3301">HTTP Client</text><rect fill="#DDDDDD" height="46.9766" rx="2.5" ry="2.5" style="stroke:#666666;stroke-width:0.5;" width="181" x="247.5" y="5"/><text fill="#333333" font-family="sans-serif" font-size="14" lengthAdjust="spacing" textLength="83" x="296.5" y="25.5352">HTTP Server</text><text fill="#333333" font-family="sans-serif" font-size="14" lengthAdjust="spacing" textLength="167" x="254.5" y="42.0234">(asset/httpimpl/http.go)</text><rect fill="#DDDDDD" height="46.9766" rx="2.5" ry="2.5" style="stroke:#666666;stroke-width:0.5;" width="181" x="247.5" y="264.7949"/><text fill="#333333" font-family="sans-serif" font-size="14" lengthAdjust="spacing" textLength="83" x="296.5" y="285.3301">HTTP Server</text><text fill="#333333" font-family="sans-serif" font-size="14" lengthAdjust="spacing" textLength="167" x="254.5" y="301.8184">(asset/httpimpl/http.go)</text><rect fill="#DDDDDD" height="30.4883" rx="2.5" ry="2.5" style="stroke:#666666;stroke-width:0.5;" width="87" x="529.5" y="21.4883"/><text fill="#333333" font-family="sans-serif" font-size="14" lengthAdjust="spacing" textLength="73" x="536.5" y="42.0234">Repository</text><rect fill="#DDDDDD" height="30.4883" rx="2.5" ry="2.5" style="stroke:#666666;stroke-width:0.5;" width="87" x="529.5" y="264.7949"/><text fill="#333333" font-family="sans-serif" font-size="14" lengthAdjust="spacing" textLength="73" x="536.5" y="285.3301">Repository</text><rect fill="#FFFFFF" height="163.5078" style="stroke:#181818;stroke-width:1.0;" width="10" x="333" y="84.2871"/><rect fill="#FFFFFF" height="112.8867" style="stroke:#181818;stroke-width:1.0;" width="10" x="568" y="113.5977"/><polygon fill="#666666" points="321,80.2871,331,84.2871,321,88.2871,325,84.2871" style="stroke:#666666;stroke-width:1.0;"/><line style="stroke:#666666;stroke-width:1.0;" x1="52" x2="327" y1="84.2871" y2="84.2871"/><text fill="#333333" font-family="sans-serif" font-size="13" lengthAdjust="spacing" textLength="166" x="59" y="79.5449">GET /rest/block/:hash.bin</text><polygon fill="#666666" points="556,109.5977,566,113.5977,556,117.5977,560,113.5977" style="stroke:#666666;stroke-width:1.0;"/><line style="stroke:#666666;stroke-width:1.0;" x1="343" x2="562" y1="113.5977" y2="113.5977"/><text fill="#333333" font-family="sans-serif" font-size="13" lengthAdjust="spacing" textLength="206" x="350" y="108.8555">GetLegacyBlockReader(ctx, hash)</text><path d="M237.5,128.5977 L299.5,128.5977 L299.5,135.9082 L289.5,145.9082 L237.5,145.9082 L237.5,128.5977 " fill="#EEEEEE" style="stroke:#000000;stroke-width:1.5;"/><rect fill="none" height="90.8867" style="stroke:#000000;stroke-width:1.5;" width="389" x="237.5" y="128.5977"/><text fill="#333333" font-family="sans-serif" font-size="13" font-weight="bold" lengthAdjust="spacing" textLength="17" x="252.5" y="142.166">alt</text><text fill="#333333" font-family="sans-serif" font-size="11" font-weight="bold" lengthAdjust="spacing" textLength="117" x="314.5" y="141.2324">[Legacy block found]</text><polygon fill="#666666" points="354,163.2188,344,167.2188,354,171.2188,350,167.2188" style="stroke:#666666;stroke-width:1.0;"/><line style="stroke:#666666;stroke-width:1.0;stroke-dasharray:2.0,2.0;" x1="348" x2="567" y1="167.2188" y2="167.2188"/><text fill="#333333" font-family="sans-serif" font-size="13" lengthAdjust="spacing" textLength="147" x="360" y="162.4766">Block reader (io.Reader)</text><line style="stroke:#000000;stroke-width:1.0;stroke-dasharray:2.0,2.0;" x1="237.5" x2="626.5" y1="176.2188" y2="176.2188"/><text fill="#333333" font-family="sans-serif" font-size="11" font-weight="bold" lengthAdjust="spacing" textLength="98" x="242.5" y="186.8535">[Block not found]</text><polygon fill="#666666" points="354,207.4844,344,211.4844,354,215.4844,350,211.4844" style="stroke:#666666;stroke-width:1.0;"/><line style="stroke:#666666;stroke-width:1.0;stroke-dasharray:2.0,2.0;" x1="348" x2="567" y1="211.4844" y2="211.4844"/><text fill="#333333" font-family="sans-serif" font-size="13" lengthAdjust="spacing" textLength="95" x="360" y="206.7422">Data not found</text><polygon fill="#666666" points="63,243.7949,53,247.7949,63,251.7949,59,247.7949" style="stroke:#666666;stroke-width:1.0;"/><line style="stroke:#666666;stroke-width:1.0;stroke-dasharray:2.0,2.0;" x1="57" x2="337" y1="247.7949" y2="247.7949"/><text fill="#333333" font-family="sans-serif" font-size="13" lengthAdjust="spacing" textLength="257" x="69" y="243.0527">Binary stream (application/octet-stream)</text><text fill="#333333" font-family="sans-serif" font-size="10" lengthAdjust="spacing" textLength="154" x="0" y="323.4395">Last Modified On: 8-Dec-2025</text><!--SRC=[fP71ZjCm48RlVefH4IAHI8E4X50F77QxWKChKBT7BjDuqbfrxM1F2nNYtPcu4NLNUq0mXyYE__dcdvcuDwx7W0VOOBlV1dzq-jvR7-15ywPvtpGg_b5ewl1ekV6EHydR59a4G_3VnyTtAPHw1NFgZ2FO-A0fHEZa5Qq5idGWnp7BbwlXC_nK07T9VSkIlqzTpbEeNogZjE8mUFk_6FcoQKsFZlyDfLIEc7nQhx_0lJNIv0GmZiTdD8yKJXI-kW9Z9AvtpBqvz3OTfbjVfkn1UH7U4bRK-sZOXtEINQ_39Zu-h27GjoD5JckmjCNs31lhspsS3CBguN4jMz2zDsBjuX2g3rarc2LA7OHHfyHwjiEucswCKzYoEI5JxavbkKAw6Xf8n8jauMu0hGXbm4NBFrx3W2ollAmDj0oBt7St35ys0JcxUcewLP3cXn9G63-zL2iLsKZZg_FybxGvCcPocPZIz9pRc-w5CevK_1Y7GeuibWvGODzRqo8RxshVCd5rUIbpRZvLIzrGtRE05oZxN7fjEaCQFhiPlDIYBoPQLylbiZfBJ4hr6m00]--></g></svg>