<?xml version="1.0" encoding="us-ascii" standalone="no"?><svg xmlns="http://www.w3.org/2000/svg" xmlns:xlink="http://www.w3.org/1999/xlink" contentStyleType="text/css" height="1224px" preserveAspectRatio="none" style="width:1041px;height:1224px;background:#F0F8FF;" version="1.1" viewBox="0 0 1041 1224" width="1041px" zoomAndPan="magnify"><defs/><g><rect fill="#F0F8FF" height="1224" style="stroke:none;stroke-width:1.0;" width="1041" x="0" y="0"/><rect fill="none" height="238.0605" style="stroke:#000000;stroke-width:1.5;" width="397.5" x="489.5" y="377.9043"/><rect fill="none" height="238.7949" style="stroke:#000000;stroke-width:1.5;" width="555.5" x="479.5" y="659.2754"/><rect fill="none" height="91.2422" style="stroke:#000000;stroke-width:1.5;" width="535.5" x="489.5" y="683.5859"/><rect fill="none" height="141.5078" style="stroke:#000000;stroke-width:1.5;" width="318" x="10" y="941.3809"/><line style="stroke:#181818;stroke-width:0.5;stroke-dasharray:5.0,5.0;" x1="76" x2="76" y1="36.4883" y2="1172.8203"/><line style="stroke:#181818;stroke-width:0.5;stroke-dasharray:5.0,5.0;" x1="268" x2="268" y1="36.4883" y2="1172.8203"/><line style="stroke:#181818;stroke-width:0.5;stroke-dasharray:5.0,5.0;" x1="547.5" x2="547.5" y1="36.4883" y2="1172.8203"/><line style="stroke:#181818;stroke-width:0.5;stroke-dasharray:5.0,5.0;" x1="819" x2="819" y1="36.4883" y2="1172.8203"/><line style="stroke:#181818;stroke-width:0.5;stroke-dasharray:5.0,5.0;" x1="951" x2="951" y1="36.4883" y2="1172.8203"/><rect fill="#DDDDDD" height="30.4883" rx="2.5" ry="2.5" style="stroke:#666666;stroke-width:0.5;" width="112" x="20" y="5"/><text fill="#333333" font-family="sans-serif" font-size="14" lengthAdjust="spacing" textLength="98" x="27" y="25.5352">Pruner Service</text><rect fill="#DDDDDD" height="30.4883" rx="2.5" ry="2.5" style="stroke:#666666;stroke-width:0.5;" width="112" x="20" y="1171.8203"/><text fill="#333333" font-family="sans-serif" font-size="14" lengthAdjust="spacing" textLength="98" x="27" y="1192.3555">Pruner Service</text><rect fill="#DDDDDD" height="30.4883" rx="2.5" ry="2.5" style="stroke:#666666;stroke-width:0.5;" width="100" x="218" y="5"/><text fill="#333333" font-family="sans-serif" font-size="14" lengthAdjust="spacing" textLength="86" x="225" y="25.5352">Job Manager</text><rect fill="#DDDDDD" height="30.4883" rx="2.5" ry="2.5" style="stroke:#666666;stroke-width:0.5;" width="100" x="218" y="1171.8203"/><text fill="#333333" font-family="sans-serif" font-size="14" lengthAdjust="spacing" textLength="86" x="225" y="1192.3555">Job Manager</text><rect fill="#DDDDDD" height="30.4883" rx="2.5" ry="2.5" style="stroke:#666666;stroke-width:0.5;" width="97" x="499.5" y="5"/><text fill="#333333" font-family="sans-serif" font-size="14" lengthAdjust="spacing" textLength="83" x="506.5" y="25.5352">Worker Pool</text><rect fill="#DDDDDD" height="30.4883" rx="2.5" ry="2.5" style="stroke:#666666;stroke-width:0.5;" width="97" x="499.5" y="1171.8203"/><text fill="#333333" font-family="sans-serif" font-size="14" lengthAdjust="spacing" textLength="83" x="506.5" y="1192.3555">Worker Pool</text><rect fill="#DDDDDD" height="30.4883" rx="2.5" ry="2.5" style="stroke:#666666;stroke-width:0.5;" width="116" x="761" y="5"/><text fill="#333333" font-family="sans-serif" font-size="14" lengthAdjust="spacing" textLength="102" x="768" y="25.5352">Aerospike/SQL</text><rect fill="#DDDDDD" height="30.4883" rx="2.5" ry="2.5" style="stroke:#666666;stroke-width:0.5;" width="116" x="761" y="1171.8203"/><text fill="#333333" font-family="sans-serif" font-size="14" lengthAdjust="spacing" textLength="102" x="768" y="1192.3555">Aerospike/SQL</text><rect fill="#DDDDDD" height="30.4883" rx="2.5" ry="2.5" style="stroke:#666666;stroke-width:0.5;" width="128" x="887" y="5"/><text fill="#333333" font-family="sans-serif" font-size="14" lengthAdjust="spacing" textLength="114" x="894" y="25.5352">External Storage</text><rect fill="#DDDDDD" height="30.4883" rx="2.5" ry="2.5" style="stroke:#666666;stroke-width:0.5;" width="128" x="887" y="1171.8203"/><text fill="#333333" font-family="sans-serif" font-size="14" lengthAdjust="spacing" textLength="114" x="894" y="1192.3555">External Storage</text><path d="M18,51.4883 L18,76.4883 L1008,76.4883 L1008,61.4883 L998,51.4883 L18,51.4883 " fill="#FEFFDD" style="stroke:#181818;stroke-width:0.5;"/><path d="M998,51.4883 L998,61.4883 L1008,61.4883 L998,51.4883 " fill="#FEFFDD" style="stroke:#181818;stroke-width:0.5;"/><text fill="#333333" font-family="sans-serif" font-size="13" font-weight="bold" lengthAdjust="spacing" textLength="191" x="413" y="69.0566">Phase 2: DAH Pruning Detail</text><polygon fill="#666666" points="256,99.1094,266,103.1094,256,107.1094,260,103.1094" style="stroke:#666666;stroke-width:1.0;"/><line style="stroke:#666666;stroke-width:1.0;" x1="76" x2="262" y1="103.1094" y2="103.1094"/><text fill="#333333" font-family="sans-serif" font-size="13" lengthAdjust="spacing" textLength="168" x="83" y="98.3672">UpdateBlockHeight(height)</text><line style="stroke:#666666;stroke-width:1.0;" x1="268" x2="310" y1="147.7305" y2="147.7305"/><line style="stroke:#666666;stroke-width:1.0;" x1="310" x2="310" y1="147.7305" y2="160.7305"/><line style="stroke:#666666;stroke-width:1.0;" x1="269" x2="310" y1="160.7305" y2="160.7305"/><polygon fill="#666666" points="279,156.7305,269,160.7305,279,164.7305,275,160.7305" style="stroke:#666666;stroke-width:1.0;"/><text fill="#333333" font-family="sans-serif" font-size="13" lengthAdjust="spacing" textLength="128" x="275" y="127.6777">Get Persisted Height</text><text fill="#333333" font-family="sans-serif" font-size="13" lengthAdjust="spacing" textLength="126" x="275" y="142.9883">from Block Persister</text><line style="stroke:#666666;stroke-width:1.0;" x1="268" x2="310" y1="205.3516" y2="205.3516"/><line style="stroke:#666666;stroke-width:1.0;" x1="310" x2="310" y1="205.3516" y2="218.3516"/><line style="stroke:#666666;stroke-width:1.0;" x1="269" x2="310" y1="218.3516" y2="218.3516"/><polygon fill="#666666" points="279,214.3516,269,218.3516,279,222.3516,275,218.3516" style="stroke:#666666;stroke-width:1.0;"/><text fill="#333333" font-family="sans-serif" font-size="13" lengthAdjust="spacing" textLength="134" x="275" y="185.2988">Calculate Safe Height</text><text fill="#333333" font-family="sans-serif" font-size="13" lengthAdjust="spacing" textLength="266" x="275" y="200.6094">safeHeight = min(height, persistedHeight)</text><line style="stroke:#666666;stroke-width:1.0;" x1="268" x2="310" y1="262.9727" y2="262.9727"/><line style="stroke:#666666;stroke-width:1.0;" x1="310" x2="310" y1="262.9727" y2="275.9727"/><line style="stroke:#666666;stroke-width:1.0;" x1="269" x2="310" y1="275.9727" y2="275.9727"/><polygon fill="#666666" points="279,271.9727,269,275.9727,279,279.9727,275,275.9727" style="stroke:#666666;stroke-width:1.0;"/><text fill="#333333" font-family="sans-serif" font-size="13" lengthAdjust="spacing" textLength="116" x="275" y="242.9199">Create Pruning Job</text><text fill="#333333" font-family="sans-serif" font-size="13" lengthAdjust="spacing" textLength="134" x="275" y="258.2305">(height = safeHeight)</text><line style="stroke:#666666;stroke-width:1.0;" x1="268" x2="310" y1="320.5938" y2="320.5938"/><line style="stroke:#666666;stroke-width:1.0;" x1="310" x2="310" y1="320.5938" y2="333.5938"/><line style="stroke:#666666;stroke-width:1.0;" x1="269" x2="310" y1="333.5938" y2="333.5938"/><polygon fill="#666666" points="279,329.5938,269,333.5938,279,337.5938,275,333.5938" style="stroke:#666666;stroke-width:1.0;"/><text fill="#333333" font-family="sans-serif" font-size="13" lengthAdjust="spacing" textLength="149" x="275" y="300.541">Cancel Superseded Jobs</text><text fill="#333333" font-family="sans-serif" font-size="13" lengthAdjust="spacing" textLength="172" x="275" y="315.8516">(LIFO: process newest only)</text><polygon fill="#666666" points="536,358.9043,546,362.9043,536,366.9043,540,362.9043" style="stroke:#666666;stroke-width:1.0;"/><line style="stroke:#666666;stroke-width:1.0;" x1="268" x2="542" y1="362.9043" y2="362.9043"/><text fill="#333333" font-family="sans-serif" font-size="13" lengthAdjust="spacing" textLength="176" x="275" y="358.1621">Dispatch Job to Worker Pool</text><path d="M489.5,377.9043 L551.5,377.9043 L551.5,385.2148 L541.5,395.2148 L489.5,395.2148 L489.5,377.9043 " fill="#EEEEEE" style="stroke:#000000;stroke-width:1.5;"/><rect fill="none" height="238.0605" style="stroke:#000000;stroke-width:1.5;" width="397.5" x="489.5" y="377.9043"/><text fill="#333333" font-family="sans-serif" font-size="13" font-weight="bold" lengthAdjust="spacing" textLength="17" x="504.5" y="391.4727">alt</text><text fill="#333333" font-family="sans-serif" font-size="11" font-weight="bold" lengthAdjust="spacing" textLength="96" x="566.5" y="390.5391">[Aerospike Store]</text><polygon fill="#666666" points="807,443.1465,817,447.1465,807,451.1465,811,447.1465" style="stroke:#666666;stroke-width:1.0;"/><line style="stroke:#666666;stroke-width:1.0;" x1="548" x2="813" y1="447.1465" y2="447.1465"/><text fill="#333333" font-family="sans-serif" font-size="13" lengthAdjust="spacing" textLength="108" x="555" y="411.7832">Query with Filter:</text><text fill="#333333" font-family="sans-serif" font-size="13" lengthAdjust="spacing" textLength="190" x="555" y="427.0938">deleteAtHeight &lt;= safeHeight</text><text fill="#333333" font-family="sans-serif" font-size="13" lengthAdjust="spacing" textLength="146" x="555" y="442.4043">USING secondary index</text><path d="M553,460.1465 L553,500.1465 L692,500.1465 L692,470.1465 L682,460.1465 L553,460.1465 " fill="#FEFFDD" style="stroke:#181818;stroke-width:0.5;"/><path d="M682,460.1465 L682,470.1465 L692,470.1465 L682,460.1465 " fill="#FEFFDD" style="stroke:#181818;stroke-width:0.5;"/><text fill="#333333" font-family="sans-serif" font-size="13" lengthAdjust="spacing" textLength="118" x="559" y="477.7148">4 workers (default)</text><text fill="#333333" font-family="sans-serif" font-size="13" lengthAdjust="spacing" textLength="105" x="559" y="493.0254">Batch operations</text><line style="stroke:#000000;stroke-width:1.0;stroke-dasharray:2.0,2.0;" x1="489.5" x2="887" y1="506.7676" y2="506.7676"/><text fill="#333333" font-family="sans-serif" font-size="11" font-weight="bold" lengthAdjust="spacing" textLength="61" x="494.5" y="517.4023">[SQL Store]</text><polygon fill="#666666" points="807,553.3438,817,557.3438,807,561.3438,811,557.3438" style="stroke:#666666;stroke-width:1.0;"/><line style="stroke:#666666;stroke-width:1.0;" x1="548" x2="813" y1="557.3438" y2="557.3438"/><text fill="#333333" font-family="sans-serif" font-size="13" lengthAdjust="spacing" textLength="126" x="555" y="537.291">DELETE FROM utxos</text><text fill="#333333" font-family="sans-serif" font-size="13" lengthAdjust="spacing" textLength="247" x="555" y="552.6016">WHERE delete_at_height &lt;= safeHeight</text><path d="M553,570.3438 L553,610.3438 L692,610.3438 L692,580.3438 L682,570.3438 L553,570.3438 " fill="#FEFFDD" style="stroke:#181818;stroke-width:0.5;"/><path d="M682,570.3438 L682,580.3438 L692,580.3438 L682,570.3438 " fill="#FEFFDD" style="stroke:#181818;stroke-width:0.5;"/><text fill="#333333" font-family="sans-serif" font-size="13" lengthAdjust="spacing" textLength="118" x="559" y="587.9121">2 workers (default)</text><text fill="#333333" font-family="sans-serif" font-size="13" lengthAdjust="spacing" textLength="86" x="559" y="603.2227">Simpler query</text><polygon fill="#666666" points="559,640.2754,549,644.2754,559,648.2754,555,644.2754" style="stroke:#666666;stroke-width:1.0;"/><line style="stroke:#666666;stroke-width:1.0;stroke-dasharray:2.0,2.0;" x1="553" x2="818" y1="644.2754" y2="644.2754"/><text fill="#333333" font-family="sans-serif" font-size="13" lengthAdjust="spacing" textLength="148" x="565" y="639.5332">Records Matching Filter</text><path d="M479.5,659.2754 L553.5,659.2754 L553.5,666.5859 L543.5,676.5859 L479.5,676.5859 L479.5,659.2754 " fill="#EEEEEE" style="stroke:#000000;stroke-width:1.5;"/><rect fill="none" height="238.7949" style="stroke:#000000;stroke-width:1.5;" width="555.5" x="479.5" y="659.2754"/><text fill="#333333" font-family="sans-serif" font-size="13" font-weight="bold" lengthAdjust="spacing" textLength="29" x="494.5" y="672.8438">loop</text><text fill="#333333" font-family="sans-serif" font-size="11" font-weight="bold" lengthAdjust="spacing" textLength="153" x="568.5" y="671.9102">[For Each Record to Delete]</text><path d="M489.5,683.5859 L551.5,683.5859 L551.5,690.8965 L541.5,700.8965 L489.5,700.8965 L489.5,683.5859 " fill="#EEEEEE" style="stroke:#000000;stroke-width:1.5;"/><rect fill="none" height="91.2422" style="stroke:#000000;stroke-width:1.5;" width="535.5" x="489.5" y="683.5859"/><text fill="#333333" font-family="sans-serif" font-size="13" font-weight="bold" lengthAdjust="spacing" textLength="17" x="504.5" y="697.1543">alt</text><text fill="#333333" font-family="sans-serif" font-size="11" font-weight="bold" lengthAdjust="spacing" textLength="177" x="566.5" y="696.2207">[Has External Transaction Data]</text><polygon fill="#666666" points="939,733.5176,949,737.5176,939,741.5176,943,737.5176" style="stroke:#666666;stroke-width:1.0;"/><line style="stroke:#666666;stroke-width:1.0;" x1="548" x2="945" y1="737.5176" y2="737.5176"/><text fill="#333333" font-family="sans-serif" font-size="13" lengthAdjust="spacing" textLength="119" x="555" y="717.4648">Delete .tx file from</text><text fill="#333333" font-family="sans-serif" font-size="13" lengthAdjust="spacing" textLength="177" x="555" y="732.7754">Blob Storage (S3/filesystem)</text><polygon fill="#666666" points="559,762.8281,549,766.8281,559,770.8281,555,766.8281" style="stroke:#666666;stroke-width:1.0;"/><line style="stroke:#666666;stroke-width:1.0;stroke-dasharray:2.0,2.0;" x1="553" x2="950" y1="766.8281" y2="766.8281"/><text fill="#333333" font-family="sans-serif" font-size="13" lengthAdjust="spacing" textLength="136" x="565" y="762.0859">External Data Deleted</text><polygon fill="#666666" points="807,799.1387,817,803.1387,807,807.1387,811,803.1387" style="stroke:#666666;stroke-width:1.0;"/><line style="stroke:#666666;stroke-width:1.0;" x1="548" x2="813" y1="803.1387" y2="803.1387"/><text fill="#333333" font-family="sans-serif" font-size="13" lengthAdjust="spacing" textLength="126" x="555" y="798.3965">Delete UTXO Record</text><polygon fill="#666666" points="559,828.4492,549,832.4492,559,836.4492,555,832.4492" style="stroke:#666666;stroke-width:1.0;"/><line style="stroke:#666666;stroke-width:1.0;stroke-dasharray:2.0,2.0;" x1="553" x2="818" y1="832.4492" y2="832.4492"/><text fill="#333333" font-family="sans-serif" font-size="13" lengthAdjust="spacing" textLength="95" x="565" y="827.707">Record Deleted</text><line style="stroke:#666666;stroke-width:1.0;" x1="548" x2="590" y1="877.0703" y2="877.0703"/><line style="stroke:#666666;stroke-width:1.0;" x1="590" x2="590" y1="877.0703" y2="890.0703"/><line style="stroke:#666666;stroke-width:1.0;" x1="549" x2="590" y1="890.0703" y2="890.0703"/><polygon fill="#666666" points="559,886.0703,549,890.0703,559,894.0703,555,890.0703" style="stroke:#666666;stroke-width:1.0;"/><text fill="#333333" font-family="sans-serif" font-size="13" lengthAdjust="spacing" textLength="98" x="555" y="857.0176">Update Metrics:</text><text fill="#333333" font-family="sans-serif" font-size="13" lengthAdjust="spacing" textLength="246" x="555" y="872.3281">utxo_cleanup_batch_duration_seconds</text><polygon fill="#666666" points="279,922.3809,269,926.3809,279,930.3809,275,926.3809" style="stroke:#666666;stroke-width:1.0;"/><line style="stroke:#666666;stroke-width:1.0;stroke-dasharray:2.0,2.0;" x1="273" x2="547" y1="926.3809" y2="926.3809"/><text fill="#333333" font-family="sans-serif" font-size="13" lengthAdjust="spacing" textLength="92" x="285" y="921.6387">Job Completed</text><path d="M10,941.3809 L72,941.3809 L72,948.6914 L62,958.6914 L10,958.6914 L10,941.3809 " fill="#EEEEEE" style="stroke:#000000;stroke-width:1.5;"/><rect fill="none" height="141.5078" style="stroke:#000000;stroke-width:1.5;" width="318" x="10" y="941.3809"/><text fill="#333333" font-family="sans-serif" font-size="13" font-weight="bold" lengthAdjust="spacing" textLength="17" x="25" y="954.9492">alt</text><text fill="#333333" font-family="sans-serif" font-size="11" font-weight="bold" lengthAdjust="spacing" textLength="223" x="87" y="954.0156">[Timeout Reached (10 minutes default)]</text><polygon fill="#666666" points="87,976.002,77,980.002,87,984.002,83,980.002" style="stroke:#666666;stroke-width:1.0;"/><line style="stroke:#666666;stroke-width:1.0;stroke-dasharray:2.0,2.0;" x1="81" x2="267" y1="980.002" y2="980.002"/><text fill="#333333" font-family="sans-serif" font-size="13" lengthAdjust="spacing" textLength="128" x="93" y="975.2598">Timeout (Non-Error)</text><path d="M81,993.002 L81,1033.002 L283,1033.002 L283,1003.002 L273,993.002 L81,993.002 " fill="#FEFFDD" style="stroke:#181818;stroke-width:0.5;"/><path d="M273,993.002 L273,1003.002 L283,1003.002 L273,993.002 " fill="#FEFFDD" style="stroke:#181818;stroke-width:0.5;"/><text fill="#333333" font-family="sans-serif" font-size="13" lengthAdjust="spacing" textLength="181" x="87" y="1010.5703">Job continues in background</text><text fill="#333333" font-family="sans-serif" font-size="13" lengthAdjust="spacing" textLength="174" x="87" y="1025.8809">Will be re-queued if needed</text><line style="stroke:#000000;stroke-width:1.0;stroke-dasharray:2.0,2.0;" x1="10" x2="328" y1="1039.623" y2="1039.623"/><text fill="#333333" font-family="sans-serif" font-size="11" font-weight="bold" lengthAdjust="spacing" textLength="91" x="15" y="1050.2578">[Job Completed]</text><polygon fill="#666666" points="87,1070.8887,77,1074.8887,87,1078.8887,83,1074.8887" style="stroke:#666666;stroke-width:1.0;"/><line style="stroke:#666666;stroke-width:1.0;stroke-dasharray:2.0,2.0;" x1="81" x2="267" y1="1074.8887" y2="1074.8887"/><text fill="#333333" font-family="sans-serif" font-size="13" lengthAdjust="spacing" textLength="50" x="93" y="1070.1465">Success</text><line style="stroke:#666666;stroke-width:1.0;" x1="76" x2="118" y1="1141.8203" y2="1141.8203"/><line style="stroke:#666666;stroke-width:1.0;" x1="118" x2="118" y1="1141.8203" y2="1154.8203"/><line style="stroke:#666666;stroke-width:1.0;" x1="77" x2="118" y1="1154.8203" y2="1154.8203"/><polygon fill="#666666" points="87,1150.8203,77,1154.8203,87,1158.8203,83,1154.8203" style="stroke:#666666;stroke-width:1.0;"/><text fill="#333333" font-family="sans-serif" font-size="13" lengthAdjust="spacing" textLength="97" x="83" y="1106.457">Record Metrics:</text><text fill="#333333" font-family="sans-serif" font-size="13" lengthAdjust="spacing" textLength="160" x="83" y="1121.7676">pruner_duration_seconds</text><text fill="#333333" font-family="sans-serif" font-size="13" lengthAdjust="spacing" textLength="148" x="83" y="1137.0781">pruner_processed_total</text><text fill="#333333" font-family="sans-serif" font-size="10" lengthAdjust="spacing" textLength="155" x="0" y="1213.9766">Last Modified On: 01-Dec-2025</text><!--SRC=[XLLTRzCm57tthxWQGcgdbOs14Ae0QLsQ5RIoZsw2XqgLbzoiLbqxs0xRXFZlNDjfcfOoyh0rkSVddljfkn2gv8OluOvdYtkZAvMVQgaDl4YFqlTfoco3oB7WbNIfLgw6l0bF2yADqG-ryLruMCjAVvt8HCcLWryCOA1DZcOJJb-tXIJXORyPQnFiNPfAeO49cfyYmptW5kAdJTWNVGTZhlWzce2Xz_fr4_TDcmNHNMej0ow-sqtG2HfjIx70mydLUO0bWqt4yD6XKLp2n6b3NW9ezP4nfHs2_kaT1Qq7ZQqF-_kNSsuHZlkGd8m2GAXxID1n8VVt6QiZxdrg1T67spBd3WTIPuiHYlkvwyp3lovZQzZseJDqS4dX2UimXtXkgWgZbn2O6gDvZkMKowoIv1qclC26nj9B_0qVOIbKBUW0ofN7qVyLdXhqnAiia6cw8YBMjOldIRZAa6fHUS-OKwXajKHq_Zczw4DfT8RMWi87j0wqaaz_qTLzG3KHjkGkctiAS1fQ3SCObmwQvWYrHsfbM9tsHCcW3rSLcYTu46uEgP2KtVvKvIZHuOchC_QX7TnKtKu-Vpq3YvbMEQUpWl2FWJgqaWbdTB6M-HOUQf-TUc2xKpK8mZLbWJkXbMKegT6eX_yjDHcU3s-6a5vVZA5oZvgozcqql1v2r3lZRZRVeVWvQSUxf4t4ifIKnny-DGnLpbWoW5uxyzSKlSajZJ55uPiXveungNK9AUs88QVm8ioN9WaIWnHVc55h1E76S6hGpAS14kvuG6t5lvx9o0Ilt2CKGYBu2Q5qIcg1Ui2XCtbpw6tsYJfxsMtu6eyRiJHVlU-QFWzdGkYx2X4btDvylwX33AZTIMeOjvaQN5mNC4PdH6Qf_tnnPvb4hgfoTkTJFCkhs2Ups7SsbgLXsneoFm-dsbSnEFOPln5Br9KZKLGOchhEwoE_22g7TdMDn4IrPureuuRhD-SxNxNg3UbICTqTZRL2Um6aqv43uXUgTPTHqmefuOvEOOzQh28neg21zyiWJi6c_6T4JQhCRukOZFKkNfdh0gmJMmR3Nybi3FNsmNpcjFENWyJ2GQ4fHWFdd1RIMEUY42JvGlNXfQzRPo_FU-FnkFT4prxt3m00]--></g></svg>