<?xml version="1.0" encoding="us-ascii" standalone="no"?><svg xmlns="http://www.w3.org/2000/svg" xmlns:xlink="http://www.w3.org/1999/xlink" contentStyleType="text/css" height="922px" preserveAspectRatio="none" style="width:783px;height:922px;background:#F0F8FF;" version="1.1" viewBox="0 0 783 922" width="783px" zoomAndPan="magnify"><defs/><g><rect fill="#F0F8FF" height="922" style="stroke:none;stroke-width:1.0;" width="783" x="0" y="0"/><line style="stroke:#181818;stroke-width:0.5;stroke-dasharray:5.0,5.0;" x1="61" x2="61" y1="36.4883" y2="871.4941"/><line style="stroke:#181818;stroke-width:0.5;stroke-dasharray:5.0,5.0;" x1="261" x2="261" y1="36.4883" y2="871.4941"/><line style="stroke:#181818;stroke-width:0.5;stroke-dasharray:5.0,5.0;" x1="533.5" x2="533.5" y1="36.4883" y2="871.4941"/><line style="stroke:#181818;stroke-width:0.5;stroke-dasharray:5.0,5.0;" x1="634.5" x2="634.5" y1="36.4883" y2="871.4941"/><rect fill="#DDDDDD" height="30.4883" rx="2.5" ry="2.5" style="stroke:#666666;stroke-width:0.5;" width="112" x="5" y="5"/><text fill="#333333" font-family="sans-serif" font-size="14" lengthAdjust="spacing" textLength="98" x="12" y="25.5352">Pruner Service</text><rect fill="#DDDDDD" height="30.4883" rx="2.5" ry="2.5" style="stroke:#666666;stroke-width:0.5;" width="112" x="5" y="870.4941"/><text fill="#333333" font-family="sans-serif" font-size="14" lengthAdjust="spacing" textLength="98" x="12" y="891.0293">Pruner Service</text><rect fill="#DDDDDD" height="30.4883" rx="2.5" ry="2.5" style="stroke:#666666;stroke-width:0.5;" width="100" x="211" y="5"/><text fill="#333333" font-family="sans-serif" font-size="14" lengthAdjust="spacing" textLength="86" x="218" y="25.5352">Job Manager</text><rect fill="#DDDDDD" height="30.4883" rx="2.5" ry="2.5" style="stroke:#666666;stroke-width:0.5;" width="100" x="211" y="870.4941"/><text fill="#333333" font-family="sans-serif" font-size="14" lengthAdjust="spacing" textLength="86" x="218" y="891.0293">Job Manager</text><rect fill="#DDDDDD" height="30.4883" rx="2.5" ry="2.5" style="stroke:#666666;stroke-width:0.5;" width="85" x="491.5" y="5"/><text fill="#333333" font-family="sans-serif" font-size="14" lengthAdjust="spacing" textLength="71" x="498.5" y="25.5352">Job Queue</text><rect fill="#DDDDDD" height="30.4883" rx="2.5" ry="2.5" style="stroke:#666666;stroke-width:0.5;" width="85" x="491.5" y="870.4941"/><text fill="#333333" font-family="sans-serif" font-size="14" lengthAdjust="spacing" textLength="71" x="498.5" y="891.0293">Job Queue</text><rect fill="#DDDDDD" height="30.4883" rx="2.5" ry="2.5" style="stroke:#666666;stroke-width:0.5;" width="97" x="586.5" y="5"/><text fill="#333333" font-family="sans-serif" font-size="14" lengthAdjust="spacing" textLength="83" x="593.5" y="25.5352">Worker Pool</text><rect fill="#DDDDDD" height="30.4883" rx="2.5" ry="2.5" style="stroke:#666666;stroke-width:0.5;" width="97" x="586.5" y="870.4941"/><text fill="#333333" font-family="sans-serif" font-size="14" lengthAdjust="spacing" textLength="83" x="593.5" y="891.0293">Worker Pool</text><path d="M11,51.4883 L11,76.4883 L684,76.4883 L684,61.4883 L674,51.4883 L11,51.4883 " fill="#FEFFDD" style="stroke:#181818;stroke-width:0.5;"/><path d="M674,51.4883 L674,61.4883 L684,61.4883 L674,51.4883 " fill="#FEFFDD" style="stroke:#181818;stroke-width:0.5;"/><text fill="#333333" font-family="sans-serif" font-size="13" font-weight="bold" lengthAdjust="spacing" textLength="261" x="212.75" y="69.0566">Job Queue Management (LIFO Pattern)</text><polygon fill="#666666" points="249,99.1094,259,103.1094,249,107.1094,253,103.1094" style="stroke:#666666;stroke-width:1.0;"/><line style="stroke:#666666;stroke-width:1.0;" x1="61" x2="255" y1="103.1094" y2="103.1094"/><text fill="#333333" font-family="sans-serif" font-size="13" lengthAdjust="spacing" textLength="176" x="68" y="98.3672">UpdateBlockHeight(height1)</text><polygon fill="#666666" points="522,128.4199,532,132.4199,522,136.4199,526,132.4199" style="stroke:#666666;stroke-width:1.0;"/><line style="stroke:#666666;stroke-width:1.0;" x1="261" x2="528" y1="132.4199" y2="132.4199"/><text fill="#333333" font-family="sans-serif" font-size="13" lengthAdjust="spacing" textLength="212" x="268" y="127.6777">Add Job(height1, status=Pending)</text><polygon fill="#666666" points="272,157.7305,262,161.7305,272,165.7305,268,161.7305" style="stroke:#666666;stroke-width:1.0;"/><line style="stroke:#666666;stroke-width:1.0;stroke-dasharray:2.0,2.0;" x1="266" x2="533" y1="161.7305" y2="161.7305"/><text fill="#333333" font-family="sans-serif" font-size="13" lengthAdjust="spacing" textLength="64" x="278" y="156.9883">Job Added</text><polygon fill="#666666" points="623,187.041,633,191.041,623,195.041,627,191.041" style="stroke:#666666;stroke-width:1.0;"/><line style="stroke:#666666;stroke-width:1.0;" x1="261" x2="629" y1="191.041" y2="191.041"/><text fill="#333333" font-family="sans-serif" font-size="13" lengthAdjust="spacing" textLength="131" x="268" y="186.2988">No workers available</text><path d="M640,204.041 L640,229.041 L766,229.041 L766,214.041 L756,204.041 L640,204.041 " fill="#FEFFDD" style="stroke:#181818;stroke-width:0.5;"/><path d="M756,204.041 L756,214.041 L766,214.041 L756,204.041 " fill="#FEFFDD" style="stroke:#181818;stroke-width:0.5;"/><text fill="#333333" font-family="sans-serif" font-size="13" lengthAdjust="spacing" textLength="105" x="646" y="221.6094">All workers busy</text><polygon fill="#666666" points="249,266.9727,259,270.9727,249,274.9727,253,270.9727" style="stroke:#666666;stroke-width:1.0;"/><line style="stroke:#666666;stroke-width:1.0;" x1="61" x2="255" y1="270.9727" y2="270.9727"/><text fill="#333333" font-family="sans-serif" font-size="13" lengthAdjust="spacing" textLength="176" x="68" y="250.9199">UpdateBlockHeight(height2)</text><text fill="#333333" font-family="sans-serif" font-size="13" lengthAdjust="spacing" textLength="84" x="68" y="266.2305">(newer block)</text><polygon fill="#666666" points="522,296.2832,532,300.2832,522,304.2832,526,300.2832" style="stroke:#666666;stroke-width:1.0;"/><line style="stroke:#666666;stroke-width:1.0;" x1="261" x2="528" y1="300.2832" y2="300.2832"/><text fill="#333333" font-family="sans-serif" font-size="13" lengthAdjust="spacing" textLength="212" x="268" y="295.541">Add Job(height2, status=Pending)</text><line style="stroke:#666666;stroke-width:1.0;" x1="261" x2="303" y1="344.9043" y2="344.9043"/><line style="stroke:#666666;stroke-width:1.0;" x1="303" x2="303" y1="344.9043" y2="357.9043"/><line style="stroke:#666666;stroke-width:1.0;" x1="262" x2="303" y1="357.9043" y2="357.9043"/><polygon fill="#666666" points="272,353.9043,262,357.9043,272,361.9043,268,357.9043" style="stroke:#666666;stroke-width:1.0;"/><text fill="#333333" font-family="sans-serif" font-size="13" lengthAdjust="spacing" textLength="134" x="268" y="324.8516">Find Superseded Jobs</text><text fill="#333333" font-family="sans-serif" font-size="13" lengthAdjust="spacing" textLength="202" x="268" y="340.1621">(all Pending jobs except newest)</text><polygon fill="#666666" points="522,383.2148,532,387.2148,522,391.2148,526,387.2148" style="stroke:#666666;stroke-width:1.0;"/><line style="stroke:#666666;stroke-width:1.0;" x1="261" x2="528" y1="387.2148" y2="387.2148"/><text fill="#333333" font-family="sans-serif" font-size="13" lengthAdjust="spacing" textLength="122" x="268" y="382.4727">Cancel Job(height1)</text><polygon fill="#666666" points="272,412.5254,262,416.5254,272,420.5254,268,416.5254" style="stroke:#666666;stroke-width:1.0;"/><line style="stroke:#666666;stroke-width:1.0;stroke-dasharray:2.0,2.0;" x1="266" x2="533" y1="416.5254" y2="416.5254"/><text fill="#333333" font-family="sans-serif" font-size="13" lengthAdjust="spacing" textLength="198" x="278" y="411.7832">Job(height1) status = Cancelled</text><path d="M266,429.5254 L266,469.5254 L410,469.5254 L410,439.5254 L400,429.5254 L266,429.5254 " fill="#FEFFDD" style="stroke:#181818;stroke-width:0.5;"/><path d="M400,429.5254 L400,439.5254 L410,439.5254 L400,429.5254 " fill="#FEFFDD" style="stroke:#181818;stroke-width:0.5;"/><text fill="#333333" font-family="sans-serif" font-size="13" lengthAdjust="spacing" textLength="118" x="272" y="447.0938">LIFO: Only process</text><text fill="#333333" font-family="sans-serif" font-size="13" lengthAdjust="spacing" textLength="123" x="272" y="462.4043">newest pending job</text><polygon fill="#666666" points="272,492.457,262,496.457,272,500.457,268,496.457" style="stroke:#666666;stroke-width:1.0;"/><line style="stroke:#666666;stroke-width:1.0;" x1="266" x2="634" y1="496.457" y2="496.457"/><text fill="#333333" font-family="sans-serif" font-size="13" lengthAdjust="spacing" textLength="105" x="278" y="491.7148">Worker Available</text><polygon fill="#666666" points="522,521.7676,532,525.7676,522,529.7676,526,525.7676" style="stroke:#666666;stroke-width:1.0;"/><line style="stroke:#666666;stroke-width:1.0;" x1="261" x2="528" y1="525.7676" y2="525.7676"/><text fill="#333333" font-family="sans-serif" font-size="13" lengthAdjust="spacing" textLength="149" x="268" y="521.0254">Get Newest Pending Job</text><polygon fill="#666666" points="272,551.0781,262,555.0781,272,559.0781,268,555.0781" style="stroke:#666666;stroke-width:1.0;"/><line style="stroke:#666666;stroke-width:1.0;stroke-dasharray:2.0,2.0;" x1="266" x2="533" y1="555.0781" y2="555.0781"/><text fill="#333333" font-family="sans-serif" font-size="13" lengthAdjust="spacing" textLength="76" x="278" y="550.3359">Job(height2)</text><polygon fill="#666666" points="522,580.3887,532,584.3887,522,588.3887,526,584.3887" style="stroke:#666666;stroke-width:1.0;"/><line style="stroke:#666666;stroke-width:1.0;" x1="261" x2="528" y1="584.3887" y2="584.3887"/><text fill="#333333" font-family="sans-serif" font-size="13" lengthAdjust="spacing" textLength="233" x="268" y="579.6465">Update Job(height2, status=Running)</text><polygon fill="#666666" points="623,609.6992,633,613.6992,623,617.6992,627,613.6992" style="stroke:#666666;stroke-width:1.0;"/><line style="stroke:#666666;stroke-width:1.0;" x1="261" x2="629" y1="613.6992" y2="613.6992"/><text fill="#333333" font-family="sans-serif" font-size="13" lengthAdjust="spacing" textLength="129" x="268" y="608.957">Execute Job(height2)</text><line style="stroke:#666666;stroke-width:1.0;" x1="635" x2="677" y1="658.3203" y2="658.3203"/><line style="stroke:#666666;stroke-width:1.0;" x1="677" x2="677" y1="658.3203" y2="671.3203"/><line style="stroke:#666666;stroke-width:1.0;" x1="636" x2="677" y1="671.3203" y2="671.3203"/><polygon fill="#666666" points="646,667.3203,636,671.3203,646,675.3203,642,671.3203" style="stroke:#666666;stroke-width:1.0;"/><text fill="#333333" font-family="sans-serif" font-size="13" lengthAdjust="spacing" textLength="134" x="642" y="638.2676">Perform DAH Pruning</text><text fill="#333333" font-family="sans-serif" font-size="13" lengthAdjust="spacing" textLength="70" x="642" y="653.5781">for height2</text><polygon fill="#666666" points="272,696.6309,262,700.6309,272,704.6309,268,700.6309" style="stroke:#666666;stroke-width:1.0;"/><line style="stroke:#666666;stroke-width:1.0;stroke-dasharray:2.0,2.0;" x1="266" x2="634" y1="700.6309" y2="700.6309"/><text fill="#333333" font-family="sans-serif" font-size="13" lengthAdjust="spacing" textLength="84" x="278" y="695.8887">Job Complete</text><polygon fill="#666666" points="522,725.9414,532,729.9414,522,733.9414,526,729.9414" style="stroke:#666666;stroke-width:1.0;"/><line style="stroke:#666666;stroke-width:1.0;" x1="261" x2="528" y1="729.9414" y2="729.9414"/><text fill="#333333" font-family="sans-serif" font-size="13" lengthAdjust="spacing" textLength="249" x="268" y="725.1992">Update Job(height2, status=Completed)</text><line style="stroke:#666666;stroke-width:1.0;" x1="261" x2="303" y1="789.873" y2="789.873"/><line style="stroke:#666666;stroke-width:1.0;" x1="303" x2="303" y1="789.873" y2="802.873"/><line style="stroke:#666666;stroke-width:1.0;" x1="262" x2="303" y1="802.873" y2="802.873"/><polygon fill="#666666" points="272,798.873,262,802.873,272,806.873,268,802.873" style="stroke:#666666;stroke-width:1.0;"/><text fill="#333333" font-family="sans-serif" font-size="13" lengthAdjust="spacing" textLength="125" x="268" y="754.5098">Cleanup Job History</text><text fill="#333333" font-family="sans-serif" font-size="13" lengthAdjust="spacing" textLength="190" x="268" y="769.8203">(keep last 1000 for Aerospike,</text><text fill="#333333" font-family="sans-serif" font-size="13" lengthAdjust="spacing" textLength="70" x="268" y="785.1309">10 for SQL)</text><path d="M266,815.873 L266,855.873 L457,855.873 L457,825.873 L447,815.873 L266,815.873 " fill="#FEFFDD" style="stroke:#181818;stroke-width:0.5;"/><path d="M447,815.873 L447,825.873 L457,825.873 L447,815.873 " fill="#FEFFDD" style="stroke:#181818;stroke-width:0.5;"/><text fill="#333333" font-family="sans-serif" font-size="13" lengthAdjust="spacing" textLength="170" x="272" y="833.4414">Efficient: Skip intermediate</text><text fill="#333333" font-family="sans-serif" font-size="13" lengthAdjust="spacing" textLength="146" x="272" y="848.752">heights during catchup</text><text fill="#333333" font-family="sans-serif" font-size="10" lengthAdjust="spacing" textLength="155" x="0" y="912.6504">Last Modified On: 01-Dec-2025</text><!--SRC=[bLJVRzem47xtNt5YcaGGIBIJfWcfaoXjrasbfKFJNdWnyOLwCRRb7stHjFzzTXBIG2bR_P34lk_klk_kObjmgQcXQrZIh5WPvIMRAA4Cl4k7wQSq9RP1CCof5ovLqjMG3-LgGQWnwh4sVYmNQLd3q_6CQoeT_2O0vyemDBlmSBfFvA9Sv0yXxG2TcV4I3SpHFF0CEq0jL4Uxi6zg2LCgwGfDYGdxUliIT-VHLv7Ahrt0JsMAa6-cb2WXrTuI8fL3K0_HLkRlRqqZwFMQi3M9DOPOtUklwItCg7DePDBh4LAB6NnkyHl13ysemtEXik8A-UhUTU_Brqb2o3CkUfKfHZ1cB0ROmlfW7NNUdirGCYvN2Qce3FRoH9B15Tb-s4R8ZOB7wXle0-M2BWLMmatC12f_new5QC1BRpTlLNUQB6HNucFmM4RZ_uazVIbspwsTE-MImTphm163xcYp8IiDr6jt-1ME09yor0uY6-jU8pAXCaFHBloHGZUGcYwSrVuYbd-tf6tNE38Zk9LY0zge36tWMz42_SoOaBeD-uBhwHqtpJiivGiwkAcYRkiGSFzKS_fQQQeU7spJTo_beJOrStJvX9dVTKvsz3N86PfScJLSZA_AVp24NSXm0hLRo-l0v4_KMWjq-7O9MqzsTDOc0gdqkinrnQrJPXD6hK3K86WezCbmE8J8Ten6MSqBx2_aINKqlxjEZat5PPw72ohSAIEO5rm3b-5AMIFZWV92LdmjC6zY9pFgidkl2H6Okn0-H3Lm7IbC5UCv3__1hHp1-wYtss5iC9rE1vkmEibV]--></g></svg>