<?xml version="1.0" encoding="us-ascii" standalone="no"?><svg xmlns="http://www.w3.org/2000/svg" xmlns:xlink="http://www.w3.org/1999/xlink" contentStyleType="text/css" height="644px" preserveAspectRatio="none" style="width:667px;height:644px;background:#F0F8FF;" version="1.1" viewBox="0 0 667 644" width="667px" zoomAndPan="magnify"><defs/><g><rect fill="#F0F8FF" height="644" style="stroke:none;stroke-width:1.0;" width="667" x="0" y="0"/><line style="stroke:#181818;stroke-width:0.5;stroke-dasharray:5.0,5.0;" x1="61" x2="61" y1="36.4883" y2="593.0781"/><line style="stroke:#181818;stroke-width:0.5;stroke-dasharray:5.0,5.0;" x1="300.5" x2="300.5" y1="36.4883" y2="593.0781"/><line style="stroke:#181818;stroke-width:0.5;stroke-dasharray:5.0,5.0;" x1="422.5" x2="422.5" y1="36.4883" y2="593.0781"/><line style="stroke:#181818;stroke-width:0.5;stroke-dasharray:5.0,5.0;" x1="579.5" x2="579.5" y1="36.4883" y2="593.0781"/><rect fill="#DDDDDD" height="30.4883" rx="2.5" ry="2.5" style="stroke:#666666;stroke-width:0.5;" width="112" x="5" y="5"/><text fill="#333333" font-family="sans-serif" font-size="14" lengthAdjust="spacing" textLength="98" x="12" y="25.5352">Pruner Service</text><rect fill="#DDDDDD" height="30.4883" rx="2.5" ry="2.5" style="stroke:#666666;stroke-width:0.5;" width="112" x="5" y="592.0781"/><text fill="#333333" font-family="sans-serif" font-size="14" lengthAdjust="spacing" textLength="98" x="12" y="612.6133">Pruner Service</text><rect fill="#DDDDDD" height="30.4883" rx="2.5" ry="2.5" style="stroke:#666666;stroke-width:0.5;" width="93" x="254.5" y="5"/><text fill="#333333" font-family="sans-serif" font-size="14" lengthAdjust="spacing" textLength="79" x="261.5" y="25.5352">UTXO Store</text><rect fill="#DDDDDD" height="30.4883" rx="2.5" ry="2.5" style="stroke:#666666;stroke-width:0.5;" width="93" x="254.5" y="592.0781"/><text fill="#333333" font-family="sans-serif" font-size="14" lengthAdjust="spacing" textLength="79" x="261.5" y="612.6133">UTXO Store</text><rect fill="#DDDDDD" height="30.4883" rx="2.5" ry="2.5" style="stroke:#666666;stroke-width:0.5;" width="131" x="357.5" y="5"/><text fill="#333333" font-family="sans-serif" font-size="14" lengthAdjust="spacing" textLength="117" x="364.5" y="25.5352">Blockchain Client</text><rect fill="#DDDDDD" height="30.4883" rx="2.5" ry="2.5" style="stroke:#666666;stroke-width:0.5;" width="131" x="357.5" y="592.0781"/><text fill="#333333" font-family="sans-serif" font-size="14" lengthAdjust="spacing" textLength="117" x="364.5" y="612.6133">Blockchain Client</text><rect fill="#DDDDDD" height="30.4883" rx="2.5" ry="2.5" style="stroke:#666666;stroke-width:0.5;" width="163" x="498.5" y="5"/><text fill="#333333" font-family="sans-serif" font-size="14" lengthAdjust="spacing" textLength="149" x="505.5" y="25.5352">Block Assembly Client</text><rect fill="#DDDDDD" height="30.4883" rx="2.5" ry="2.5" style="stroke:#666666;stroke-width:0.5;" width="163" x="498.5" y="592.0781"/><text fill="#333333" font-family="sans-serif" font-size="14" lengthAdjust="spacing" textLength="149" x="505.5" y="612.6133">Block Assembly Client</text><line style="stroke:#666666;stroke-width:1.0;" x1="61" x2="103" y1="67.7988" y2="67.7988"/><line style="stroke:#666666;stroke-width:1.0;" x1="103" x2="103" y1="67.7988" y2="80.7988"/><line style="stroke:#666666;stroke-width:1.0;" x1="62" x2="103" y1="80.7988" y2="80.7988"/><polygon fill="#666666" points="72,76.7988,62,80.7988,72,84.7988,68,80.7988" style="stroke:#666666;stroke-width:1.0;"/><text fill="#333333" font-family="sans-serif" font-size="13" lengthAdjust="spacing" textLength="85" x="68" y="63.0566">Load Settings</text><line style="stroke:#666666;stroke-width:1.0;stroke-dasharray:2.0,2.0;" x1="61" x2="103" y1="110.1094" y2="110.1094"/><line style="stroke:#666666;stroke-width:1.0;stroke-dasharray:2.0,2.0;" x1="103" x2="103" y1="110.1094" y2="123.1094"/><line style="stroke:#666666;stroke-width:1.0;stroke-dasharray:2.0,2.0;" x1="62" x2="103" y1="123.1094" y2="123.1094"/><polygon fill="#666666" points="72,119.1094,62,123.1094,72,127.1094,68,123.1094" style="stroke:#666666;stroke-width:1.0;"/><text fill="#333333" font-family="sans-serif" font-size="13" lengthAdjust="spacing" textLength="120" x="68" y="105.3672">Configuration Data</text><polygon fill="#666666" points="289,148.4199,299,152.4199,289,156.4199,293,152.4199" style="stroke:#666666;stroke-width:1.0;"/><line style="stroke:#666666;stroke-width:1.0;" x1="61" x2="295" y1="152.4199" y2="152.4199"/><text fill="#333333" font-family="sans-serif" font-size="13" lengthAdjust="spacing" textLength="216" x="68" y="147.6777">Get Pruner Service Implementation</text><polygon fill="#666666" points="72,193.041,62,197.041,72,201.041,68,197.041" style="stroke:#666666;stroke-width:1.0;"/><line style="stroke:#666666;stroke-width:1.0;stroke-dasharray:2.0,2.0;" x1="66" x2="300" y1="197.041" y2="197.041"/><text fill="#333333" font-family="sans-serif" font-size="13" lengthAdjust="spacing" textLength="133" x="78" y="176.9883">Store-Specific Pruner</text><text fill="#333333" font-family="sans-serif" font-size="13" lengthAdjust="spacing" textLength="116" x="78" y="192.2988">(Aerospike or SQL)</text><polygon fill="#666666" points="411,222.3516,421,226.3516,411,230.3516,415,226.3516" style="stroke:#666666;stroke-width:1.0;"/><line style="stroke:#666666;stroke-width:1.0;" x1="61" x2="417" y1="226.3516" y2="226.3516"/><text fill="#333333" font-family="sans-serif" font-size="13" lengthAdjust="spacing" textLength="167" x="68" y="221.6094">Initialize Blockchain Client</text><polygon fill="#666666" points="72,251.6621,62,255.6621,72,259.6621,68,255.6621" style="stroke:#666666;stroke-width:1.0;"/><line style="stroke:#666666;stroke-width:1.0;stroke-dasharray:2.0,2.0;" x1="66" x2="422" y1="255.6621" y2="255.6621"/><text fill="#333333" font-family="sans-serif" font-size="13" lengthAdjust="spacing" textLength="166" x="78" y="250.9199">Blockchain Client Instance</text><polygon fill="#666666" points="568,280.9727,578,284.9727,568,288.9727,572,284.9727" style="stroke:#666666;stroke-width:1.0;"/><line style="stroke:#666666;stroke-width:1.0;" x1="61" x2="574" y1="284.9727" y2="284.9727"/><text fill="#333333" font-family="sans-serif" font-size="13" lengthAdjust="spacing" textLength="198" x="68" y="280.2305">Initialize Block Assembly Client</text><polygon fill="#666666" points="72,310.2832,62,314.2832,72,318.2832,68,314.2832" style="stroke:#666666;stroke-width:1.0;"/><line style="stroke:#666666;stroke-width:1.0;stroke-dasharray:2.0,2.0;" x1="66" x2="579" y1="314.2832" y2="314.2832"/><text fill="#333333" font-family="sans-serif" font-size="13" lengthAdjust="spacing" textLength="197" x="78" y="309.541">Block Assembly Client Instance</text><line style="stroke:#666666;stroke-width:1.0;" x1="61" x2="103" y1="343.5938" y2="343.5938"/><line style="stroke:#666666;stroke-width:1.0;" x1="103" x2="103" y1="343.5938" y2="356.5938"/><line style="stroke:#666666;stroke-width:1.0;" x1="62" x2="103" y1="356.5938" y2="356.5938"/><polygon fill="#666666" points="72,352.5938,62,356.5938,72,360.5938,68,356.5938" style="stroke:#666666;stroke-width:1.0;"/><text fill="#333333" font-family="sans-serif" font-size="13" lengthAdjust="spacing" textLength="180" x="68" y="338.8516">Start gRPC Server (Port 8096)</text><path d="M66,369.5938 L66,394.5938 L288,394.5938 L288,379.5938 L278,369.5938 L66,369.5938 " fill="#FEFFDD" style="stroke:#181818;stroke-width:0.5;"/><path d="M278,369.5938 L278,379.5938 L288,379.5938 L278,369.5938 " fill="#FEFFDD" style="stroke:#181818;stroke-width:0.5;"/><text fill="#333333" font-family="sans-serif" font-size="13" lengthAdjust="spacing" textLength="201" x="72" y="387.1621">Health check endpoint available</text><polygon fill="#666666" points="411,417.2148,421,421.2148,411,425.2148,415,421.2148" style="stroke:#666666;stroke-width:1.0;"/><line style="stroke:#666666;stroke-width:1.0;" x1="61" x2="417" y1="421.2148" y2="421.2148"/><text fill="#333333" font-family="sans-serif" font-size="13" lengthAdjust="spacing" textLength="259" x="68" y="416.4727">Subscribe to BlockPersisted Notifications</text><polygon fill="#666666" points="72,446.5254,62,450.5254,72,454.5254,68,450.5254" style="stroke:#666666;stroke-width:1.0;"/><line style="stroke:#666666;stroke-width:1.0;stroke-dasharray:2.0,2.0;" x1="66" x2="422" y1="450.5254" y2="450.5254"/><text fill="#333333" font-family="sans-serif" font-size="13" lengthAdjust="spacing" textLength="122" x="78" y="445.7832">Subscription Active</text><polygon fill="#666666" points="411,491.1465,421,495.1465,411,499.1465,415,495.1465" style="stroke:#666666;stroke-width:1.0;"/><line style="stroke:#666666;stroke-width:1.0;" x1="61" x2="417" y1="495.1465" y2="495.1465"/><text fill="#333333" font-family="sans-serif" font-size="13" lengthAdjust="spacing" textLength="202" x="68" y="475.0938">Subscribe to Block Notifications</text><text fill="#333333" font-family="sans-serif" font-size="13" lengthAdjust="spacing" textLength="60" x="68" y="490.4043">(Fallback)</text><polygon fill="#666666" points="72,520.457,62,524.457,72,528.457,68,524.457" style="stroke:#666666;stroke-width:1.0;"/><line style="stroke:#666666;stroke-width:1.0;stroke-dasharray:2.0,2.0;" x1="66" x2="422" y1="524.457" y2="524.457"/><text fill="#333333" font-family="sans-serif" font-size="13" lengthAdjust="spacing" textLength="122" x="78" y="519.7148">Subscription Active</text><path d="M66,537.457 L66,577.457 L296,577.457 L296,547.457 L286,537.457 L66,537.457 " fill="#FEFFDD" style="stroke:#181818;stroke-width:0.5;"/><path d="M286,537.457 L286,547.457 L296,547.457 L286,537.457 " fill="#FEFFDD" style="stroke:#181818;stroke-width:0.5;"/><text fill="#333333" font-family="sans-serif" font-size="13" lengthAdjust="spacing" textLength="172" x="72" y="555.0254">Event-driven pruning ready</text><text fill="#333333" font-family="sans-serif" font-size="13" lengthAdjust="spacing" textLength="209" x="72" y="570.3359">Waiting for BlockPersisted events</text><text fill="#333333" font-family="sans-serif" font-size="10" lengthAdjust="spacing" textLength="155" x="0" y="634.2344">Last Modified On: 01-Dec-2025</text><!--SRC=[fLJ1RXen4BtxAqPKLU605AbIb7AeHA3RHeA6bbRj8HUlFGiZZBso3HMj-kyPp0PsMN98wyDAddb-R-QDrs55jfHUhY6NQhNmRcFro1dduLLsbTracGX7XCP2RapCd8qLv6rQDOZqtlsgajTf2V46nbYGHSYTr-W359oLnW0QNAEDeNQUjnHty4S0t2PqaukZvrMEqn9_HOr5SONUcV-buMyaHQMqyT-ewWITcTzOz317loM57P013g4cxFktd_SmZyuV8Fjj4t1hd5gffIGB8qDiMCATeXVGC0m1rxdPjKuy9OIeokk_hweQmCH9pUN6I7OHZlaQOEHiGOkDbv6SXR6Ciawphtm07p52itEuMvU7mQTp8ZLSfqtDz-SbAYf8LU47snsYTw6a5GAxFFyowTNLJlqFuCvI96deDqBBB56Br4LRG6O9KLg5BPKdpzf2vpwB1hwjTuw_g7coXUSAYw-pKNAIazsPuyZDrRlhdh0k8dXQB2EuudZc4qeJbw2Mo69eTUc8LUHMaf6vmUSCd6_oe3pb2D4T4ZF-Rob4rF3PnVrOqkp2SsvM16Mw64CLQVi2hQO43pxZnsB_ElLU97VPaGzRzhclFKCib1paomqUfTuzs1-IzdSzlKzdNUCsFLJ2O14vpzGU9Z94c3hDjJBYddjvhMN4RaVh_dGwxUzuTNgF]--></g></svg>