<?xml version="1.0" encoding="us-ascii" standalone="no"?><svg xmlns="http://www.w3.org/2000/svg" xmlns:xlink="http://www.w3.org/1999/xlink" contentStyleType="text/css" height="1454px" preserveAspectRatio="none" style="width:2879px;height:1454px;background:#F0F8FF;" version="1.1" viewBox="0 0 2879 1454" width="2879px" zoomAndPan="magnify"><defs/><g><rect fill="#F0F8FF" height="1454" style="stroke:none;stroke-width:1.0;" width="2879" x="0" y="0"/><!--cluster Pruner Service\n(/services/pruner/)--><g id="cluster_Pruner Service\n(/services/pruner/)"><path d="M8.5,6 L148.5,6 A3.75,3.75 0 0 1 151,8.5 L158,44.9766 L1370.5,44.9766 A2.5,2.5 0 0 1 1373,47.4766 L1373,630.45 A2.5,2.5 0 0 1 1370.5,632.95 L8.5,632.95 A2.5,2.5 0 0 1 6,630.45 L6,8.5 A2.5,2.5 0 0 1 8.5,6 " fill="#F5F5F5" style="stroke:#444444;stroke-width:1.5;"/><line style="stroke:#444444;stroke-width:1.5;" x1="6" x2="158" y1="44.9766" y2="44.9766"/><text fill="#333333" font-family="sans-serif" font-size="14" font-weight="bold" lengthAdjust="spacing" textLength="102" x="28.5" y="21.5352">Pruner Service</text><text fill="#333333" font-family="sans-serif" font-size="14" font-weight="bold" lengthAdjust="spacing" textLength="139" x="10" y="38.0234">(/services/pruner/)</text></g><!--cluster Server--><g id="cluster_Server"><rect fill="#F5F5F5" height="290.46" rx="2.5" ry="2.5" style="stroke:#444444;stroke-width:1.0;" width="381" x="38" y="73"/><rect fill="#F5F5F5" height="10" style="stroke:#444444;stroke-width:1.0;" width="15" x="399" y="78"/><rect fill="#F5F5F5" height="2" style="stroke:#444444;stroke-width:1.0;" width="4" x="397" y="80"/><rect fill="#F5F5F5" height="2" style="stroke:#444444;stroke-width:1.0;" width="4" x="397" y="84"/><text fill="#333333" font-family="sans-serif" font-size="14" font-weight="bold" lengthAdjust="spacing" textLength="44" x="206.5" y="99.5352">Server</text></g><!--cluster Worker--><g id="cluster_Worker"><rect fill="#F5F5F5" height="350.98" rx="2.5" ry="2.5" style="stroke:#444444;stroke-width:1.0;" width="399" x="459" y="249.97"/><rect fill="#F5F5F5" height="10" style="stroke:#444444;stroke-width:1.0;" width="15" x="838" y="254.97"/><rect fill="#F5F5F5" height="2" style="stroke:#444444;stroke-width:1.0;" width="4" x="836" y="256.97"/><rect fill="#F5F5F5" height="2" style="stroke:#444444;stroke-width:1.0;" width="4" x="836" y="260.97"/><text fill="#333333" font-family="sans-serif" font-size="14" font-weight="bold" lengthAdjust="spacing" textLength="51" x="633" y="276.5052">Worker</text></g><!--cluster Metrics--><g id="cluster_Metrics"><rect fill="#F5F5F5" height="113.49" rx="2.5" ry="2.5" style="stroke:#444444;stroke-width:1.0;" width="443" x="898" y="487.46"/><rect fill="#F5F5F5" height="10" style="stroke:#444444;stroke-width:1.0;" width="15" x="1321" y="492.46"/><rect fill="#F5F5F5" height="2" style="stroke:#444444;stroke-width:1.0;" width="4" x="1319" y="494.46"/><rect fill="#F5F5F5" height="2" style="stroke:#444444;stroke-width:1.0;" width="4" x="1319" y="498.46"/><text fill="#333333" font-family="sans-serif" font-size="14" font-weight="bold" lengthAdjust="spacing" textLength="53" x="1093" y="513.9952">Metrics</text></g><!--cluster Store-Level Pruner\n(/stores/pruner/)--><g id="cluster_Store-Level Pruner\n(/stores/pruner/)"><path d="M1399.5,420.46 L1535.5,420.46 A3.75,3.75 0 0 1 1538,422.96 L1545,459.4366 L2294.5,459.4366 A2.5,2.5 0 0 1 2297,461.9366 L2297,832.94 A2.5,2.5 0 0 1 2294.5,835.44 L1399.5,835.44 A2.5,2.5 0 0 1 1397,832.94 L1397,422.96 A2.5,2.5 0 0 1 1399.5,420.46 " fill="#F5F5F5" style="stroke:#444444;stroke-width:1.5;"/><line style="stroke:#444444;stroke-width:1.5;" x1="1397" x2="1545" y1="459.4366" y2="459.4366"/><text fill="#333333" font-family="sans-serif" font-size="14" font-weight="bold" lengthAdjust="spacing" textLength="135" x="1401" y="435.9952">Store-Level Pruner</text><text fill="#333333" font-family="sans-serif" font-size="14" font-weight="bold" lengthAdjust="spacing" textLength="126" x="1405.5" y="452.4834">(/stores/pruner/)</text></g><!--cluster JobManager--><g id="cluster_JobManager"><rect fill="#F5F5F5" height="315.98" rx="2.5" ry="2.5" style="stroke:#444444;stroke-width:1.0;" width="381" x="1429" y="487.46"/><rect fill="#F5F5F5" height="10" style="stroke:#444444;stroke-width:1.0;" width="15" x="1790" y="492.46"/><rect fill="#F5F5F5" height="2" style="stroke:#444444;stroke-width:1.0;" width="4" x="1788" y="494.46"/><rect fill="#F5F5F5" height="2" style="stroke:#444444;stroke-width:1.0;" width="4" x="1788" y="498.46"/><text fill="#333333" font-family="sans-serif" font-size="14" font-weight="bold" lengthAdjust="spacing" textLength="90" x="1574.5" y="513.9952">Job Manager</text></g><!--cluster Interface--><g id="cluster_Interface"><rect fill="#F5F5F5" height="113.49" rx="2.5" ry="2.5" style="stroke:#444444;stroke-width:1.0;" width="415" x="1850" y="689.95"/><rect fill="#F5F5F5" height="10" style="stroke:#444444;stroke-width:1.0;" width="15" x="2245" y="694.95"/><rect fill="#F5F5F5" height="2" style="stroke:#444444;stroke-width:1.0;" width="4" x="2243" y="696.95"/><rect fill="#F5F5F5" height="2" style="stroke:#444444;stroke-width:1.0;" width="4" x="2243" y="700.95"/><text fill="#333333" font-family="sans-serif" font-size="14" font-weight="bold" lengthAdjust="spacing" textLength="105" x="2005" y="716.4852">Store Interface</text></g><!--cluster Store Implementation\n(/stores/utxo/)--><g id="cluster_Store Implementation\n(/stores/utxo/)"><path d="M1191.5,884.44 L1349.5,884.44 A3.75,3.75 0 0 1 1352,886.94 L1359,923.4166 L2161.5,923.4166 A2.5,2.5 0 0 1 2164,925.9166 L2164,1272.91 A2.5,2.5 0 0 1 2161.5,1275.41 L1191.5,1275.41 A2.5,2.5 0 0 1 1189,1272.91 L1189,886.94 A2.5,2.5 0 0 1 1191.5,884.44 " fill="#F5F5F5" style="stroke:#444444;stroke-width:1.5;"/><line style="stroke:#444444;stroke-width:1.5;" x1="1189" x2="1359" y1="923.4166" y2="923.4166"/><text fill="#333333" font-family="sans-serif" font-size="14" font-weight="bold" lengthAdjust="spacing" textLength="157" x="1193" y="899.9752">Store Implementation</text><text fill="#333333" font-family="sans-serif" font-size="14" font-weight="bold" lengthAdjust="spacing" textLength="111" x="1216" y="916.4634">(/stores/utxo/)</text></g><!--cluster AerospikePruner--><g id="cluster_AerospikePruner"><rect fill="#F5F5F5" height="291.97" rx="2.5" ry="2.5" style="stroke:#444444;stroke-width:1.0;" width="460" x="1221" y="951.44"/><rect fill="#F5F5F5" height="10" style="stroke:#444444;stroke-width:1.0;" width="15" x="1661" y="956.44"/><rect fill="#F5F5F5" height="2" style="stroke:#444444;stroke-width:1.0;" width="4" x="1659" y="958.44"/><rect fill="#F5F5F5" height="2" style="stroke:#444444;stroke-width:1.0;" width="4" x="1659" y="962.44"/><text fill="#333333" font-family="sans-serif" font-size="14" font-weight="bold" lengthAdjust="spacing" textLength="124" x="1389" y="977.9752">Aerospike Pruner</text></g><!--cluster SQLPruner--><g id="cluster_SQLPruner"><rect fill="#F5F5F5" height="113.49" rx="2.5" ry="2.5" style="stroke:#444444;stroke-width:1.0;" width="411" x="1721" y="951.44"/><rect fill="#F5F5F5" height="10" style="stroke:#444444;stroke-width:1.0;" width="15" x="2112" y="956.44"/><rect fill="#F5F5F5" height="2" style="stroke:#444444;stroke-width:1.0;" width="4" x="2110" y="958.44"/><rect fill="#F5F5F5" height="2" style="stroke:#444444;stroke-width:1.0;" width="4" x="2110" y="962.44"/><text fill="#333333" font-family="sans-serif" font-size="14" font-weight="bold" lengthAdjust="spacing" textLength="80" x="1886.5" y="977.9752">SQL Pruner</text></g><!--cluster Common--><g id="cluster_Common"><rect fill="#F5F5F5" height="113.48" rx="2.5" ry="2.5" style="stroke:#444444;stroke-width:1.0;" width="406" x="1721" y="1129.93"/><rect fill="#F5F5F5" height="10" style="stroke:#444444;stroke-width:1.0;" width="15" x="2107" y="1134.93"/><rect fill="#F5F5F5" height="2" style="stroke:#444444;stroke-width:1.0;" width="4" x="2105" y="1136.93"/><rect fill="#F5F5F5" height="2" style="stroke:#444444;stroke-width:1.0;" width="4" x="2105" y="1140.93"/><text fill="#333333" font-family="sans-serif" font-size="14" font-weight="bold" lengthAdjust="spacing" textLength="108" x="1870" y="1156.4652">Common Logic</text></g><!--cluster External Dependencies--><g id="cluster_External Dependencies"><path d="M2175.5,1324.41 L2338.5,1324.41 A3.75,3.75 0 0 1 2341,1326.91 L2348,1346.8983 L2866.5,1346.8983 A2.5,2.5 0 0 1 2869,1349.3983 L2869,1425.89 A2.5,2.5 0 0 1 2866.5,1428.39 L2175.5,1428.39 A2.5,2.5 0 0 1 2173,1425.89 L2173,1326.91 A2.5,2.5 0 0 1 2175.5,1324.41 " fill="#F5F5F5" style="stroke:#444444;stroke-width:1.5;"/><line style="stroke:#444444;stroke-width:1.5;" x1="2173" x2="2348" y1="1346.8983" y2="1346.8983"/><text fill="#333333" font-family="sans-serif" font-size="14" font-weight="bold" lengthAdjust="spacing" textLength="162" x="2177" y="1339.9452">External Dependencies</text></g><!--entity gRPC Server\n(port 8096)--><g id="elem_gRPC Server\n(port 8096)"><rect fill="#E8E8E8" height="62.9766" rx="2.5" ry="2.5" style="stroke:#666666;stroke-width:0.5;" width="123" x="61.5" y="116"/><rect fill="#E8E8E8" height="10" style="stroke:#666666;stroke-width:0.5;" width="15" x="164.5" y="121"/><rect fill="#E8E8E8" height="2" style="stroke:#666666;stroke-width:0.5;" width="4" x="162.5" y="123"/><rect fill="#E8E8E8" height="2" style="stroke:#666666;stroke-width:0.5;" width="4" x="162.5" y="127"/><text fill="#333333" font-family="sans-serif" font-size="14" lengthAdjust="spacing" textLength="83" x="76.5" y="149.5352">gRPC Server</text><text fill="#333333" font-family="sans-serif" font-size="14" lengthAdjust="spacing" textLength="79" x="76.5" y="166.0234">(port 8096)</text></g><!--entity Health Check API--><g id="elem_Health Check API"><rect fill="#E8E8E8" height="46.4883" rx="2.5" ry="2.5" style="stroke:#666666;stroke-width:0.5;" width="156" x="220" y="124.24"/><rect fill="#E8E8E8" height="10" style="stroke:#666666;stroke-width:0.5;" width="15" x="356" y="129.24"/><rect fill="#E8E8E8" height="2" style="stroke:#666666;stroke-width:0.5;" width="4" x="354" y="131.24"/><rect fill="#E8E8E8" height="2" style="stroke:#666666;stroke-width:0.5;" width="4" x="354" y="135.24"/><text fill="#333333" font-family="sans-serif" font-size="14" lengthAdjust="spacing" textLength="116" x="235" y="157.7752">Health Check API</text></g><!--entity Service Manager--><g id="elem_Service Manager"><rect fill="#E8E8E8" height="46.4883" rx="2.5" ry="2.5" style="stroke:#666666;stroke-width:0.5;" width="152" x="62" y="292.97"/><rect fill="#E8E8E8" height="10" style="stroke:#666666;stroke-width:0.5;" width="15" x="194" y="297.97"/><rect fill="#E8E8E8" height="2" style="stroke:#666666;stroke-width:0.5;" width="4" x="192" y="299.97"/><rect fill="#E8E8E8" height="2" style="stroke:#666666;stroke-width:0.5;" width="4" x="192" y="303.97"/><text fill="#333333" font-family="sans-serif" font-size="14" lengthAdjust="spacing" textLength="112" x="77" y="326.5052">Service Manager</text></g><!--entity Event Handler--><g id="elem_Event Handler"><rect fill="#E8E8E8" height="46.4883" rx="2.5" ry="2.5" style="stroke:#666666;stroke-width:0.5;" width="135" x="483.5" y="292.97"/><rect fill="#E8E8E8" height="10" style="stroke:#666666;stroke-width:0.5;" width="15" x="598.5" y="297.97"/><rect fill="#E8E8E8" height="2" style="stroke:#666666;stroke-width:0.5;" width="4" x="596.5" y="299.97"/><rect fill="#E8E8E8" height="2" style="stroke:#666666;stroke-width:0.5;" width="4" x="596.5" y="303.97"/><text fill="#333333" font-family="sans-serif" font-size="14" lengthAdjust="spacing" textLength="95" x="498.5" y="326.5052">Event Handler</text></g><!--entity Channel Manager--><g id="elem_Channel Manager"><rect fill="#E8E8E8" height="46.4883" rx="2.5" ry="2.5" style="stroke:#666666;stroke-width:0.5;" width="161" x="653.5" y="292.97"/><rect fill="#E8E8E8" height="10" style="stroke:#666666;stroke-width:0.5;" width="15" x="794.5" y="297.97"/><rect fill="#E8E8E8" height="2" style="stroke:#666666;stroke-width:0.5;" width="4" x="792.5" y="299.97"/><rect fill="#E8E8E8" height="2" style="stroke:#666666;stroke-width:0.5;" width="4" x="792.5" y="303.97"/><text fill="#333333" font-family="sans-serif" font-size="14" lengthAdjust="spacing" textLength="121" x="668.5" y="326.5052">Channel Manager</text></g><!--entity Two-Phase Processor--><g id="elem_Two-Phase Processor"><rect fill="#E8E8E8" height="46.4883" rx="2.5" ry="2.5" style="stroke:#666666;stroke-width:0.5;" width="188" x="483" y="530.46"/><rect fill="#E8E8E8" height="10" style="stroke:#666666;stroke-width:0.5;" width="15" x="651" y="535.46"/><rect fill="#E8E8E8" height="2" style="stroke:#666666;stroke-width:0.5;" width="4" x="649" y="537.46"/><rect fill="#E8E8E8" height="2" style="stroke:#666666;stroke-width:0.5;" width="4" x="649" y="541.46"/><text fill="#333333" font-family="sans-serif" font-size="14" lengthAdjust="spacing" textLength="148" x="498" y="563.9952">Two-Phase Processor</text></g><!--entity Prometheus Exporter--><g id="elem_Prometheus Exporter"><rect fill="#E8E8E8" height="46.4883" rx="2.5" ry="2.5" style="stroke:#666666;stroke-width:0.5;" width="186" x="922" y="530.46"/><rect fill="#E8E8E8" height="10" style="stroke:#666666;stroke-width:0.5;" width="15" x="1088" y="535.46"/><rect fill="#E8E8E8" height="2" style="stroke:#666666;stroke-width:0.5;" width="4" x="1086" y="537.46"/><rect fill="#E8E8E8" height="2" style="stroke:#666666;stroke-width:0.5;" width="4" x="1086" y="541.46"/><text fill="#333333" font-family="sans-serif" font-size="14" lengthAdjust="spacing" textLength="146" x="937" y="563.9952">Prometheus Exporter</text></g><!--entity pruner_* metrics--><g id="elem_pruner_* metrics"><rect fill="#E8E8E8" height="46.4883" rx="2.5" ry="2.5" style="stroke:#666666;stroke-width:0.5;" width="155" x="1142.5" y="530.46"/><rect fill="#E8E8E8" height="10" style="stroke:#666666;stroke-width:0.5;" width="15" x="1277.5" y="535.46"/><rect fill="#E8E8E8" height="2" style="stroke:#666666;stroke-width:0.5;" width="4" x="1275.5" y="537.46"/><rect fill="#E8E8E8" height="2" style="stroke:#666666;stroke-width:0.5;" width="4" x="1275.5" y="541.46"/><text fill="#333333" font-family="sans-serif" font-size="14" lengthAdjust="spacing" textLength="115" x="1157.5" y="563.9952">pruner_* metrics</text></g><!--entity Job Queue (LIFO)--><g id="elem_Job Queue (LIFO)"><rect fill="#E8E8E8" height="46.4883" rx="2.5" ry="2.5" style="stroke:#666666;stroke-width:0.5;" width="155" x="1453.5" y="530.46"/><rect fill="#E8E8E8" height="10" style="stroke:#666666;stroke-width:0.5;" width="15" x="1588.5" y="535.46"/><rect fill="#E8E8E8" height="2" style="stroke:#666666;stroke-width:0.5;" width="4" x="1586.5" y="537.46"/><rect fill="#E8E8E8" height="2" style="stroke:#666666;stroke-width:0.5;" width="4" x="1586.5" y="541.46"/><text fill="#333333" font-family="sans-serif" font-size="14" lengthAdjust="spacing" textLength="115" x="1468.5" y="563.9952">Job Queue (LIFO)</text></g><!--entity Worker Pool--><g id="elem_Worker Pool"><rect fill="#E8E8E8" height="46.4883" rx="2.5" ry="2.5" style="stroke:#666666;stroke-width:0.5;" width="123" x="1643.5" y="530.46"/><rect fill="#E8E8E8" height="10" style="stroke:#666666;stroke-width:0.5;" width="15" x="1746.5" y="535.46"/><rect fill="#E8E8E8" height="2" style="stroke:#666666;stroke-width:0.5;" width="4" x="1744.5" y="537.46"/><rect fill="#E8E8E8" height="2" style="stroke:#666666;stroke-width:0.5;" width="4" x="1744.5" y="541.46"/><text fill="#333333" font-family="sans-serif" font-size="14" lengthAdjust="spacing" textLength="83" x="1658.5" y="563.9952">Worker Pool</text></g><!--entity Status Tracking--><g id="elem_Status Tracking"><rect fill="#E8E8E8" height="46.4883" rx="2.5" ry="2.5" style="stroke:#666666;stroke-width:0.5;" width="146" x="1458" y="732.95"/><rect fill="#E8E8E8" height="10" style="stroke:#666666;stroke-width:0.5;" width="15" x="1584" y="737.95"/><rect fill="#E8E8E8" height="2" style="stroke:#666666;stroke-width:0.5;" width="4" x="1582" y="739.95"/><rect fill="#E8E8E8" height="2" style="stroke:#666666;stroke-width:0.5;" width="4" x="1582" y="743.95"/><text fill="#333333" font-family="sans-serif" font-size="14" lengthAdjust="spacing" textLength="106" x="1473" y="766.4852">Status Tracking</text></g><!--entity Service Interface--><g id="elem_Service Interface"><rect fill="#E8E8E8" height="46.4883" rx="2.5" ry="2.5" style="stroke:#666666;stroke-width:0.5;" width="152" x="1874" y="732.95"/><rect fill="#E8E8E8" height="10" style="stroke:#666666;stroke-width:0.5;" width="15" x="2006" y="737.95"/><rect fill="#E8E8E8" height="2" style="stroke:#666666;stroke-width:0.5;" width="4" x="2004" y="739.95"/><rect fill="#E8E8E8" height="2" style="stroke:#666666;stroke-width:0.5;" width="4" x="2004" y="743.95"/><text fill="#333333" font-family="sans-serif" font-size="14" lengthAdjust="spacing" textLength="112" x="1889" y="766.4852">Service Interface</text></g><!--entity Provider Interface--><g id="elem_Provider Interface"><rect fill="#E8E8E8" height="46.4883" rx="2.5" ry="2.5" style="stroke:#666666;stroke-width:0.5;" width="161" x="2060.5" y="732.95"/><rect fill="#E8E8E8" height="10" style="stroke:#666666;stroke-width:0.5;" width="15" x="2201.5" y="737.95"/><rect fill="#E8E8E8" height="2" style="stroke:#666666;stroke-width:0.5;" width="4" x="2199.5" y="739.95"/><rect fill="#E8E8E8" height="2" style="stroke:#666666;stroke-width:0.5;" width="4" x="2199.5" y="743.95"/><text fill="#333333" font-family="sans-serif" font-size="14" lengthAdjust="spacing" textLength="121" x="2075.5" y="766.4852">Provider Interface</text></g><!--entity Index Waiter--><g id="elem_Index Waiter"><rect fill="#E8E8E8" height="46.4883" rx="2.5" ry="2.5" style="stroke:#666666;stroke-width:0.5;" width="126" x="1261" y="994.44"/><rect fill="#E8E8E8" height="10" style="stroke:#666666;stroke-width:0.5;" width="15" x="1367" y="999.44"/><rect fill="#E8E8E8" height="2" style="stroke:#666666;stroke-width:0.5;" width="4" x="1365" y="1001.44"/><rect fill="#E8E8E8" height="2" style="stroke:#666666;stroke-width:0.5;" width="4" x="1365" y="1005.44"/><text fill="#333333" font-family="sans-serif" font-size="14" lengthAdjust="spacing" textLength="86" x="1276" y="1027.9752">Index Waiter</text></g><!--entity Query Executor--><g id="elem_Query Executor"><rect fill="#E8E8E8" height="46.4883" rx="2.5" ry="2.5" style="stroke:#666666;stroke-width:0.5;" width="146" x="1422" y="994.44"/><rect fill="#E8E8E8" height="10" style="stroke:#666666;stroke-width:0.5;" width="15" x="1548" y="999.44"/><rect fill="#E8E8E8" height="2" style="stroke:#666666;stroke-width:0.5;" width="4" x="1546" y="1001.44"/><rect fill="#E8E8E8" height="2" style="stroke:#666666;stroke-width:0.5;" width="4" x="1546" y="1005.44"/><text fill="#333333" font-family="sans-serif" font-size="14" lengthAdjust="spacing" textLength="106" x="1437" y="1027.9752">Query Executor</text></g><!--entity Batch Operations--><g id="elem_Batch Operations"><rect fill="#E8E8E8" height="46.4883" rx="2.5" ry="2.5" style="stroke:#666666;stroke-width:0.5;" width="157" x="1245.5" y="1172.93"/><rect fill="#E8E8E8" height="10" style="stroke:#666666;stroke-width:0.5;" width="15" x="1382.5" y="1177.93"/><rect fill="#E8E8E8" height="2" style="stroke:#666666;stroke-width:0.5;" width="4" x="1380.5" y="1179.93"/><rect fill="#E8E8E8" height="2" style="stroke:#666666;stroke-width:0.5;" width="4" x="1380.5" y="1183.93"/><text fill="#333333" font-family="sans-serif" font-size="14" lengthAdjust="spacing" textLength="117" x="1260.5" y="1206.4652">Batch Operations</text></g><!--entity External Storage Cleaner--><g id="elem_External Storage Cleaner"><rect fill="#E8E8E8" height="46.4883" rx="2.5" ry="2.5" style="stroke:#666666;stroke-width:0.5;" width="211" x="1437.5" y="1172.93"/><rect fill="#E8E8E8" height="10" style="stroke:#666666;stroke-width:0.5;" width="15" x="1628.5" y="1177.93"/><rect fill="#E8E8E8" height="2" style="stroke:#666666;stroke-width:0.5;" width="4" x="1626.5" y="1179.93"/><rect fill="#E8E8E8" height="2" style="stroke:#666666;stroke-width:0.5;" width="4" x="1626.5" y="1183.93"/><text fill="#333333" font-family="sans-serif" font-size="14" lengthAdjust="spacing" textLength="171" x="1452.5" y="1206.4652">External Storage Cleaner</text></g><!--entity DELETE Query--><g id="elem_DELETE Query"><rect fill="#E8E8E8" height="46.4883" rx="2.5" ry="2.5" style="stroke:#666666;stroke-width:0.5;" width="135" x="1745.5" y="994.44"/><rect fill="#E8E8E8" height="10" style="stroke:#666666;stroke-width:0.5;" width="15" x="1860.5" y="999.44"/><rect fill="#E8E8E8" height="2" style="stroke:#666666;stroke-width:0.5;" width="4" x="1858.5" y="1001.44"/><rect fill="#E8E8E8" height="2" style="stroke:#666666;stroke-width:0.5;" width="4" x="1858.5" y="1005.44"/><text fill="#333333" font-family="sans-serif" font-size="14" lengthAdjust="spacing" textLength="95" x="1760.5" y="1027.9752">DELETE Query</text></g><!--entity Simple Worker Pool--><g id="elem_Simple Worker Pool"><rect fill="#E8E8E8" height="46.4883" rx="2.5" ry="2.5" style="stroke:#666666;stroke-width:0.5;" width="173" x="1915.5" y="994.44"/><rect fill="#E8E8E8" height="10" style="stroke:#666666;stroke-width:0.5;" width="15" x="2068.5" y="999.44"/><rect fill="#E8E8E8" height="2" style="stroke:#666666;stroke-width:0.5;" width="4" x="2066.5" y="1001.44"/><rect fill="#E8E8E8" height="2" style="stroke:#666666;stroke-width:0.5;" width="4" x="2066.5" y="1005.44"/><text fill="#333333" font-family="sans-serif" font-size="14" lengthAdjust="spacing" textLength="133" x="1930.5" y="1027.9752">Simple Worker Pool</text></g><!--entity PreserveParentsOfOldUnminedTransactions--><g id="elem_PreserveParentsOfOldUnminedTransactions"><rect fill="#E8E8E8" height="46.4883" rx="2.5" ry="2.5" style="stroke:#666666;stroke-width:0.5;" width="339" x="1744.5" y="1172.93"/><rect fill="#E8E8E8" height="10" style="stroke:#666666;stroke-width:0.5;" width="15" x="2063.5" y="1177.93"/><rect fill="#E8E8E8" height="2" style="stroke:#666666;stroke-width:0.5;" width="4" x="2061.5" y="1179.93"/><rect fill="#E8E8E8" height="2" style="stroke:#666666;stroke-width:0.5;" width="4" x="2061.5" y="1183.93"/><text fill="#333333" font-family="sans-serif" font-size="14" lengthAdjust="spacing" textLength="299" x="1759.5" y="1206.4652">PreserveParentsOfOldUnminedTransactions</text></g><!--entity DB--><g id="elem_DB"><path d="M2189,1373.16 C2189,1363.16 2250,1363.16 2250,1363.16 C2250,1363.16 2311,1363.16 2311,1373.16 L2311,1398.6483 C2311,1408.6483 2250,1408.6483 2250,1408.6483 C2250,1408.6483 2189,1408.6483 2189,1398.6483 L2189,1373.16 " fill="#F1F1F1" style="stroke:#181818;stroke-width:0.5;"/><path d="M2189,1373.16 C2189,1383.16 2250,1383.16 2250,1383.16 C2250,1383.16 2311,1383.16 2311,1373.16 " fill="none" style="stroke:#181818;stroke-width:0.5;"/><text fill="#333333" font-family="sans-serif" font-size="14" lengthAdjust="spacing" textLength="102" x="2199" y="1400.6952">Aerospike/SQL</text></g><!--entity BlobStore--><g id="elem_BlobStore"><rect fill="#F1F1F1" height="52.9766" rx="35" ry="35" style="stroke:#181818;stroke-width:0.5;" width="90" x="2346" y="1359.41"/><text fill="#333333" font-family="sans-serif" font-size="14" lengthAdjust="spacing" textLength="70" x="2356" y="1382.9452">Blob Store</text><text fill="#333333" font-family="sans-serif" font-size="14" lengthAdjust="spacing" textLength="58" x="2356" y="1399.4334">(S3/File)</text></g><!--entity BlockchainClient--><g id="elem_BlockchainClient"><rect fill="#E8E8E8" height="46.4883" rx="2.5" ry="2.5" style="stroke:#666666;stroke-width:0.5;" width="157" x="2471.5" y="1362.66"/><rect fill="#E8E8E8" height="10" style="stroke:#666666;stroke-width:0.5;" width="15" x="2608.5" y="1367.66"/><rect fill="#E8E8E8" height="2" style="stroke:#666666;stroke-width:0.5;" width="4" x="2606.5" y="1369.66"/><rect fill="#E8E8E8" height="2" style="stroke:#666666;stroke-width:0.5;" width="4" x="2606.5" y="1373.66"/><text fill="#333333" font-family="sans-serif" font-size="14" lengthAdjust="spacing" textLength="117" x="2486.5" y="1396.1952">Blockchain Client</text></g><!--entity BlockAssemblyClient--><g id="elem_BlockAssemblyClient"><rect fill="#E8E8E8" height="46.4883" rx="2.5" ry="2.5" style="stroke:#666666;stroke-width:0.5;" width="189" x="2663.5" y="1362.66"/><rect fill="#E8E8E8" height="10" style="stroke:#666666;stroke-width:0.5;" width="15" x="2832.5" y="1367.66"/><rect fill="#E8E8E8" height="2" style="stroke:#666666;stroke-width:0.5;" width="4" x="2830.5" y="1369.66"/><rect fill="#E8E8E8" height="2" style="stroke:#666666;stroke-width:0.5;" width="4" x="2830.5" y="1373.66"/><text fill="#333333" font-family="sans-serif" font-size="14" lengthAdjust="spacing" textLength="149" x="2678.5" y="1396.1952">Block Assembly Client</text></g><g id="elem_GMN52"><path d="M1388.5,280.59 L1388.5,351.8322 L1601.5,351.8322 L1601.5,290.59 L1591.5,280.59 L1388.5,280.59 " fill="#FEFFDD" style="stroke:#181818;stroke-width:0.5;"/><path d="M1591.5,280.59 L1591.5,290.59 L1601.5,290.59 L1591.5,280.59 " fill="#FEFFDD" style="stroke:#181818;stroke-width:1.0;"/><text fill="#333333" font-family="sans-serif" font-size="13" font-weight="bold" lengthAdjust="spacing" textLength="91" x="1394.5" y="298.1584">Event-Driven</text><text fill="#333333" font-family="sans-serif" font-size="13" lengthAdjust="spacing" textLength="187" x="1394.5" y="313.4689">- BlockPersisted notifications</text><text fill="#333333" font-family="sans-serif" font-size="13" lengthAdjust="spacing" textLength="192" x="1394.5" y="328.7795">- Block notifications (fallback)</text><text fill="#333333" font-family="sans-serif" font-size="13" lengthAdjust="spacing" textLength="154" x="1394.5" y="344.09">- Non-blocking channel</text></g><g id="elem_GMN55"><path d="M2313.5,518.08 L2313.5,589.3222 L2494.5,589.3222 L2494.5,528.08 L2484.5,518.08 L2313.5,518.08 " fill="#FEFFDD" style="stroke:#181818;stroke-width:0.5;"/><path d="M2484.5,518.08 L2484.5,528.08 L2494.5,528.08 L2484.5,518.08 " fill="#FEFFDD" style="stroke:#181818;stroke-width:1.0;"/><text fill="#333333" font-family="sans-serif" font-size="13" font-weight="bold" lengthAdjust="spacing" textLength="79" x="2319.5" y="535.6484">LIFO Queue</text><text fill="#333333" font-family="sans-serif" font-size="13" lengthAdjust="spacing" textLength="112" x="2319.5" y="550.9589">- Newest job first</text><text fill="#333333" font-family="sans-serif" font-size="13" lengthAdjust="spacing" textLength="130" x="2319.5" y="566.2695">- Cancel superseded</text><text fill="#333333" font-family="sans-serif" font-size="13" lengthAdjust="spacing" textLength="160" x="2319.5" y="581.58">- Timeout: 10min default</text></g><g id="elem_GMN58"><path d="M2180,982.06 L2180,1053.3022 L2372,1053.3022 L2372,992.06 L2362,982.06 L2180,982.06 " fill="#FEFFDD" style="stroke:#181818;stroke-width:0.5;"/><path d="M2362,982.06 L2362,992.06 L2372,992.06 L2362,982.06 " fill="#FEFFDD" style="stroke:#181818;stroke-width:1.0;"/><text fill="#333333" font-family="sans-serif" font-size="13" font-weight="bold" lengthAdjust="spacing" textLength="127" x="2186" y="999.6284">Aerospike-Specific</text><text fill="#333333" font-family="sans-serif" font-size="13" lengthAdjust="spacing" textLength="171" x="2186" y="1014.9389">- Secondary index required</text><text fill="#333333" font-family="sans-serif" font-size="13" lengthAdjust="spacing" textLength="122" x="2186" y="1030.2495">- 4 workers default</text><text fill="#333333" font-family="sans-serif" font-size="13" lengthAdjust="spacing" textLength="161" x="2186" y="1045.56">- External .tx file cleanup</text></g><g id="elem_GMN61"><path d="M2407,982.06 L2407,1053.3022 L2603,1053.3022 L2603,992.06 L2593,982.06 L2407,982.06 " fill="#FEFFDD" style="stroke:#181818;stroke-width:0.5;"/><path d="M2593,982.06 L2593,992.06 L2603,992.06 L2593,982.06 " fill="#FEFFDD" style="stroke:#181818;stroke-width:1.0;"/><text fill="#333333" font-family="sans-serif" font-size="13" font-weight="bold" lengthAdjust="spacing" textLength="85" x="2413" y="999.6284">SQL-Specific</text><text fill="#333333" font-family="sans-serif" font-size="13" lengthAdjust="spacing" textLength="143" x="2413" y="1014.9389">- Simple DELETE query</text><text fill="#333333" font-family="sans-serif" font-size="13" lengthAdjust="spacing" textLength="122" x="2413" y="1030.2495">- 2 workers default</text><text fill="#333333" font-family="sans-serif" font-size="13" lengthAdjust="spacing" textLength="175" x="2413" y="1045.56">- No external dependencies</text></g><!--link Server to Worker--><g id="link_Server_Worker"><path d="M419.5964,149.0171 C420.0597,149.0473 420.5405,149.0787 421.0386,149.1115 C423.0307,149.2426 425.2985,149.3951 427.8231,149.57 C437.9213,150.2693 452.1279,151.3248 469.2364,152.7872 C503.4534,155.7119 549.2781,160.2638 597.0588,166.8475 C692.62,180.015 796.005,201.31 830,233.97 C833.2475,237.09 836.0017,240.6458 838.3345,244.4861 C838.9177,245.4461 839.4746,246.424 840.0062,247.4172 C840.272,247.9139 840.5316,248.4144 840.7849,248.9184 C840.9116,249.1704 838.4092,244.0293 838.5328,244.283 " fill="none" id="Server-to-Worker" style="stroke:#666666;stroke-width:1.0;"/><polygon fill="#666666" points="841.1603,249.6771,840.8151,239.8343,838.9707,245.182,833.623,243.3377,841.1603,249.6771" style="stroke:#666666;stroke-width:1.0;"/><text fill="#333333" font-family="sans-serif" font-size="13" lengthAdjust="spacing" textLength="56" x="815.76" y="222.5384">manages</text></g><!--link Worker to Metrics--><g id="link_Worker_Metrics"><path d="M858.1219,317.6427 C859.079,317.6958 860.1157,317.7541 861.2294,317.8178 C863.4568,317.9452 865.9922,318.0941 868.8142,318.2657 C880.1023,318.9522 895.9775,320.0022 915.0806,321.4925 C953.2869,324.4731 1004.405,329.215 1057.5625,336.3325 C1163.8775,350.5675 1278.35,374.305 1314,412.46 C1324.5675,423.77 1331.0844,438.0069 1334.9044,453.0452 C1336.8144,460.5643 1338.0502,468.2838 1338.7809,475.9379 C1339.1463,479.765 1339.1718,477.5796 1339.3058,481.3408 " fill="none" id="Worker-to-Metrics" style="stroke:#666666;stroke-width:1.0;"/><polygon fill="#666666" points="1339.5195,487.337,1343.1964,478.2002,1339.3414,482.3402,1335.2015,478.4852,1339.5195,487.337" style="stroke:#666666;stroke-width:1.0;"/><text fill="#333333" font-family="sans-serif" font-size="13" lengthAdjust="spacing" textLength="50" x="1304.88" y="401.0284">updates</text></g><!--link Worker to BlockchainClient--><g id="link_Worker_BlockchainClient"><path d="M858.4396,318.5451 C860.1342,318.8103 862.0726,319.1124 864.2446,319.4494 C872.9326,320.797 885.3583,322.7005 900.8653,325.0142 C931.8794,329.6416 975.2188,335.9094 1025.6325,342.6513 C1126.46,356.135 1255.585,371.515 1371,379.46 C1497.53,388.17 2393.48,367.31 2512,412.46 C2603.21,447.21 2681,455.1 2681,552.7 C2681,552.7 2681,552.7 2681,1197.17 C2681,1267.51 2622.9974,1326.4987 2584.3474,1358.5687 " fill="none" id="Worker-to-BlockchainClient" style="stroke:#666666;stroke-width:1.0;"/><polygon fill="#666666" points="2579.73,1362.4,2589.2104,1359.7313,2583.5779,1359.2072,2584.1019,1353.5747,2579.73,1362.4" style="stroke:#666666;stroke-width:1.0;"/><text fill="#333333" font-family="sans-serif" font-size="13" lengthAdjust="spacing" textLength="68" x="2682" y="865.0084">subscribes</text></g><!--link Worker to BlockAssemblyClient--><g id="link_Worker_BlockAssemblyClient"><path d="M858.4375,318.5794 C860.1316,318.8512 862.0694,319.1608 864.2409,319.506 C872.9266,320.8864 885.3491,322.8345 900.8527,325.197 C931.8597,329.9222 975.1906,336.3056 1025.5988,343.1238 C1126.415,356.76 1255.54,372.135 1371,379.46 C1597.44,393.83 2165.48,374.35 2392,387.46 C2583.62,398.55 2791,360.76 2791,552.7 C2791,552.7 2791,552.7 2791,1197.17 C2791,1257.56 2775.82,1321.4745 2766.19,1356.5145 " fill="none" id="Worker-to-BlockAssemblyClient" style="stroke:#666666;stroke-width:1.0;"/><polygon fill="#666666" points="2764.6,1362.3,2770.842,1354.6818,2765.925,1357.4788,2763.128,1352.5618,2764.6,1362.3" style="stroke:#666666;stroke-width:1.0;"/><text fill="#333333" font-family="sans-serif" font-size="13" lengthAdjust="spacing" textLength="79" x="2792" y="865.0084">checks state</text></g><!--link Worker to JobManager--><g id="link_Worker_JobManager"><path d="M858.456,318.3501 C860.1538,318.5772 862.0957,318.8366 864.2716,319.1266 C872.9753,320.2864 885.4222,321.9356 900.9525,323.9694 C932.0131,328.0369 975.4075,333.6425 1025.8575,339.9475 C1126.7575,352.5575 1255.88,367.965 1371,379.46 C1416.59,384.01 1748.62,381.08 1782,412.46 C1793.2875,423.075 1800.2306,436.9588 1804.2841,451.8595 C1806.3108,459.3099 1807.6151,467.0146 1808.3788,474.692 C1808.7606,478.5307 1809.0074,482.3627 1809.1416,486.1526 C1809.15,486.3895 1808.9673,480.6292 1808.9748,480.8657 " fill="none" id="Worker-to-JobManager" style="stroke:#666666;stroke-width:1.0;"/><polygon fill="#666666" points="1809.1655,486.8627,1812.8775,477.7401,1809.0066,481.8652,1804.8815,477.9944,1809.1655,486.8627" style="stroke:#666666;stroke-width:1.0;"/><text fill="#333333" font-family="sans-serif" font-size="13" lengthAdjust="spacing" textLength="29" x="1764.61" y="401.0284">calls</text></g><!--link JobManager to Interface--><g id="link_JobManager_Interface"><path d="M1810.2493,555.8188 C1810.4814,555.8509 1810.718,555.8837 1810.9592,555.9172 C1811.4417,555.9841 1811.9423,556.0538 1812.461,556.1262 C1814.5354,556.4157 1816.8968,556.7485 1819.5255,557.1241 C1830.0402,558.6263 1844.8313,560.8114 1862.6394,563.6353 C1898.2556,569.2831 1945.94,577.4863 1995.6175,587.8925 C2094.9725,608.705 2202.3,638.33 2237,673.95 C2240.1425,677.175 2242.8172,680.8103 2245.0913,684.7093 C2245.6598,685.684 2246.2033,686.6752 2246.7228,687.6806 C2246.9826,688.1833 2247.2363,688.6896 2247.4842,689.1991 C2247.5462,689.3265 2245.0146,684.0434 2245.0758,684.1712 " fill="none" id="JobManager-to-Interface" style="stroke:#666666;stroke-width:1.0;"/><polygon fill="#666666" points="2247.669,689.5818,2247.3864,679.737,2245.508,685.0729,2240.1721,683.1946,2247.669,689.5818" style="stroke:#666666;stroke-width:1.0;"/><text fill="#333333" font-family="sans-serif" font-size="13" lengthAdjust="spacing" textLength="74" x="2228.23" y="662.5184">implements</text></g><!--reverse link Interface to AerospikePruner--><g id="link_Interface_AerospikePruner"><path d="M2253.8604,821.2448 C2253.7586,821.8359 2256.5608,805.1197 2256.449,805.7112 C2255.5539,810.4429 2254.3309,815.1748 2252.6858,819.7267 C2249.3956,828.8306 2244.4175,837.215 2237,843.44 C2224.3,854.1 2104.55,850.42 2088,851.44 C2008.18,856.36 1793.61,829.31 1729,876.44 C1702.31,895.905 1688.3275,930.1825 1681.0088,959.9763 " fill="none" id="Interface-backto-AerospikePruner" style="stroke:#666666;stroke-width:1.0;"/><polygon fill="none" points="2256.8448,803.4939,2247.9435,820.2499,2259.7774,822.2396,2256.8448,803.4939" style="stroke:#666666;stroke-width:1.0;"/><text fill="#333333" font-family="sans-serif" font-size="13" lengthAdjust="spacing" textLength="74" x="2089" y="865.0084">implements</text></g><!--reverse link Interface to SQLPruner--><g id="link_Interface_SQLPruner"><path d="M2250.625,821.3876 C2249.6786,826.0095 2251.9448,813.4778 2250.4259,818.0719 C2247.3881,827.26 2243.08,836.1025 2237,843.44 C2213.76,871.48 2185.75,848.83 2162,876.44 C2151.635,888.4875 2144.07,903.0988 2138.5547,918.2822 C2135.797,925.8739 2133.5518,933.6087 2131.7252,941.2375 C2131.2685,943.1448 2130.8381,945.0454 2130.4323,946.9354 C2130.2294,947.8805 2130.0327,948.8229 2129.8419,949.7622 C2129.7466,950.2319 2129.6527,950.7007 2129.5603,951.1688 " fill="none" id="Interface-backto-SQLPruner" style="stroke:#666666;stroke-width:1.0;"/><polygon fill="none" points="2254.1806,803.7423,2244.7432,820.2024,2256.5068,822.5728,2254.1806,803.7423" style="stroke:#666666;stroke-width:1.0;"/><text fill="#333333" font-family="sans-serif" font-size="13" lengthAdjust="spacing" textLength="74" x="2229.44" y="865.0084">implements</text></g><!--link AerospikePruner to DB--><g id="link_AerospikePruner_DB"><path d="M1681.1462,1033.2598 C1681.2015,1033.349 1681.257,1033.4385 1681.3129,1033.5283 C1681.7595,1034.2463 1682.2229,1034.9812 1682.7028,1035.7307 C1684.6226,1038.7287 1686.8066,1041.9609 1689.2363,1045.2888 C1698.955,1058.6 1712.605,1073.44 1729,1080.93 C1750.84,1090.9 2141.99,1074.27 2161,1088.93 C2232.14,1143.78 2189.5,1197.58 2216,1283.41 C2224.5,1310.93 2233.2064,1336.6604 2240.3064,1357.1604 " fill="none" id="AerospikePruner-to-DB" style="stroke:#666666;stroke-width:1.0;"/><polygon fill="#666666" points="2242.27,1362.83,2243.1043,1353.0165,2240.6337,1358.1053,2235.5449,1355.6347,2242.27,1362.83" style="stroke:#666666;stroke-width:1.0;"/><text fill="#333333" font-family="sans-serif" font-size="13" lengthAdjust="spacing" textLength="98" x="2217" y="1201.2384">queries/deletes</text></g><!--link AerospikePruner to BlobStore--><g id="link_AerospikePruner_BlobStore"><path d="M1681.1439,1033.2688 C1681.1992,1033.3581 1681.2547,1033.4476 1681.3105,1033.5374 C1681.757,1034.2556 1682.2204,1034.9907 1682.7002,1035.7404 C1684.6195,1038.7391 1686.8031,1041.9719 1689.2325,1045.3 C1698.95,1058.6125 1712.6,1073.45 1729,1080.93 C1752.61,1091.69 2170.2,1086.13 2196,1088.93 C2251.89,1094.99 2279.71,1074.72 2320,1113.93 C2375.4,1167.83 2338.7,1208.83 2359,1283.41 C2366.09,1309.44 2373.6093,1333.0957 2380.3893,1353.5157 " fill="none" id="AerospikePruner-to-BlobStore" style="stroke:#666666;stroke-width:1.0;"/><polygon fill="#666666" points="2382.28,1359.21,2383.2402,1349.4081,2380.7044,1354.4647,2375.6478,1351.929,2382.28,1359.21" style="stroke:#666666;stroke-width:1.0;"/><text fill="#333333" font-family="sans-serif" font-size="13" lengthAdjust="spacing" textLength="97" x="2360" y="1201.2384">deletes .tx files</text></g><!--link AerospikePruner to Common--><g id="link_AerospikePruner_Common"><path d="M1681.1187,1032.7026 C1681.2296,1032.877 1681.3416,1033.0526 1681.4546,1033.2292 C1681.9067,1033.9355 1682.3756,1034.6588 1682.8608,1035.3969 C1684.802,1038.3493 1687.0059,1041.5391 1689.4513,1044.8338 C1699.2325,1058.0125 1712.875,1072.87 1729,1080.93 C1765.92,1099.38 2067.68,1087.05 2099,1113.93 C2102.4175,1116.8613 2105.3006,1120.2739 2107.7287,1124.0084 C2108.9427,1125.8756 2107.3762,1122.4485 2108.3726,1124.4567 " fill="none" id="AerospikePruner-to-Common" style="stroke:#666666;stroke-width:1.0;"/><polygon fill="#666666" points="2111.0393,1129.8315,2110.6224,1119.9915,2108.817,1125.3525,2103.456,1123.5472,2111.0393,1129.8315" style="stroke:#666666;stroke-width:1.0;"/><text fill="#333333" font-family="sans-serif" font-size="13" lengthAdjust="spacing" textLength="29" x="2077.97" y="1102.4984">uses</text></g><!--link SQLPruner to DB--><g id="link_SQLPruner_DB"><path d="M2132.1217,1042.7878 C2132.166,1042.8894 2132.2105,1042.9911 2132.2552,1043.093 C2132.3446,1043.2967 2132.4347,1043.5009 2132.5257,1043.7055 C2132.7077,1044.1148 2132.8929,1044.526 2133.0812,1044.9388 C2139.11,1058.1475 2148.45,1073 2162,1080.93 C2183.4,1093.44 2360.55,1084.79 2385,1088.93 C2422.15,1095.21 2443.63,1083.61 2466,1113.93 C2510.73,1174.54 2512.61,1224.24 2466,1283.41 C2427.24,1332.61 2384.69,1287.75 2329,1316.41 C2306.24,1328.13 2288.7787,1343.4141 2273.9187,1358.6541 " fill="none" id="SQLPruner-to-DB" style="stroke:#666666;stroke-width:1.0;"/><polygon fill="#666666" points="2269.73,1362.95,2278.877,1359.2987,2273.2206,1359.3701,2273.1492,1353.7137,2269.73,1362.95" style="stroke:#666666;stroke-width:1.0;"/><text fill="#333333" font-family="sans-serif" font-size="13" lengthAdjust="spacing" textLength="98" x="2501.25" y="1201.2384">queries/deletes</text></g><!--link SQLPruner to Common--><g id="link_SQLPruner_Common"><path d="M2122.6788,1065.3896 C2122.6704,1065.6882 2122.6619,1065.9877 2122.6534,1066.2881 C2122.6363,1066.8887 2122.6192,1067.4925 2122.602,1068.0994 C2122.5332,1070.5269 2122.4629,1073.0035 2122.3916,1075.5191 C2122.1063,1085.5819 2121.8031,1096.2713 2121.5,1106.96 C2121.3484,1112.3044 2121.1969,1117.6486 2121.0475,1122.9142 C2121.0102,1124.2307 2120.973,1125.5422 2120.936,1126.8475 C2120.9175,1127.5002 2120.899,1128.1514 2120.8806,1128.8008 C2120.8714,1129.1256 2121.0323,1123.4523 2121.0231,1123.7762 " fill="none" id="SQLPruner-to-Common" style="stroke:#666666;stroke-width:1.0;"/><polygon fill="#666666" points="2120.853,1129.7737,2125.1065,1120.8908,2120.9947,1124.7758,2117.1098,1120.664,2120.853,1129.7737" style="stroke:#666666;stroke-width:1.0;"/><text fill="#333333" font-family="sans-serif" font-size="13" lengthAdjust="spacing" textLength="29" x="2122.95" y="1102.4984">uses</text></g><!--link Common to DB--><g id="link_Common_DB"><path d="M2118.0718,1243.6545 C2118.0453,1243.8017 2118.0185,1243.949 2117.9913,1244.0964 C2117.9371,1244.391 2117.8816,1244.6858 2117.8249,1244.9807 C2116.9184,1249.6988 2115.7029,1254.4384 2114.0923,1259.0288 C2110.8713,1268.2094 2106.07,1276.7925 2099,1283.41 C2082.89,1298.49 2064.29,1274.6 2050,1291.41 C2045.11,1297.17 2045.72,1302.19 2050,1308.41 C2080.98,1353.43 2136.4086,1371.0021 2183.0286,1378.6221 " fill="none" id="Common-to-DB" style="stroke:#666666;stroke-width:1.0;"/><polygon fill="#666666" points="2188.95,1379.59,2180.7131,1374.1906,2184.0155,1378.7835,2179.4226,1382.0858,2188.95,1379.59" style="stroke:#666666;stroke-width:1.0;"/><text fill="#333333" font-family="sans-serif" font-size="13" lengthAdjust="spacing" textLength="111" x="2051" y="1304.9784">preserves parents</text></g><!--link Worker to GMN52--><g id="link_Worker_GMN52"><path d="M859.0267,316.22 C861.8256,316.22 864.6245,316.22 867.4234,316.22 C873.0213,316.22 878.6191,316.22 884.2169,316.22 C895.4125,316.22 906.6081,316.22 917.8037,316.22 C940.195,316.22 962.5863,316.22 984.9775,316.22 C1029.76,316.22 1074.5425,316.22 1119.325,316.22 C1208.89,316.22 1298.455,316.22 1388.02,316.22 " fill="none" id="Worker-GMN52" style="stroke:#666666;stroke-width:1.0;stroke-dasharray:7.0,7.0;"/></g><!--link JobManager to GMN55--><g id="link_JobManager_GMN55"><path d="M1810.5691,553.7 C1813.2288,553.7 1815.8885,553.7 1818.5482,553.7 C1823.8675,553.7 1829.187,553.7 1834.5064,553.7 C1845.1452,553.7 1855.784,553.7 1866.4229,553.7 C1887.7007,553.7 1908.9786,553.7 1930.2566,553.7 C1972.8125,553.7 2015.3688,553.7 2057.925,553.7 C2143.0375,553.7 2228.15,553.7 2313.26,553.7 " fill="none" id="JobManager-GMN55" style="stroke:#666666;stroke-width:1.0;stroke-dasharray:7.0,7.0;"/></g><!--link AerospikePruner to GMN58--><g id="link_AerospikePruner_GMN58"><path d="M1681.0788,956.4339 C1681.1403,956.1712 1681.2023,955.9081 1681.2647,955.6448 C1681.3896,955.1181 1681.5164,954.5903 1681.645,954.0615 C1681.9024,953.0037 1682.1674,951.9417 1682.4402,950.8762 C1682.986,948.7452 1683.5632,946.6003 1684.1738,944.4475 C1693.9425,910.0025 1712.24,873.54 1746.5,859.94 C1785.33,844.52 2083.67,844.52 2122.5,859.94 C2181.45,883.35 2228.49,942.72 2254.28,981.58 " fill="none" id="AerospikePruner-GMN58" style="stroke:#666666;stroke-width:1.0;stroke-dasharray:7.0,7.0;"/></g><!--link SQLPruner to GMN61--><g id="link_SQLPruner_GMN61"><path d="M2125.54,951.267 C2125.5764,951 2125.6134,950.7328 2125.6508,950.4653 C2125.95,948.3258 2126.2793,946.1728 2126.6412,944.0125 C2132.4325,909.4475 2146.58,873.01 2179.5,859.94 C2219.36,844.11 2332.64,844.11 2372.5,859.94 C2428.01,881.98 2467.48,942.39 2488.22,981.73 " fill="none" id="SQLPruner-GMN61" style="stroke:#666666;stroke-width:1.0;stroke-dasharray:7.0,7.0;"/></g><text fill="#333333" font-family="sans-serif" font-size="10" lengthAdjust="spacing" textLength="155" x="0" y="1444.058">Last Modified On: 01-Dec-2025</text><!--SRC=[VLPjRzis4FwkNt7mC20se3bRko8pXW7n6vh2ZjqvGpzinK1BPvkpHAeabJXO-zztf2YPyikK3n7ldhjxxeKdwpqN1LCiXpLBzbibIv6EP2OLV3UzdTvDfv5k42bkM9cPgHJ6Gzwu9u0mfUIBLxvpJnHe4vaNKg0my6y4C9GgHTK6a_IKnkJE_aNVGaS5WTWMpzsyTSybDzEVxPzrKnjtbgeKg625wfad-9UuwUlgLVSBf-ftEou41Cmx5ewg0qn3zUeXzlbp-_jovCNahv3AmDtjB- -wdu-GzyWoiuFH3fCzt2yV0fLd0dCcYA2gDCJuXC4dgVQUGVKQCfWyMynx9jAizk3aenqJ0hEsRwTvUf7nSiSqmb99IbxBgv7dQ1HFj0ljtyFOP9-ZsM6fONAmoRVYL3NzkmTvPLa72LkoCb9XFCDdObgrnxN5Il-tAH_akixCaQEpFuRyBEfZYIN2pUnXkWYxuWkvb38B6sAOeMIU5F7ZOdkjB8urF0ZATyCIT0oQKqYWRd2Z_DmgtZEdIJvLNYWGFEH5XZd5PePB4PIeD0TviK3tgAGk-1vzMHt7HkXlGi3qGQHuW4-Cjtj8rLElr5nCIYD3nP2PP0UB0fMZf0FLv40-1Cl0ShT9Z39aulfuhpxEGf9qFAStdimcJnDmTC9-SLiOE6lcUP2Hp7CfO2QtF75XlA0rpMZt0IwP8XEzs2ooz0-HSu4f3OJGB0aoRNUfINcC1L8bHS9Hrrr9cM5hUzsEJUbJaex5UEWWsbUgCyneP5tFgSchD_qfpx3ha5RZ5AUPaIBP9pl61HMQawY6Usabl6W5zrfZlivUponhXJUcNFtkY-FVwd8F87TNJaTUO7NrbXX0ML3YRUKfAKBfSgqJnTSNW6qEX4ti2jLKBF8RXV3WzXEAPPcE0f5576_d07XzcNGK7UM_VetZimlI0fzWZtFQTddgmuOV3mdqXOQNngAVOeQsC9U0JPS9xt7mWpd0XkRWieMVOwgt9aHqP7KrRXjoOk-FZN7XBuMcRx2g4XJI82Y-tHcG6pyCD5wzdliKnMF5wN-lHwAuQkGIbURQO0faoZSygLR64T2Mmys6McX_ddGTv56AU6rXj95f1jndBQ9RPgtmbCwnxuwINVlL9y0JUiGNr0R-eMksuKeR9nmnaT07I9UqpZIcc3hf4yzHbcO0FzxI4gX_3LsDVD8S5xwHnQi24vkYfx72H8gKqMxbRl4g_59ovGE_XHTNLDt4jD9cnzJp08dTgsLnbL7JQCU5JcSiglNfbwkTarSd_-aYWKS9M7D8WpqNnCzmOs0ZwLt1Z56TvpAbUDJvXHZ0ztOXt7JID9xFv_4hFPtkVm00]--></g></svg>