<?xml version="1.0" encoding="us-ascii" standalone="no"?><svg xmlns="http://www.w3.org/2000/svg" xmlns:xlink="http://www.w3.org/1999/xlink" contentStyleType="text/css" height="654px" preserveAspectRatio="none" style="width:779px;height:654px;background:#F0F8FF;" version="1.1" viewBox="0 0 779 654" width="779px" zoomAndPan="magnify"><defs/><g><rect fill="#F0F8FF" height="654" style="stroke:none;stroke-width:1.0;" width="779" x="0" y="0"/><rect fill="none" height="199.1289" style="stroke:#000000;stroke-width:1.5;" width="352.5" x="419.5" y="336.5938"/><line style="stroke:#181818;stroke-width:0.5;stroke-dasharray:5.0,5.0;" x1="61" x2="61" y1="36.4883" y2="603.3438"/><line style="stroke:#181818;stroke-width:0.5;stroke-dasharray:5.0,5.0;" x1="291" x2="291" y1="36.4883" y2="603.3438"/><line style="stroke:#181818;stroke-width:0.5;stroke-dasharray:5.0,5.0;" x1="485.5" x2="485.5" y1="36.4883" y2="603.3438"/><line style="stroke:#181818;stroke-width:0.5;stroke-dasharray:5.0,5.0;" x1="697" x2="697" y1="36.4883" y2="603.3438"/><rect fill="#DDDDDD" height="30.4883" rx="2.5" ry="2.5" style="stroke:#666666;stroke-width:0.5;" width="113" x="5" y="5"/><text fill="#333333" font-family="sans-serif" font-size="14" lengthAdjust="spacing" textLength="99" x="12" y="25.5352">Block Persister</text><rect fill="#DDDDDD" height="30.4883" rx="2.5" ry="2.5" style="stroke:#666666;stroke-width:0.5;" width="113" x="5" y="602.3438"/><text fill="#333333" font-family="sans-serif" font-size="14" lengthAdjust="spacing" textLength="99" x="12" y="622.8789">Block Persister</text><rect fill="#DDDDDD" height="30.4883" rx="2.5" ry="2.5" style="stroke:#666666;stroke-width:0.5;" width="139" x="222" y="5"/><text fill="#333333" font-family="sans-serif" font-size="14" lengthAdjust="spacing" textLength="125" x="229" y="25.5352">Blockchain Service</text><rect fill="#DDDDDD" height="30.4883" rx="2.5" ry="2.5" style="stroke:#666666;stroke-width:0.5;" width="139" x="222" y="602.3438"/><text fill="#333333" font-family="sans-serif" font-size="14" lengthAdjust="spacing" textLength="125" x="229" y="622.8789">Blockchain Service</text><rect fill="#DDDDDD" height="30.4883" rx="2.5" ry="2.5" style="stroke:#666666;stroke-width:0.5;" width="112" x="429.5" y="5"/><text fill="#333333" font-family="sans-serif" font-size="14" lengthAdjust="spacing" textLength="98" x="436.5" y="25.5352">Pruner Service</text><rect fill="#DDDDDD" height="30.4883" rx="2.5" ry="2.5" style="stroke:#666666;stroke-width:0.5;" width="112" x="429.5" y="602.3438"/><text fill="#333333" font-family="sans-serif" font-size="14" lengthAdjust="spacing" textLength="98" x="436.5" y="622.8789">Pruner Service</text><rect fill="#DDDDDD" height="30.4883" rx="2.5" ry="2.5" style="stroke:#666666;stroke-width:0.5;" width="129" x="633" y="5"/><text fill="#333333" font-family="sans-serif" font-size="14" lengthAdjust="spacing" textLength="115" x="640" y="25.5352">Pruning Channel</text><rect fill="#DDDDDD" height="30.4883" rx="2.5" ry="2.5" style="stroke:#666666;stroke-width:0.5;" width="129" x="633" y="602.3438"/><text fill="#333333" font-family="sans-serif" font-size="14" lengthAdjust="spacing" textLength="115" x="640" y="622.8789">Pruning Channel</text><line style="stroke:#666666;stroke-width:1.0;" x1="61.5" x2="103.5" y1="67.7988" y2="67.7988"/><line style="stroke:#666666;stroke-width:1.0;" x1="103.5" x2="103.5" y1="67.7988" y2="80.7988"/><line style="stroke:#666666;stroke-width:1.0;" x1="62.5" x2="103.5" y1="80.7988" y2="80.7988"/><polygon fill="#666666" points="72.5,76.7988,62.5,80.7988,72.5,84.7988,68.5,80.7988" style="stroke:#666666;stroke-width:1.0;"/><text fill="#333333" font-family="sans-serif" font-size="13" lengthAdjust="spacing" textLength="173" x="68.5" y="63.0566">Complete Block Persistence</text><path d="M66,93.7988 L66,118.7988 L253,118.7988 L253,103.7988 L243,93.7988 L66,93.7988 " fill="#FEFFDD" style="stroke:#181818;stroke-width:0.5;"/><path d="M243,93.7988 L243,103.7988 L253,103.7988 L243,93.7988 " fill="#FEFFDD" style="stroke:#181818;stroke-width:0.5;"/><text fill="#333333" font-family="sans-serif" font-size="13" lengthAdjust="spacing" textLength="166" x="72" y="111.3672">.subtree_data files created</text><polygon fill="#666666" points="279.5,141.4199,289.5,145.4199,279.5,149.4199,283.5,145.4199" style="stroke:#666666;stroke-width:1.0;"/><line style="stroke:#666666;stroke-width:1.0;" x1="61.5" x2="285.5" y1="145.4199" y2="145.4199"/><text fill="#333333" font-family="sans-serif" font-size="13" lengthAdjust="spacing" textLength="206" x="68.5" y="140.6777">Update BlockPersisterHeight = N</text><polygon fill="#666666" points="279.5,186.041,289.5,190.041,279.5,194.041,283.5,190.041" style="stroke:#666666;stroke-width:1.0;"/><line style="stroke:#666666;stroke-width:1.0;" x1="61.5" x2="285.5" y1="190.041" y2="190.041"/><text fill="#333333" font-family="sans-serif" font-size="13" lengthAdjust="spacing" textLength="204" x="68.5" y="169.9883">Send BlockPersisted Notification</text><text fill="#333333" font-family="sans-serif" font-size="13" lengthAdjust="spacing" textLength="85" x="68.5" y="185.2988">with height N</text><polygon fill="#666666" points="473.5,230.6621,483.5,234.6621,473.5,238.6621,477.5,234.6621" style="stroke:#666666;stroke-width:1.0;"/><line style="stroke:#666666;stroke-width:1.0;" x1="291.5" x2="479.5" y1="234.6621" y2="234.6621"/><text fill="#333333" font-family="sans-serif" font-size="13" lengthAdjust="spacing" textLength="170" x="298.5" y="214.6094">BlockPersisted Notification</text><text fill="#333333" font-family="sans-serif" font-size="13" lengthAdjust="spacing" textLength="76" x="298.5" y="229.9199">(height = N)</text><line style="stroke:#666666;stroke-width:1.0;" x1="485.5" x2="527.5" y1="263.9727" y2="263.9727"/><line style="stroke:#666666;stroke-width:1.0;" x1="527.5" x2="527.5" y1="263.9727" y2="276.9727"/><line style="stroke:#666666;stroke-width:1.0;" x1="486.5" x2="527.5" y1="276.9727" y2="276.9727"/><polygon fill="#666666" points="496.5,272.9727,486.5,276.9727,496.5,280.9727,492.5,276.9727" style="stroke:#666666;stroke-width:1.0;"/><text fill="#333333" font-family="sans-serif" font-size="13" lengthAdjust="spacing" textLength="198" x="492.5" y="259.2305">Update lastPersistedHeight = N</text><polygon fill="#666666" points="685.5,317.5938,695.5,321.5938,685.5,325.5938,689.5,321.5938" style="stroke:#666666;stroke-width:1.0;"/><line style="stroke:#666666;stroke-width:1.0;" x1="485.5" x2="691.5" y1="321.5938" y2="321.5938"/><text fill="#333333" font-family="sans-serif" font-size="13" lengthAdjust="spacing" textLength="136" x="492.5" y="301.541">Send Pruning Request</text><text fill="#333333" font-family="sans-serif" font-size="13" lengthAdjust="spacing" textLength="159" x="492.5" y="316.8516">(buffered channel, size 1)</text><path d="M419.5,336.5938 L481.5,336.5938 L481.5,343.9043 L471.5,353.9043 L419.5,353.9043 L419.5,336.5938 " fill="#EEEEEE" style="stroke:#000000;stroke-width:1.5;"/><rect fill="none" height="199.1289" style="stroke:#000000;stroke-width:1.5;" width="352.5" x="419.5" y="336.5938"/><text fill="#333333" font-family="sans-serif" font-size="13" font-weight="bold" lengthAdjust="spacing" textLength="17" x="434.5" y="350.1621">alt</text><text fill="#333333" font-family="sans-serif" font-size="11" font-weight="bold" lengthAdjust="spacing" textLength="202" x="496.5" y="349.2285">[Channel Full (Pruning In Progress)]</text><polygon fill="#666666" points="496.5,386.5254,486.5,390.5254,496.5,394.5254,492.5,390.5254" style="stroke:#666666;stroke-width:1.0;"/><line style="stroke:#666666;stroke-width:1.0;stroke-dasharray:2.0,2.0;" x1="490.5" x2="696.5" y1="390.5254" y2="390.5254"/><text fill="#333333" font-family="sans-serif" font-size="13" lengthAdjust="spacing" textLength="108" x="502.5" y="370.4727">Request Dropped</text><text fill="#333333" font-family="sans-serif" font-size="13" lengthAdjust="spacing" textLength="97" x="502.5" y="385.7832">(Non-blocking)</text><path d="M490,403.5254 L490,443.5254 L706,443.5254 L706,413.5254 L696,403.5254 L490,403.5254 " fill="#FEFFDD" style="stroke:#181818;stroke-width:0.5;"/><path d="M696,403.5254 L696,413.5254 L706,413.5254 L696,403.5254 " fill="#FEFFDD" style="stroke:#181818;stroke-width:0.5;"/><text fill="#333333" font-family="sans-serif" font-size="13" lengthAdjust="spacing" textLength="79" x="496" y="421.0938">Deduplicate:</text><text fill="#333333" font-family="sans-serif" font-size="13" lengthAdjust="spacing" textLength="195" x="496" y="436.4043">Latest height will be processed</text><line style="stroke:#000000;stroke-width:1.0;stroke-dasharray:2.0,2.0;" x1="419.5" x2="772" y1="450.1465" y2="450.1465"/><text fill="#333333" font-family="sans-serif" font-size="11" font-weight="bold" lengthAdjust="spacing" textLength="109" x="424.5" y="460.7813">[Channel Available]</text><polygon fill="#666666" points="496.5,481.4121,486.5,485.4121,496.5,489.4121,492.5,485.4121" style="stroke:#666666;stroke-width:1.0;"/><line style="stroke:#666666;stroke-width:1.0;stroke-dasharray:2.0,2.0;" x1="490.5" x2="696.5" y1="485.4121" y2="485.4121"/><text fill="#333333" font-family="sans-serif" font-size="13" lengthAdjust="spacing" textLength="102" x="502.5" y="480.6699">Request Queued</text><line style="stroke:#666666;stroke-width:1.0;" x1="485.5" x2="527.5" y1="514.7227" y2="514.7227"/><line style="stroke:#666666;stroke-width:1.0;" x1="527.5" x2="527.5" y1="514.7227" y2="527.7227"/><line style="stroke:#666666;stroke-width:1.0;" x1="486.5" x2="527.5" y1="527.7227" y2="527.7227"/><polygon fill="#666666" points="496.5,523.7227,486.5,527.7227,496.5,531.7227,492.5,527.7227" style="stroke:#666666;stroke-width:1.0;"/><text fill="#333333" font-family="sans-serif" font-size="13" lengthAdjust="spacing" textLength="160" x="492.5" y="509.9805">Trigger Pruning Workflow</text><path d="M490,547.7227 L490,587.7227 L638,587.7227 L638,557.7227 L628,547.7227 L490,547.7227 " fill="#FEFFDD" style="stroke:#181818;stroke-width:0.5;"/><path d="M628,547.7227 L628,557.7227 L638,557.7227 L628,547.7227 " fill="#FEFFDD" style="stroke:#181818;stroke-width:0.5;"/><text fill="#333333" font-family="sans-serif" font-size="13" lengthAdjust="spacing" textLength="127" x="496" y="565.291">Pruning will process</text><text fill="#333333" font-family="sans-serif" font-size="13" lengthAdjust="spacing" textLength="110" x="496" y="580.6016">latest height only</text><text fill="#333333" font-family="sans-serif" font-size="10" lengthAdjust="spacing" textLength="155" x="0" y="644.5">Last Modified On: 01-Dec-2025</text><!--SRC=[XL9XYzD04Fs-lsAe22rOKGIHWeBN4XIkzVGKlnHaavqaI_TsukxcoYdttvqacvYqfxSVaZ1vxysRUUiFsbRIoHj8PNOe7DLMhScGWoV9Y-HDaWW_81JciZOX8HiYv5LxHX3f71tZpzVj4QE__0mwqvMq0NuBW0jo2jqKpjLJ8vlsY7iXnWAp2qFP0QxGUUq3kXb83srjA3s0pqgfBLoZkzKP_gMqvIdyojKMtGJQbSvXsXQmBgMrQ5fS_1PYQWUMxquChc1DDvN1W32TncOeB77PwQ8CGFaPyRclq-0GVoWP9EJQe8VCeGoe_jctdN85tohcu8dY1smxlONT8-nhj6hALR2Ze7EToQ39xkrHXnBAJcyNpNHxPwbkXwl_AypBmSr2Y9Z4Y1mdCDA7GM8qm8WHeuYs-x2-uCyQVU16QPtdwDX0rW6VWTU_45voMsb2JuUaDWRcFVsZPIKg77g_u0iB0smvyXXxmCPHLQ7YNZkooxGPcpKwtZJYdhb1LLUcMGQkzlQINomJDtBKR2H5g1nbt9x3HkDnCF3-LceZKuEFslfSOyti1dQ-tw_igU1IF_1tSeVSq57m4eLus7MFRHr6Utjh9kx9cZiX3EO1SgBcSbroXB0bnU5p29_uVZrjeftFb5fkjzlb7P_PuWy0]--></g></svg>