<?xml version="1.0" encoding="us-ascii" standalone="no"?><svg xmlns="http://www.w3.org/2000/svg" xmlns:xlink="http://www.w3.org/1999/xlink" contentStyleType="text/css" height="831px" preserveAspectRatio="none" style="width:657px;height:831px;background:#F0F8FF;" version="1.1" viewBox="0 0 657 831" width="657px" zoomAndPan="magnify"><defs/><g><rect fill="#F0F8FF" height="831" style="stroke:none;stroke-width:1.0;" width="657" x="0" y="0"/><rect fill="none" height="415.6133" style="stroke:#000000;stroke-width:1.5;" width="474" x="176" y="347.2832"/><line style="stroke:#181818;stroke-width:0.5;stroke-dasharray:5.0,5.0;" x1="66" x2="66" y1="36.4883" y2="779.8965"/><line style="stroke:#181818;stroke-width:0.5;stroke-dasharray:5.0,5.0;" x1="255" x2="255" y1="36.4883" y2="779.8965"/><line style="stroke:#181818;stroke-width:0.5;stroke-dasharray:5.0,5.0;" x1="444.5" x2="444.5" y1="36.4883" y2="779.8965"/><rect fill="#DDDDDD" height="30.4883" rx="2.5" ry="2.5" style="stroke:#666666;stroke-width:0.5;" width="123" x="5" y="5"/><text fill="#333333" font-family="sans-serif" font-size="14" lengthAdjust="spacing" textLength="109" x="12" y="25.5352">Block Validation</text><rect fill="#DDDDDD" height="30.4883" rx="2.5" ry="2.5" style="stroke:#666666;stroke-width:0.5;" width="123" x="5" y="778.8965"/><text fill="#333333" font-family="sans-serif" font-size="14" lengthAdjust="spacing" textLength="109" x="12" y="799.4316">Block Validation</text><rect fill="#DDDDDD" height="30.4883" rx="2.5" ry="2.5" style="stroke:#666666;stroke-width:0.5;" width="139" x="186" y="5"/><text fill="#333333" font-family="sans-serif" font-size="14" lengthAdjust="spacing" textLength="125" x="193" y="25.5352">Blockchain Service</text><rect fill="#DDDDDD" height="30.4883" rx="2.5" ry="2.5" style="stroke:#666666;stroke-width:0.5;" width="139" x="186" y="778.8965"/><text fill="#333333" font-family="sans-serif" font-size="14" lengthAdjust="spacing" textLength="125" x="193" y="799.4316">Blockchain Service</text><rect fill="#DDDDDD" height="30.4883" rx="2.5" ry="2.5" style="stroke:#666666;stroke-width:0.5;" width="112" x="388.5" y="5"/><text fill="#333333" font-family="sans-serif" font-size="14" lengthAdjust="spacing" textLength="98" x="395.5" y="25.5352">Pruner Service</text><rect fill="#DDDDDD" height="30.4883" rx="2.5" ry="2.5" style="stroke:#666666;stroke-width:0.5;" width="112" x="388.5" y="778.8965"/><text fill="#333333" font-family="sans-serif" font-size="14" lengthAdjust="spacing" textLength="98" x="395.5" y="799.4316">Pruner Service</text><path d="M10,51.4883 L10,76.4883 L500,76.4883 L500,61.4883 L490,51.4883 L10,51.4883 " fill="#FEFFDD" style="stroke:#181818;stroke-width:0.5;"/><path d="M490,51.4883 L490,61.4883 L500,61.4883 L490,51.4883 " fill="#FEFFDD" style="stroke:#181818;stroke-width:0.5;"/><text fill="#333333" font-family="sans-serif" font-size="13" font-weight="bold" lengthAdjust="spacing" textLength="244" x="128.75" y="69.0566">Fallback Trigger (No Block Persister)</text><line style="stroke:#666666;stroke-width:1.0;" x1="66.5" x2="108.5" y1="103.1094" y2="103.1094"/><line style="stroke:#666666;stroke-width:1.0;" x1="108.5" x2="108.5" y1="103.1094" y2="116.1094"/><line style="stroke:#666666;stroke-width:1.0;" x1="67.5" x2="108.5" y1="116.1094" y2="116.1094"/><polygon fill="#666666" points="77.5,112.1094,67.5,116.1094,77.5,120.1094,73.5,116.1094" style="stroke:#666666;stroke-width:1.0;"/><text fill="#333333" font-family="sans-serif" font-size="13" lengthAdjust="spacing" textLength="130" x="73.5" y="98.3672">Block Fully Validated</text><polygon fill="#666666" points="243.5,141.4199,253.5,145.4199,243.5,149.4199,247.5,145.4199" style="stroke:#666666;stroke-width:1.0;"/><line style="stroke:#666666;stroke-width:1.0;" x1="66.5" x2="249.5" y1="145.4199" y2="145.4199"/><text fill="#333333" font-family="sans-serif" font-size="13" lengthAdjust="spacing" textLength="165" x="73.5" y="140.6777">SetMined(blockHash, true)</text><line style="stroke:#666666;stroke-width:1.0;" x1="255.5" x2="297.5" y1="190.041" y2="190.041"/><line style="stroke:#666666;stroke-width:1.0;" x1="297.5" x2="297.5" y1="190.041" y2="203.041"/><line style="stroke:#666666;stroke-width:1.0;" x1="256.5" x2="297.5" y1="203.041" y2="203.041"/><polygon fill="#666666" points="266.5,199.041,256.5,203.041,266.5,207.041,262.5,203.041" style="stroke:#666666;stroke-width:1.0;"/><text fill="#333333" font-family="sans-serif" font-size="13" lengthAdjust="spacing" textLength="86" x="262.5" y="169.9883">Update Block:</text><text fill="#333333" font-family="sans-serif" font-size="13" lengthAdjust="spacing" textLength="108" x="262.5" y="185.2988">mined_set = true</text><line style="stroke:#666666;stroke-width:1.0;" x1="255.5" x2="297.5" y1="247.6621" y2="247.6621"/><line style="stroke:#666666;stroke-width:1.0;" x1="297.5" x2="297.5" y1="247.6621" y2="260.6621"/><line style="stroke:#666666;stroke-width:1.0;" x1="256.5" x2="297.5" y1="260.6621" y2="260.6621"/><polygon fill="#666666" points="266.5,256.6621,256.5,260.6621,266.5,264.6621,262.5,260.6621" style="stroke:#666666;stroke-width:1.0;"/><text fill="#333333" font-family="sans-serif" font-size="13" lengthAdjust="spacing" textLength="147" x="262.5" y="227.6094">Send Block Notification</text><text fill="#333333" font-family="sans-serif" font-size="13" lengthAdjust="spacing" textLength="116" x="262.5" y="242.9199">(mined_set = true)</text><polygon fill="#666666" points="432.5,285.9727,442.5,289.9727,432.5,293.9727,436.5,289.9727" style="stroke:#666666;stroke-width:1.0;"/><line style="stroke:#666666;stroke-width:1.0;" x1="255.5" x2="438.5" y1="289.9727" y2="289.9727"/><text fill="#333333" font-family="sans-serif" font-size="13" lengthAdjust="spacing" textLength="113" x="262.5" y="285.2305">Block Notification</text><line style="stroke:#666666;stroke-width:1.0;" x1="444.5" x2="486.5" y1="319.2832" y2="319.2832"/><line style="stroke:#666666;stroke-width:1.0;" x1="486.5" x2="486.5" y1="319.2832" y2="332.2832"/><line style="stroke:#666666;stroke-width:1.0;" x1="445.5" x2="486.5" y1="332.2832" y2="332.2832"/><polygon fill="#666666" points="455.5,328.2832,445.5,332.2832,455.5,336.2832,451.5,332.2832" style="stroke:#666666;stroke-width:1.0;"/><text fill="#333333" font-family="sans-serif" font-size="13" lengthAdjust="spacing" textLength="165" x="451.5" y="314.541">Check lastPersistedHeight</text><path d="M176,347.2832 L238,347.2832 L238,354.5938 L228,364.5938 L176,364.5938 L176,347.2832 " fill="#EEEEEE" style="stroke:#000000;stroke-width:1.5;"/><rect fill="none" height="415.6133" style="stroke:#000000;stroke-width:1.5;" width="474" x="176" y="347.2832"/><text fill="#333333" font-family="sans-serif" font-size="13" font-weight="bold" lengthAdjust="spacing" textLength="17" x="191" y="360.8516">alt</text><text fill="#333333" font-family="sans-serif" font-size="11" font-weight="bold" lengthAdjust="spacing" textLength="149" x="253" y="359.918">[lastPersistedHeight == 0]</text><path d="M449,369.5938 L449,394.5938 L640,394.5938 L640,379.5938 L630,369.5938 L449,369.5938 " fill="#FEFFDD" style="stroke:#181818;stroke-width:0.5;"/><path d="M630,369.5938 L630,379.5938 L640,379.5938 L630,369.5938 " fill="#FEFFDD" style="stroke:#181818;stroke-width:0.5;"/><text fill="#333333" font-family="sans-serif" font-size="13" lengthAdjust="spacing" textLength="170" x="455" y="387.1621">Block Persister not running</text><polygon fill="#666666" points="266.5,417.2148,256.5,421.2148,266.5,425.2148,262.5,421.2148" style="stroke:#666666;stroke-width:1.0;"/><line style="stroke:#666666;stroke-width:1.0;" x1="260.5" x2="443.5" y1="421.2148" y2="421.2148"/><text fill="#333333" font-family="sans-serif" font-size="13" lengthAdjust="spacing" textLength="103" x="272.5" y="416.4727">Get BlockHeader</text><polygon fill="#666666" points="432.5,446.5254,442.5,450.5254,432.5,454.5254,436.5,450.5254" style="stroke:#666666;stroke-width:1.0;"/><line style="stroke:#666666;stroke-width:1.0;stroke-dasharray:2.0,2.0;" x1="255.5" x2="438.5" y1="450.5254" y2="450.5254"/><text fill="#333333" font-family="sans-serif" font-size="13" lengthAdjust="spacing" textLength="165" x="262.5" y="445.7832">Block Header (with height)</text><line style="stroke:#666666;stroke-width:1.0;" x1="444.5" x2="486.5" y1="479.8359" y2="479.8359"/><line style="stroke:#666666;stroke-width:1.0;" x1="486.5" x2="486.5" y1="479.8359" y2="492.8359"/><line style="stroke:#666666;stroke-width:1.0;" x1="445.5" x2="486.5" y1="492.8359" y2="492.8359"/><polygon fill="#666666" points="455.5,488.8359,445.5,492.8359,455.5,496.8359,451.5,492.8359" style="stroke:#666666;stroke-width:1.0;"/><text fill="#333333" font-family="sans-serif" font-size="13" lengthAdjust="spacing" textLength="158" x="451.5" y="475.0938">Verify mined_set == true</text><line style="stroke:#666666;stroke-width:1.0;" x1="444.5" x2="486.5" y1="537.457" y2="537.457"/><line style="stroke:#666666;stroke-width:1.0;" x1="486.5" x2="486.5" y1="537.457" y2="550.457"/><line style="stroke:#666666;stroke-width:1.0;" x1="445.5" x2="486.5" y1="550.457" y2="550.457"/><polygon fill="#666666" points="455.5,546.457,445.5,550.457,455.5,554.457,451.5,550.457" style="stroke:#666666;stroke-width:1.0;"/><text fill="#333333" font-family="sans-serif" font-size="13" lengthAdjust="spacing" textLength="97" x="451.5" y="517.4043">Trigger Pruning</text><text fill="#333333" font-family="sans-serif" font-size="13" lengthAdjust="spacing" textLength="101" x="451.5" y="532.7148">for block height</text><path d="M449,563.457 L449,618.457 L621,618.457 L621,573.457 L611,563.457 L449,563.457 " fill="#FEFFDD" style="stroke:#181818;stroke-width:0.5;"/><path d="M611,563.457 L611,573.457 L621,573.457 L611,563.457 " fill="#FEFFDD" style="stroke:#181818;stroke-width:0.5;"/><text fill="#333333" font-family="sans-serif" font-size="13" lengthAdjust="spacing" textLength="151" x="455" y="581.0254">No coordination needed</text><text fill="#333333" font-family="sans-serif" font-size="13" lengthAdjust="spacing" textLength="138" x="455" y="596.3359">No .subtree_data files</text><text fill="#333333" font-family="sans-serif" font-size="13" lengthAdjust="spacing" textLength="62" x="455" y="611.6465">to protect</text><line style="stroke:#000000;stroke-width:1.0;stroke-dasharray:2.0,2.0;" x1="176" x2="650" y1="625.3887" y2="625.3887"/><text fill="#333333" font-family="sans-serif" font-size="11" font-weight="bold" lengthAdjust="spacing" textLength="140" x="181" y="636.0234">[lastPersistedHeight &gt; 0]</text><path d="M449,644.3438 L449,699.3438 L638,699.3438 L638,654.3438 L628,644.3438 L449,644.3438 " fill="#FEFFDD" style="stroke:#181818;stroke-width:0.5;"/><path d="M628,644.3438 L628,654.3438 L638,654.3438 L628,644.3438 " fill="#FEFFDD" style="stroke:#181818;stroke-width:0.5;"/><text fill="#333333" font-family="sans-serif" font-size="13" lengthAdjust="spacing" textLength="148" x="455" y="661.9121">Block Persister is active</text><text fill="#333333" font-family="sans-serif" font-size="13" lengthAdjust="spacing" textLength="155" x="455" y="677.2227">Ignore Block notification</text><text fill="#333333" font-family="sans-serif" font-size="13" lengthAdjust="spacing" textLength="168" x="455" y="692.5332">Use BlockPersisted instead</text><line style="stroke:#666666;stroke-width:1.0;" x1="444.5" x2="486.5" y1="741.8965" y2="741.8965"/><line style="stroke:#666666;stroke-width:1.0;" x1="486.5" x2="486.5" y1="741.8965" y2="754.8965"/><line style="stroke:#666666;stroke-width:1.0;" x1="445.5" x2="486.5" y1="754.8965" y2="754.8965"/><polygon fill="#666666" points="455.5,750.8965,445.5,754.8965,455.5,758.8965,451.5,754.8965" style="stroke:#666666;stroke-width:1.0;"/><text fill="#333333" font-family="sans-serif" font-size="13" lengthAdjust="spacing" textLength="134" x="451.5" y="721.8438">Skip (already handled</text><text fill="#333333" font-family="sans-serif" font-size="13" lengthAdjust="spacing" textLength="114" x="451.5" y="737.1543">by BlockPersisted)</text><text fill="#333333" font-family="sans-serif" font-size="10" lengthAdjust="spacing" textLength="155" x="0" y="821.0527">Last Modified On: 01-Dec-2025</text><!--SRC=[bLDTQzim57tNhxXa39pGZC9WZ43wq0ulWwKhPErJe2ZMjIsYNWL9JWbZ_ttNYfquJbgO7cnqxZdtMtwjQIETV86LpDQ5inMfEskiWm_fTVerJOK_C1JciZ8XjHGQokTuEXJfd7rjZ5_Y4HqhVuFEz4PIW3y2uDOwXUwKpcW_aM_nYBz2T1qCRetDrl0aZLOoQ4i3a1uYUCGkAB9IQe85kgtEyAY9y2dzmLM4xeIwXuGW6n3ibgszW5SDPGAZKIgDgRiAlvqk2kOcztRFXmTqNlk0RZWQ2T7p0UERljj9eqihOtPjpQZUbiPo9fnxc6j2bQngS2PzUGN1LJXibFjcz4IFczhv7feiwQLsyEmnm3HgtvCka5IJwhqDEjTPJ6j9IT_BMGPjtyxLGZIJwB3kIcIMaJwqhLGpr4KPX90cN3B0T0hNl5u0SNWkOZRlnJqCfcO1cqXJ8QBic4ItukzSKRpFKF8oHsQtiBFAzZn8NdKeeOof3Vi1MiKJEftleDExTWIN-UsYrNVEUqavlvyu-YQIUAS1l9oPvHUfQRzAXAXGBOdnJxvQ1OVup8iX8TS6_PA2XOrZJraGQ3nUxFdDVxLSUv1Pq5jSqe-2h6jsi5PtLkdHD_WX66ZYdrHlT6MnrXj8f75CsK4fIPcwhjMkvsOeU7k5C9W7oAsjC_h9DS7SAWxFONxnl3_MRoCPA3MUp-VZ7P_1y1y0]--></g></svg>