<?xml version="1.0" encoding="us-ascii" standalone="no"?><svg xmlns="http://www.w3.org/2000/svg" xmlns:xlink="http://www.w3.org/1999/xlink" contentStyleType="text/css" height="1017px" preserveAspectRatio="none" style="width:702px;height:1017px;background:#FFFFFF;" version="1.1" viewBox="0 0 702 1017" width="702px" zoomAndPan="magnify"><defs/><g><text fill="#000000" font-family="Verdana" font-size="22" font-weight="bold" lengthAdjust="spacing" textLength="431" x="134" y="37.1182">Two-Phase Peer Selection Process</text><rect fill="#FFFFFF" height="821.1182" style="stroke:#000000;stroke-width:1.0;" width="10" x="312" y="133.5659"/><rect fill="#FFFFFF" height="29.7993" style="stroke:#000000;stroke-width:1.0;" width="10" x="529" y="163.3652"/><rect fill="#FFFFFF" height="553.9243" style="stroke:#000000;stroke-width:1.0;" width="670" x="15" y="393.7598"/><rect fill="#FFFFFF" height="357.5298" style="stroke:none;stroke-width:1.0;" width="670" x="15" y="590.1543"/><rect fill="#FFFFFF" height="284.3618" style="stroke:#000000;stroke-width:1.0;" width="650" x="25" y="656.3223"/><rect fill="#FFFFFF" height="45.168" style="stroke:none;stroke-width:1.0;" width="650" x="25" y="895.5161"/><line style="stroke:#000000;stroke-width:1.0;" x1="108" x2="108" y1="101.7666" y2="964.6841"/><line style="stroke:#000000;stroke-width:1.0;" x1="317" x2="317" y1="101.7666" y2="964.6841"/><line style="stroke:#000000;stroke-width:1.0;" x1="533.5" x2="533.5" y1="101.7666" y2="964.6841"/><rect fill="#FFFFFF" height="48.0293" rx="2.5" ry="2.5" style="stroke:#000000;stroke-width:1.0;" width="126" x="45" y="52.7373"/><text fill="#000000" font-family="Verdana" font-size="14" lengthAdjust="spacing" textLength="112" x="52" y="73.8125">Block Validation</text><text fill="#000000" font-family="Verdana" font-size="14" lengthAdjust="spacing" textLength="51" x="82.5" y="90.8271">Service</text><rect fill="#FFFFFF" height="48.0293" rx="2.5" ry="2.5" style="stroke:#000000;stroke-width:1.0;" width="126" x="45" y="963.6841"/><text fill="#000000" font-family="Verdana" font-size="14" lengthAdjust="spacing" textLength="112" x="52" y="984.7593">Block Validation</text><text fill="#000000" font-family="Verdana" font-size="14" lengthAdjust="spacing" textLength="51" x="82.5" y="1001.7739">Service</text><rect fill="#FFFFFF" height="31.0146" rx="2.5" ry="2.5" style="stroke:#000000;stroke-width:1.0;" width="106" x="264" y="69.752"/><text fill="#000000" font-family="Verdana" font-size="14" lengthAdjust="spacing" textLength="92" x="271" y="90.8271">Peer Selector</text><rect fill="#FFFFFF" height="31.0146" rx="2.5" ry="2.5" style="stroke:#000000;stroke-width:1.0;" width="106" x="264" y="963.6841"/><text fill="#000000" font-family="Verdana" font-size="14" lengthAdjust="spacing" textLength="92" x="271" y="984.7593">Peer Selector</text><rect fill="#FFFFFF" height="31.0146" rx="2.5" ry="2.5" style="stroke:#000000;stroke-width:1.0;" width="107" x="480.5" y="69.752"/><text fill="#000000" font-family="Verdana" font-size="14" lengthAdjust="spacing" textLength="93" x="487.5" y="90.8271">Peer Registry</text><rect fill="#FFFFFF" height="31.0146" rx="2.5" ry="2.5" style="stroke:#000000;stroke-width:1.0;" width="107" x="480.5" y="963.6841"/><text fill="#000000" font-family="Verdana" font-size="14" lengthAdjust="spacing" textLength="93" x="487.5" y="984.7593">Peer Registry</text><rect fill="#FFFFFF" height="821.1182" style="stroke:#000000;stroke-width:1.0;" width="10" x="312" y="133.5659"/><rect fill="#FFFFFF" height="29.7993" style="stroke:#000000;stroke-width:1.0;" width="10" x="529" y="163.3652"/><polygon fill="#000000" points="300,129.5659,310,133.5659,300,137.5659,304,133.5659" style="stroke:#000000;stroke-width:1.0;"/><line style="stroke:#000000;stroke-width:1.0;" x1="108" x2="306" y1="133.5659" y2="133.5659"/><text fill="#000000" font-family="Verdana" font-size="13" lengthAdjust="spacing" textLength="163" x="128.5" y="128.8364">SelectSyncPeer(criteria)</text><polygon fill="#000000" points="517,159.3652,527,163.3652,517,167.3652,521,163.3652" style="stroke:#000000;stroke-width:1.0;"/><line style="stroke:#000000;stroke-width:1.0;" x1="322" x2="523" y1="163.3652" y2="163.3652"/><text fill="#000000" font-family="Verdana" font-size="13" lengthAdjust="spacing" textLength="89" x="381" y="158.6357">GetAllPeers()</text><polygon fill="#000000" points="333,189.1646,323,193.1646,333,197.1646,329,193.1646" style="stroke:#000000;stroke-width:1.0;"/><line style="stroke:#000000;stroke-width:1.0;stroke-dasharray:2.0,2.0;" x1="327" x2="533" y1="193.1646" y2="193.1646"/><text fill="#000000" font-family="Verdana" font-size="13" lengthAdjust="spacing" textLength="68" x="394" y="188.4351">[]PeerInfo</text><rect fill="#FFFFFF" height="3" style="stroke:#FFFFFF;stroke-width:1.0;" width="690" x="5" y="222.0642"/><line style="stroke:#000000;stroke-width:0.5;" x1="5" x2="695" y1="222.0642" y2="222.0642"/><line style="stroke:#000000;stroke-width:0.5;" x1="5" x2="695" y1="225.0642" y2="225.0642"/><rect fill="#FFFFFF" height="23.7993" style="stroke:#000000;stroke-width:1.0;" width="223" x="238.5" y="211.1646"/><text fill="#000000" font-family="Verdana" font-size="13" font-weight="bold" lengthAdjust="spacing" textLength="205" x="244.5" y="228.2344">Phase 1: Full Node Selection</text><line style="stroke:#000000;stroke-width:1.0;" x1="322" x2="364" y1="294.8618" y2="294.8618"/><line style="stroke:#000000;stroke-width:1.0;" x1="364" x2="364" y1="294.8618" y2="307.8618"/><line style="stroke:#000000;stroke-width:1.0;" x1="323" x2="364" y1="307.8618" y2="307.8618"/><polygon fill="#000000" points="333,303.8618,323,307.8618,333,311.8618,329,307.8618" style="stroke:#000000;stroke-width:1.0;"/><text fill="#000000" font-family="Verdana" font-size="13" lengthAdjust="spacing" textLength="129" x="329" y="290.1323">Filter eligible peers</text><path d="M470,249.9639 L470,337.9639 L634,337.9639 L634,259.9639 L624,249.9639 L470,249.9639 " fill="#FFFFFF" style="stroke:#000000;stroke-width:1.0;"/><path d="M624,249.9639 L624,259.9639 L634,259.9639 L624,249.9639 " fill="#FFFFFF" style="stroke:#000000;stroke-width:1.0;"/><text fill="#000000" font-family="Verdana" font-size="13" lengthAdjust="spacing" textLength="87" x="476" y="268.0337">- Not banned</text><text fill="#000000" font-family="Verdana" font-size="13" lengthAdjust="spacing" textLength="129" x="476" y="283.833">- Has DataHub URL</text><text fill="#000000" font-family="Verdana" font-size="13" lengthAdjust="spacing" textLength="83" x="476" y="299.6323">- Height &gt; 0</text><text fill="#000000" font-family="Verdana" font-size="13" lengthAdjust="spacing" textLength="143" x="476" y="315.4316">- Reputation &gt;= 20.0</text><text fill="#000000" font-family="Verdana" font-size="13" lengthAdjust="spacing" textLength="118" x="476" y="331.231">- Not in cooldown</text><line style="stroke:#000000;stroke-width:1.0;" x1="322" x2="364" y1="365.7598" y2="365.7598"/><line style="stroke:#000000;stroke-width:1.0;" x1="364" x2="364" y1="365.7598" y2="378.7598"/><line style="stroke:#000000;stroke-width:1.0;" x1="323" x2="364" y1="378.7598" y2="378.7598"/><polygon fill="#000000" points="333,374.7598,323,378.7598,333,382.7598,329,378.7598" style="stroke:#000000;stroke-width:1.0;"/><text fill="#000000" font-family="Verdana" font-size="13" lengthAdjust="spacing" textLength="193" x="329" y="361.0303">Filter for "full" storage mode</text><path d="M15,393.7598 L79,393.7598 L79,401.5591 L69,411.5591 L15,411.5591 L15,393.7598 " fill="#FFFFFF" style="stroke:#000000;stroke-width:1.0;"/><rect fill="none" height="553.9243" style="stroke:#000000;stroke-width:1.0;" width="670" x="15" y="393.7598"/><text fill="#000000" font-family="Verdana" font-size="13" font-weight="bold" lengthAdjust="spacing" textLength="19" x="30" y="407.8296">alt</text><text fill="#000000" font-family="Verdana" font-size="11" font-weight="bold" lengthAdjust="spacing" textLength="136" x="94" y="406.8188">[Full nodes available]</text><line style="stroke:#000000;stroke-width:1.0;" x1="322" x2="364" y1="496.5557" y2="496.5557"/><line style="stroke:#000000;stroke-width:1.0;" x1="364" x2="364" y1="496.5557" y2="509.5557"/><line style="stroke:#000000;stroke-width:1.0;" x1="323" x2="364" y1="509.5557" y2="509.5557"/><polygon fill="#000000" points="333,505.5557,323,509.5557,333,513.5557,329,509.5557" style="stroke:#000000;stroke-width:1.0;"/><text fill="#000000" font-family="Verdana" font-size="13" lengthAdjust="spacing" textLength="55" x="369.5" y="428.6289">Sort by:</text><text fill="#000000" font-family="Verdana" font-size="13" lengthAdjust="spacing" textLength="136" x="329" y="444.4282">1. Reputation (desc)</text><text fill="#000000" font-family="Verdana" font-size="13" lengthAdjust="spacing" textLength="123" x="335.5" y="460.2275">2. Ban score (asc)</text><text fill="#000000" font-family="Verdana" font-size="13" lengthAdjust="spacing" textLength="108" x="343" y="476.0269">3. Height (desc)</text><text fill="#000000" font-family="Verdana" font-size="13" lengthAdjust="spacing" textLength="68" x="363" y="491.8262">4. Peer ID</text><line style="stroke:#000000;stroke-width:1.0;" x1="322" x2="364" y1="539.355" y2="539.355"/><line style="stroke:#000000;stroke-width:1.0;" x1="364" x2="364" y1="539.355" y2="552.355"/><line style="stroke:#000000;stroke-width:1.0;" x1="323" x2="364" y1="552.355" y2="552.355"/><polygon fill="#000000" points="333,548.355,323,552.355,333,556.355,329,552.355" style="stroke:#000000;stroke-width:1.0;"/><text fill="#000000" font-family="Verdana" font-size="13" lengthAdjust="spacing" textLength="136" x="329" y="534.6255">Select top candidate</text><polygon fill="#000000" points="119,578.1543,109,582.1543,119,586.1543,115,582.1543" style="stroke:#000000;stroke-width:1.0;"/><line style="stroke:#000000;stroke-width:1.0;stroke-dasharray:2.0,2.0;" x1="113" x2="311" y1="582.1543" y2="582.1543"/><text fill="#000000" font-family="Verdana" font-size="13" lengthAdjust="spacing" textLength="155" x="132.5" y="577.4248">Selected full node peer</text><line style="stroke:#000000;stroke-width:1.0;stroke-dasharray:2.0,2.0;" x1="15" x2="685" y1="591.1543" y2="591.1543"/><text fill="#000000" font-family="Verdana" font-size="11" font-weight="bold" lengthAdjust="spacing" textLength="155" x="20" y="602.2134">[No full nodes available]</text><rect fill="#FFFFFF" height="3" style="stroke:#FFFFFF;stroke-width:1.0;" width="690" x="5" y="626.4226"/><line style="stroke:#000000;stroke-width:0.5;" x1="5" x2="695" y1="626.4226" y2="626.4226"/><line style="stroke:#000000;stroke-width:0.5;" x1="5" x2="695" y1="629.4226" y2="629.4226"/><rect fill="#FFFFFF" height="23.7993" style="stroke:#000000;stroke-width:1.0;" width="243" x="228.5" y="615.5229"/><text fill="#000000" font-family="Verdana" font-size="13" font-weight="bold" lengthAdjust="spacing" textLength="225" x="234.5" y="632.5928">Phase 2: Pruned Node Fallback</text><path d="M25,656.3223 L89,656.3223 L89,664.1216 L79,674.1216 L25,674.1216 L25,656.3223 " fill="#FFFFFF" style="stroke:#000000;stroke-width:1.0;"/><rect fill="none" height="284.3618" style="stroke:#000000;stroke-width:1.0;" width="650" x="25" y="656.3223"/><text fill="#000000" font-family="Verdana" font-size="13" font-weight="bold" lengthAdjust="spacing" textLength="19" x="40" y="670.3921">alt</text><text fill="#000000" font-family="Verdana" font-size="11" font-weight="bold" lengthAdjust="spacing" textLength="115" x="104" y="669.3813">[Fallback enabled]</text><line style="stroke:#000000;stroke-width:1.0;" x1="322" x2="364" y1="695.9209" y2="695.9209"/><line style="stroke:#000000;stroke-width:1.0;" x1="364" x2="364" y1="695.9209" y2="708.9209"/><line style="stroke:#000000;stroke-width:1.0;" x1="323" x2="364" y1="708.9209" y2="708.9209"/><polygon fill="#000000" points="333,704.9209,323,708.9209,333,712.9209,329,708.9209" style="stroke:#000000;stroke-width:1.0;"/><text fill="#000000" font-family="Verdana" font-size="13" lengthAdjust="spacing" textLength="132" x="329" y="691.1914">Filter non-full peers</text><line style="stroke:#000000;stroke-width:1.0;" x1="322" x2="364" y1="801.9175" y2="801.9175"/><line style="stroke:#000000;stroke-width:1.0;" x1="364" x2="364" y1="801.9175" y2="814.9175"/><line style="stroke:#000000;stroke-width:1.0;" x1="323" x2="364" y1="814.9175" y2="814.9175"/><polygon fill="#000000" points="333,810.9175,323,814.9175,333,818.9175,329,814.9175" style="stroke:#000000;stroke-width:1.0;"/><text fill="#000000" font-family="Verdana" font-size="13" lengthAdjust="spacing" textLength="55" x="369.5" y="733.9907">Sort by:</text><text fill="#000000" font-family="Verdana" font-size="13" lengthAdjust="spacing" textLength="136" x="329" y="749.79">1. Reputation (desc)</text><text fill="#000000" font-family="Verdana" font-size="13" lengthAdjust="spacing" textLength="123" x="335.5" y="765.5894">2. Ban score (asc)</text><text fill="#000000" font-family="Verdana" font-size="13" lengthAdjust="spacing" textLength="100" x="347" y="781.3887">3. Height (asc)</text><text fill="#000000" font-family="Verdana" font-size="13" lengthAdjust="spacing" textLength="68" x="363" y="797.188">4. Peer ID</text><path d="M477,741.2202 L477,798.2202 L655,798.2202 L655,751.2202 L645,741.2202 L477,741.2202 " fill="#FFFFFF" style="stroke:#000000;stroke-width:1.0;"/><path d="M645,741.2202 L645,751.2202 L655,751.2202 L645,741.2202 " fill="#FFFFFF" style="stroke:#000000;stroke-width:1.0;"/><text fill="#000000" font-family="Verdana" font-size="13" lengthAdjust="spacing" textLength="157" x="483" y="759.29">Prefer youngest pruned</text><text fill="#000000" font-family="Verdana" font-size="13" lengthAdjust="spacing" textLength="123" x="483" y="775.0894">nodes to minimize</text><text fill="#000000" font-family="Verdana" font-size="13" lengthAdjust="spacing" textLength="122" x="483" y="790.8887">UTXO pruning risk</text><line style="stroke:#000000;stroke-width:1.0;" x1="322" x2="364" y1="844.7168" y2="844.7168"/><line style="stroke:#000000;stroke-width:1.0;" x1="364" x2="364" y1="844.7168" y2="857.7168"/><line style="stroke:#000000;stroke-width:1.0;" x1="323" x2="364" y1="857.7168" y2="857.7168"/><polygon fill="#000000" points="333,853.7168,323,857.7168,333,861.7168,329,857.7168" style="stroke:#000000;stroke-width:1.0;"/><text fill="#000000" font-family="Verdana" font-size="13" lengthAdjust="spacing" textLength="136" x="329" y="839.9873">Select top candidate</text><polygon fill="#000000" points="119,883.5161,109,887.5161,119,891.5161,115,887.5161" style="stroke:#000000;stroke-width:1.0;"/><line style="stroke:#000000;stroke-width:1.0;stroke-dasharray:2.0,2.0;" x1="113" x2="311" y1="887.5161" y2="887.5161"/><text fill="#000000" font-family="Verdana" font-size="13" lengthAdjust="spacing" textLength="180" x="120" y="882.7866">Selected pruned node peer</text><line style="stroke:#000000;stroke-width:1.0;stroke-dasharray:2.0,2.0;" x1="25" x2="675" y1="896.5161" y2="896.5161"/><text fill="#000000" font-family="Verdana" font-size="11" font-weight="bold" lengthAdjust="spacing" textLength="119" x="30" y="907.5752">[Fallback disabled]</text><polygon fill="#000000" points="119,928.6841,109,932.6841,119,936.6841,115,932.6841" style="stroke:#000000;stroke-width:1.0;"/><line style="stroke:#000000;stroke-width:1.0;stroke-dasharray:2.0,2.0;" x1="113" x2="311" y1="932.6841" y2="932.6841"/><text fill="#000000" font-family="Verdana" font-size="13" lengthAdjust="spacing" textLength="118" x="151" y="927.9546">No peer available</text><!--SRC=[fLF1RXen4BtxAwQSo054Q4z888L6D97Q5EqcA5BfmNY7nSACjxOXeb_ViHV8RikjHu-VtxnvR_mXR727K1cfIVYjfaewkOELLDlIsJqLdwsn3jusEc3ZtkElFPB2R-YzBF7Ew9908GLqGWGT3CBpc-tDDz8Zp14Tv6XG1Mq9viugVYO4KmMjT2KfG6TghDh2GXfTo0XRKexke1LsG7gOBjhe1gLr2J7Fho0oBBKFxbWZCY6c2-XD63iwFSwFf2AognmFwBIy4P9L7cJ0o2ZcUS9d8_Y2uSwOYFNT9YWJymnw9z8VFoFWaTPM5DZ4YF4OQZDkHp3R6mDFji26AUFnfHdppBHXDO1igrwnbrLiAyWocTFb9WY07ZC4pea8YtHyu17lPP0F-nMyP5_h6aOqJ62GZXbM-v3SXSaOXeF-u4AaEJvhJM7VI20L47jTKRJcNUYiMNy7F3lFqSEE1n52cb3FHNpq80zI6ydIkS4xIMuTIpwEbdJRRuhfyXDriwHX7wQIm2lh4BeorJxsprESKP_wzKOzthV9avSGR0LAKX7NwDoT4TF56O45hCz2ax423UVoPD_BJVrCSSbkEEBbtRFXTNepQKpyA2ayW6J1kOGKNyTacXfFBfAbNcfMvzh6_AT9yb-F05gRazevNFFraNzuYJv0bSOwNTOM10ixJNgdV-Ef_lBy-ZqXDPNCvhUfVjcMlyQu7iVrGEhsZKYODePoiRFGlktdYO5JY_ZMlh6WkCAYzGLpyGS0]--></g></svg>