<?xml version="1.0" encoding="us-ascii" standalone="no"?><svg xmlns="http://www.w3.org/2000/svg" xmlns:xlink="http://www.w3.org/1999/xlink" contentStyleType="text/css" height="928px" preserveAspectRatio="none" style="width:527px;height:928px;background:#FFFFFF;" version="1.1" viewBox="0 0 527 928" width="527px" zoomAndPan="magnify"><defs/><g><text fill="#000000" font-family="Verdana" font-size="22" font-weight="bold" lengthAdjust="spacing" textLength="494" x="15" y="37.1182">Reputation Score Calculation Algorithm</text><ellipse cx="154" cy="62.7373" fill="#FFFFFF" rx="10" ry="10" style="stroke:#000000;stroke-width:1.0;"/><rect fill="#F5F5F5" height="34.584" rx="12.5" ry="12.5" style="stroke:#333333;stroke-width:1.0;" width="125" x="91.5" y="92.7373"/><text fill="#000000" font-family="Verdana" font-size="12" lengthAdjust="spacing" textLength="105" x="101.5" y="114.8018">Receive peer data</text><rect fill="#F5F5F5" height="34.584" rx="12.5" ry="12.5" style="stroke:#333333;stroke-width:1.0;" width="113" x="97.5" y="196.0056"/><text fill="#000000" font-family="Verdana" font-size="12" lengthAdjust="spacing" textLength="93" x="107.5" y="218.0701">Set score = 5.0</text><ellipse cx="154" cy="269.7976" fill="none" rx="11" ry="11" style="stroke:#000000;stroke-width:1.0;"/><ellipse cx="154" cy="269.7976" fill="#FFFFFF" rx="6" ry="6" style="stroke:#000000;stroke-width:1.0;"/><polygon fill="#F5F5F5" points="97,147.3213,211,147.3213,223,159.3213,211,171.3213,97,171.3213,85,159.3213,97,147.3213" style="stroke:#333333;stroke-width:1.0;"/><text fill="#000000" font-family="Verdana" font-size="11" lengthAdjust="spacing" textLength="20" x="158" y="182.3804">yes</text><text fill="#000000" font-family="Verdana" font-size="11" lengthAdjust="spacing" textLength="114" x="97" y="163.696">MaliciousCount &gt; 0?</text><text fill="#000000" font-family="Verdana" font-size="11" lengthAdjust="spacing" textLength="14" x="223" y="157.0117">no</text><path d="M249.5,319.2903 L249.5,336.0896 L229.5,340.0896 L249.5,344.0896 L249.5,360.8889 A0,0 0 0 0 249.5,360.8889 L465.5,360.8889 A0,0 0 0 0 465.5,360.8889 L465.5,329.2903 L455.5,319.2903 L249.5,319.2903 A0,0 0 0 0 249.5,319.2903 " fill="#FFFFFF" style="stroke:#000000;stroke-width:1.0;"/><path d="M455.5,319.2903 L455.5,329.2903 L465.5,329.2903 L455.5,319.2903 " fill="#FFFFFF" style="stroke:#000000;stroke-width:1.0;"/><text fill="#000000" font-family="Verdana" font-size="13" lengthAdjust="spacing" textLength="97" x="255.5" y="337.3601">successRate =</text><text fill="#000000" font-family="Verdana" font-size="13" lengthAdjust="spacing" textLength="195" x="255.5" y="353.1594">(successes / attempts) * 100</text><rect fill="#F5F5F5" height="34.584" rx="12.5" ry="12.5" style="stroke:#333333;stroke-width:1.0;" width="151" x="78.5" y="322.7976"/><text fill="#000000" font-family="Verdana" font-size="12" lengthAdjust="spacing" textLength="131" x="88.5" y="344.8621">Calculate success rate</text><path d="M267.5,377.3816 L267.5,394.1809 L247.5,398.1809 L267.5,402.1809 L267.5,418.9802 A0,0 0 0 0 267.5,418.9802 L417.5,418.9802 A0,0 0 0 0 417.5,418.9802 L417.5,387.3816 L407.5,377.3816 L267.5,377.3816 A0,0 0 0 0 267.5,377.3816 " fill="#FFFFFF" style="stroke:#000000;stroke-width:1.0;"/><path d="M407.5,377.3816 L407.5,387.3816 L417.5,387.3816 L407.5,377.3816 " fill="#FFFFFF" style="stroke:#000000;stroke-width:1.0;"/><text fill="#000000" font-family="Verdana" font-size="13" lengthAdjust="spacing" textLength="129" x="273.5" y="395.4514">weightedSuccess =</text><text fill="#000000" font-family="Verdana" font-size="13" lengthAdjust="spacing" textLength="120" x="273.5" y="411.2507">successRate * 0.6</text><rect fill="#F5F5F5" height="34.584" rx="12.5" ry="12.5" style="stroke:#333333;stroke-width:1.0;" width="187" x="60.5" y="380.8889"/><text fill="#000000" font-family="Verdana" font-size="12" lengthAdjust="spacing" textLength="167" x="70.5" y="402.9534">Apply weighted success rate</text><path d="M257,435.4729 L257,452.2722 L237,456.2722 L257,460.2722 L257,477.0715 A0,0 0 0 0 257,477.0715 L464,477.0715 A0,0 0 0 0 464,477.0715 L464,445.4729 L454,435.4729 L257,435.4729 A0,0 0 0 0 257,435.4729 " fill="#FFFFFF" style="stroke:#000000;stroke-width:1.0;"/><path d="M454,435.4729 L454,445.4729 L464,445.4729 L454,435.4729 " fill="#FFFFFF" style="stroke:#000000;stroke-width:1.0;"/><text fill="#000000" font-family="Verdana" font-size="13" lengthAdjust="spacing" textLength="186" x="263" y="453.5427">score = weightedSuccess +</text><text fill="#000000" font-family="Verdana" font-size="13" lengthAdjust="spacing" textLength="80" x="263" y="469.342">(50.0 * 0.4)</text><rect fill="#F5F5F5" height="34.584" rx="12.5" ry="12.5" style="stroke:#333333;stroke-width:1.0;" width="166" x="71" y="438.9802"/><text fill="#000000" font-family="Verdana" font-size="12" lengthAdjust="spacing" textLength="146" x="81" y="461.0447">Add weighted base score</text><path d="M244.5,550.1482 L244.5,559.0479 L224.5,563.0479 L244.5,567.0479 L244.5,575.9475 A0,0 0 0 0 244.5,575.9475 L403.5,575.9475 A0,0 0 0 0 403.5,575.9475 L403.5,560.1482 L393.5,550.1482 L244.5,550.1482 A0,0 0 0 0 244.5,550.1482 " fill="#FFFFFF" style="stroke:#000000;stroke-width:1.0;"/><path d="M393.5,550.1482 L393.5,560.1482 L403.5,560.1482 L393.5,550.1482 " fill="#FFFFFF" style="stroke:#000000;stroke-width:1.0;"/><text fill="#000000" font-family="Verdana" font-size="13" lengthAdjust="spacing" textLength="138" x="250.5" y="568.218">score = score - 15.0</text><rect fill="#F5F5F5" height="34.584" rx="12.5" ry="12.5" style="stroke:#333333;stroke-width:1.0;" width="141" x="83.5" y="545.7559"/><text fill="#000000" font-family="Verdana" font-size="12" lengthAdjust="spacing" textLength="121" x="93.5" y="567.8203">Apply failure penalty</text><polygon fill="#F5F5F5" points="86.5,497.0715,221.5,497.0715,233.5,509.0715,221.5,521.0715,86.5,521.0715,74.5,509.0715,86.5,497.0715" style="stroke:#333333;stroke-width:1.0;"/><text fill="#000000" font-family="Verdana" font-size="11" lengthAdjust="spacing" textLength="20" x="158" y="532.1306">yes</text><text fill="#000000" font-family="Verdana" font-size="11" lengthAdjust="spacing" textLength="135" x="86.5" y="513.4463">Failure within last hour?</text><text fill="#000000" font-family="Verdana" font-size="11" lengthAdjust="spacing" textLength="14" x="233.5" y="506.762">no</text><polygon fill="#F5F5F5" points="154,600.3398,166,612.3398,154,624.3398,142,612.3398,154,600.3398" style="stroke:#333333;stroke-width:1.0;"/><path d="M240,697.4165 L240,706.3162 L220,710.3162 L240,714.3162 L240,723.2158 A0,0 0 0 0 240,723.2158 L404,723.2158 A0,0 0 0 0 404,723.2158 L404,707.4165 L394,697.4165 L240,697.4165 A0,0 0 0 0 240,697.4165 " fill="#FFFFFF" style="stroke:#000000;stroke-width:1.0;"/><path d="M394,697.4165 L394,707.4165 L404,707.4165 L394,697.4165 " fill="#FFFFFF" style="stroke:#000000;stroke-width:1.0;"/><text fill="#000000" font-family="Verdana" font-size="13" lengthAdjust="spacing" textLength="143" x="246" y="715.4863">score = score + 10.0</text><rect fill="#F5F5F5" height="34.584" rx="12.5" ry="12.5" style="stroke:#333333;stroke-width:1.0;" width="132" x="88" y="693.0242"/><text fill="#000000" font-family="Verdana" font-size="12" lengthAdjust="spacing" textLength="112" x="98" y="715.0886">Add recency bonus</text><polygon fill="#F5F5F5" points="82.5,644.3398,225.5,644.3398,237.5,656.3398,225.5,668.3398,82.5,668.3398,70.5,656.3398,82.5,644.3398" style="stroke:#333333;stroke-width:1.0;"/><text fill="#000000" font-family="Verdana" font-size="11" lengthAdjust="spacing" textLength="20" x="158" y="679.3989">yes</text><text fill="#000000" font-family="Verdana" font-size="11" lengthAdjust="spacing" textLength="143" x="82.5" y="660.7146">Success within last hour?</text><text fill="#000000" font-family="Verdana" font-size="11" lengthAdjust="spacing" textLength="14" x="237.5" y="654.0303">no</text><polygon fill="#F5F5F5" points="154,747.6082,166,759.6082,154,771.6082,142,759.6082,154,747.6082" style="stroke:#333333;stroke-width:1.0;"/><rect fill="#F5F5F5" height="34.584" rx="12.5" ry="12.5" style="stroke:#333333;stroke-width:1.0;" width="149" x="79.5" y="791.6082"/><text fill="#000000" font-family="Verdana" font-size="12" lengthAdjust="spacing" textLength="129" x="89.5" y="813.6726">Clamp score to 0-100</text><rect fill="#F5F5F5" height="34.584" rx="12.5" ry="12.5" style="stroke:#333333;stroke-width:1.0;" width="125" x="91.5" y="846.1921"/><text fill="#000000" font-family="Verdana" font-size="12" lengthAdjust="spacing" textLength="105" x="101.5" y="868.2566">Return final score</text><ellipse cx="154" cy="911.7761" fill="none" rx="11" ry="11" style="stroke:#000000;stroke-width:1.0;"/><ellipse cx="154" cy="911.7761" fill="#FFFFFF" rx="6" ry="6" style="stroke:#000000;stroke-width:1.0;"/><line style="stroke:#000000;stroke-width:1.0;" x1="154" x2="154" y1="72.7373" y2="92.7373"/><polygon fill="#000000" points="150,82.7373,154,92.7373,158,82.7373,154,86.7373" style="stroke:#000000;stroke-width:1.0;"/><line style="stroke:#000000;stroke-width:1.0;" x1="154" x2="154" y1="230.5896" y2="258.7976"/><polygon fill="#000000" points="150,248.7976,154,258.7976,158,248.7976,154,252.7976" style="stroke:#000000;stroke-width:1.0;"/><line style="stroke:#000000;stroke-width:1.0;" x1="154" x2="154" y1="171.3213" y2="196.0056"/><polygon fill="#000000" points="150,186.0056,154,196.0056,158,186.0056,154,190.0056" style="stroke:#000000;stroke-width:1.0;"/><line style="stroke:#000000;stroke-width:1.0;" x1="223" x2="235" y1="159.3213" y2="159.3213"/><polygon fill="#000000" points="231,228.7976,235,238.7976,239,228.7976,235,232.7976" style="stroke:#000000;stroke-width:1.0;"/><line style="stroke:#000000;stroke-width:1.0;" x1="235" x2="235" y1="159.3213" y2="302.7976"/><line style="stroke:#000000;stroke-width:1.0;" x1="235" x2="154" y1="302.7976" y2="302.7976"/><line style="stroke:#000000;stroke-width:1.0;" x1="154" x2="154" y1="302.7976" y2="322.7976"/><polygon fill="#000000" points="150,312.7976,154,322.7976,158,312.7976,154,316.7976" style="stroke:#000000;stroke-width:1.0;"/><line style="stroke:#000000;stroke-width:1.0;" x1="154" x2="154" y1="127.3213" y2="147.3213"/><polygon fill="#000000" points="150,137.3213,154,147.3213,158,137.3213,154,141.3213" style="stroke:#000000;stroke-width:1.0;"/><line style="stroke:#000000;stroke-width:1.0;" x1="154" x2="154" y1="357.3816" y2="380.8889"/><polygon fill="#000000" points="150,370.8889,154,380.8889,158,370.8889,154,374.8889" style="stroke:#000000;stroke-width:1.0;"/><line style="stroke:#000000;stroke-width:1.0;" x1="154" x2="154" y1="415.4729" y2="438.9802"/><polygon fill="#000000" points="150,428.9802,154,438.9802,158,428.9802,154,432.9802" style="stroke:#000000;stroke-width:1.0;"/><line style="stroke:#000000;stroke-width:1.0;" x1="154" x2="154" y1="521.0715" y2="545.7559"/><polygon fill="#000000" points="150,535.7559,154,545.7559,158,535.7559,154,539.7559" style="stroke:#000000;stroke-width:1.0;"/><line style="stroke:#000000;stroke-width:1.0;" x1="233.5" x2="413.5" y1="509.0715" y2="509.0715"/><polygon fill="#000000" points="409.5,553.0479,413.5,563.0479,417.5,553.0479,413.5,557.0479" style="stroke:#000000;stroke-width:1.0;"/><line style="stroke:#000000;stroke-width:1.0;" x1="413.5" x2="413.5" y1="509.0715" y2="612.3398"/><line style="stroke:#000000;stroke-width:1.0;" x1="413.5" x2="166" y1="612.3398" y2="612.3398"/><polygon fill="#000000" points="176,608.3398,166,612.3398,176,616.3398,172,612.3398" style="stroke:#000000;stroke-width:1.0;"/><line style="stroke:#000000;stroke-width:1.0;" x1="154" x2="154" y1="580.3398" y2="600.3398"/><polygon fill="#000000" points="150,590.3398,154,600.3398,158,590.3398,154,594.3398" style="stroke:#000000;stroke-width:1.0;"/><line style="stroke:#000000;stroke-width:1.0;" x1="154" x2="154" y1="473.5642" y2="497.0715"/><polygon fill="#000000" points="150,487.0715,154,497.0715,158,487.0715,154,491.0715" style="stroke:#000000;stroke-width:1.0;"/><line style="stroke:#000000;stroke-width:1.0;" x1="154" x2="154" y1="668.3398" y2="693.0242"/><polygon fill="#000000" points="150,683.0242,154,693.0242,158,683.0242,154,687.0242" style="stroke:#000000;stroke-width:1.0;"/><line style="stroke:#000000;stroke-width:1.0;" x1="237.5" x2="414" y1="656.3398" y2="656.3398"/><polygon fill="#000000" points="410,700.3162,414,710.3162,418,700.3162,414,704.3162" style="stroke:#000000;stroke-width:1.0;"/><line style="stroke:#000000;stroke-width:1.0;" x1="414" x2="414" y1="656.3398" y2="759.6082"/><line style="stroke:#000000;stroke-width:1.0;" x1="414" x2="166" y1="759.6082" y2="759.6082"/><polygon fill="#000000" points="176,755.6082,166,759.6082,176,763.6082,172,759.6082" style="stroke:#000000;stroke-width:1.0;"/><line style="stroke:#000000;stroke-width:1.0;" x1="154" x2="154" y1="727.6082" y2="747.6082"/><polygon fill="#000000" points="150,737.6082,154,747.6082,158,737.6082,154,741.6082" style="stroke:#000000;stroke-width:1.0;"/><line style="stroke:#000000;stroke-width:1.0;" x1="154" x2="154" y1="624.3398" y2="644.3398"/><polygon fill="#000000" points="150,634.3398,154,644.3398,158,634.3398,154,638.3398" style="stroke:#000000;stroke-width:1.0;"/><line style="stroke:#000000;stroke-width:1.0;" x1="154" x2="154" y1="771.6082" y2="791.6082"/><polygon fill="#000000" points="150,781.6082,154,791.6082,158,781.6082,154,785.6082" style="stroke:#000000;stroke-width:1.0;"/><line style="stroke:#000000;stroke-width:1.0;" x1="154" x2="154" y1="826.1921" y2="846.1921"/><polygon fill="#000000" points="150,836.1921,154,846.1921,158,836.1921,154,840.1921" style="stroke:#000000;stroke-width:1.0;"/><line style="stroke:#000000;stroke-width:1.0;" x1="154" x2="154" y1="880.7761" y2="900.7761"/><polygon fill="#000000" points="150,890.7761,154,900.7761,158,890.7761,154,894.7761" style="stroke:#000000;stroke-width:1.0;"/><!--SRC=[XLB1Rjim3BthApZi4hTewcBB3WcoeWkmsox95oWo7HEL9K6Y6lZlHpdEsgR5OXqCaO-Fxv7wmXts2C5gSYezamiwwXxssZmVei-ksNZh8nmxOdoJruRfXNZuTO7xsYxA-GpfOuDnGdqRFwMOs29iCMJMJDx1plY8iD7MP7kAFDc3ZyHThrHY7LcfvHODqek8HepGQDOhfQY5sHzjoP3FQIE267v2_LY1-7Cm6p1L2c2vGuOqzbZ3Obwl99RO1uKs8SoShnIwXbffSjQ0aB8nc194kQoKynAATEYur9vIsm9Rotqs1J31FMXcx0Ed2cxWeQuBCvHg8NyAmGvmn4A3pVywd36x2RA-w7e3zVp7E-gcUINUQx4r-hqKFitWalwsc5ZKytea_bwzOIuJ_gt9PYayoaB8WTM9eVCvVfZpoM0xmGCwRNaeqtwdubN7wNy73x8KIVph-c4lHSLPx7KLCeieZyMP0VRUvNHLmQriweg2vSRgFanuzb3VoN9NuxFa71sq96RFGrVZw_eB]--></g></svg>