<?xml version="1.0" encoding="us-ascii" standalone="no"?><svg xmlns="http://www.w3.org/2000/svg" xmlns:xlink="http://www.w3.org/1999/xlink" contentStyleType="text/css" height="1491px" preserveAspectRatio="none" style="width:861px;height:1491px;background:#FFFFFF;" version="1.1" viewBox="0 0 861 1491" width="861px" zoomAndPan="magnify"><defs/><g><text fill="#000000" font-family="Verdana" font-size="22" font-weight="bold" lengthAdjust="spacing" textLength="828" x="15" y="37.1182">Sync Coordination: Block Validation and Peer Registry Integration</text><rect fill="#FFFFFF" height="35.7993" style="stroke:#000000;stroke-width:1.0;" width="10" x="523.75" y="383.1611"/><rect fill="#FFFFFF" height="164.1973" style="stroke:#000000;stroke-width:1.0;" width="10" x="523.75" y="607.7563"/><rect fill="#FFFFFF" height="78.5986" style="stroke:#000000;stroke-width:1.0;" width="10" x="523.75" y="824.1216"/><rect fill="#FFFFFF" height="121.3979" style="stroke:#000000;stroke-width:1.0;" width="10" x="523.75" y="1037.2861"/><rect fill="#FFFFFF" height="121.3979" style="stroke:#000000;stroke-width:1.0;" width="10" x="523.75" y="1291.8813"/><rect fill="#FFFFFF" height="54.5986" style="stroke:#000000;stroke-width:1.0;" width="10" x="740.75" y="455.7598"/><rect fill="#FFFFFF" height="748.5229" style="stroke:#000000;stroke-width:1.0;" width="781.5" x="38.75" y="470.7598"/><rect fill="#FFFFFF" height="395.1611" style="stroke:#000000;stroke-width:1.0;" width="681" x="48.75" y="568.1577"/><rect fill="#FFFFFF" height="176.3652" style="stroke:none;stroke-width:1.0;" width="681" x="48.75" y="786.9536"/><rect fill="#FFFFFF" height="248.9639" style="stroke:none;stroke-width:1.0;" width="781.5" x="38.75" y="970.3188"/><line style="stroke:#000000;stroke-width:1.0;" x1="131.75" x2="131.75" y1="101.7666" y2="1438.2793"/><line style="stroke:#000000;stroke-width:1.0;" x1="344.75" x2="344.75" y1="101.7666" y2="1438.2793"/><line style="stroke:#000000;stroke-width:1.0;" x1="528.25" x2="528.25" y1="101.7666" y2="1438.2793"/><line style="stroke:#000000;stroke-width:1.0;" x1="745.25" x2="745.25" y1="101.7666" y2="1438.2793"/><rect fill="#FFFFFF" height="48.0293" rx="2.5" ry="2.5" style="stroke:#000000;stroke-width:1.0;" width="126" x="68.75" y="52.7373"/><text fill="#000000" font-family="Verdana" font-size="14" lengthAdjust="spacing" textLength="112" x="75.75" y="73.8125">Block Validation</text><text fill="#000000" font-family="Verdana" font-size="14" lengthAdjust="spacing" textLength="51" x="106.25" y="90.8271">Service</text><rect fill="#FFFFFF" height="48.0293" rx="2.5" ry="2.5" style="stroke:#000000;stroke-width:1.0;" width="126" x="68.75" y="1437.2793"/><text fill="#000000" font-family="Verdana" font-size="14" lengthAdjust="spacing" textLength="112" x="75.75" y="1458.3545">Block Validation</text><text fill="#000000" font-family="Verdana" font-size="14" lengthAdjust="spacing" textLength="51" x="106.25" y="1475.3691">Service</text><rect fill="#FFFFFF" height="31.0146" rx="2.5" ry="2.5" style="stroke:#000000;stroke-width:1.0;" width="106" x="291.75" y="69.752"/><text fill="#000000" font-family="Verdana" font-size="14" lengthAdjust="spacing" textLength="92" x="298.75" y="90.8271">Peer Selector</text><rect fill="#FFFFFF" height="31.0146" rx="2.5" ry="2.5" style="stroke:#000000;stroke-width:1.0;" width="106" x="291.75" y="1437.2793"/><text fill="#000000" font-family="Verdana" font-size="14" lengthAdjust="spacing" textLength="92" x="298.75" y="1458.3545">Peer Selector</text><rect fill="#FFFFFF" height="31.0146" rx="2.5" ry="2.5" style="stroke:#000000;stroke-width:1.0;" width="107" x="475.25" y="69.752"/><text fill="#000000" font-family="Verdana" font-size="14" lengthAdjust="spacing" textLength="93" x="482.25" y="90.8271">Peer Registry</text><rect fill="#FFFFFF" height="31.0146" rx="2.5" ry="2.5" style="stroke:#000000;stroke-width:1.0;" width="107" x="475.25" y="1437.2793"/><text fill="#000000" font-family="Verdana" font-size="14" lengthAdjust="spacing" textLength="93" x="482.25" y="1458.3545">Peer Registry</text><rect fill="#FFFFFF" height="31.0146" rx="2.5" ry="2.5" style="stroke:#000000;stroke-width:1.0;" width="109" x="691.25" y="69.752"/><text fill="#000000" font-family="Verdana" font-size="14" lengthAdjust="spacing" textLength="95" x="698.25" y="90.8271">Selected Peer</text><rect fill="#FFFFFF" height="31.0146" rx="2.5" ry="2.5" style="stroke:#000000;stroke-width:1.0;" width="109" x="691.25" y="1437.2793"/><text fill="#000000" font-family="Verdana" font-size="14" lengthAdjust="spacing" textLength="95" x="698.25" y="1458.3545">Selected Peer</text><rect fill="#FFFFFF" height="35.7993" style="stroke:#000000;stroke-width:1.0;" width="10" x="523.75" y="383.1611"/><rect fill="#FFFFFF" height="164.1973" style="stroke:#000000;stroke-width:1.0;" width="10" x="523.75" y="607.7563"/><rect fill="#FFFFFF" height="78.5986" style="stroke:#000000;stroke-width:1.0;" width="10" x="523.75" y="824.1216"/><rect fill="#FFFFFF" height="121.3979" style="stroke:#000000;stroke-width:1.0;" width="10" x="523.75" y="1037.2861"/><rect fill="#FFFFFF" height="121.3979" style="stroke:#000000;stroke-width:1.0;" width="10" x="523.75" y="1291.8813"/><rect fill="#FFFFFF" height="54.5986" style="stroke:#000000;stroke-width:1.0;" width="10" x="740.75" y="455.7598"/><rect fill="#FFFFFF" height="3" style="stroke:#FFFFFF;stroke-width:1.0;" width="801.5" x="28.75" y="132.6663"/><line style="stroke:#000000;stroke-width:0.5;" x1="28.75" x2="830.25" y1="132.6663" y2="132.6663"/><line style="stroke:#000000;stroke-width:0.5;" x1="28.75" x2="830.25" y1="135.6663" y2="135.6663"/><rect fill="#FFFFFF" height="23.7993" style="stroke:#000000;stroke-width:1.0;" width="173" x="343" y="121.7666"/><text fill="#000000" font-family="Verdana" font-size="13" font-weight="bold" lengthAdjust="spacing" textLength="155" x="349" y="138.8364">Catchup Initialization</text><polygon fill="#000000" points="332.75,173.3652,342.75,177.3652,332.75,181.3652,336.75,177.3652" style="stroke:#000000;stroke-width:1.0;"/><line style="stroke:#000000;stroke-width:1.0;" x1="131.75" x2="338.75" y1="177.3652" y2="177.3652"/><text fill="#000000" font-family="Verdana" font-size="13" lengthAdjust="spacing" textLength="189" x="143.75" y="172.6357">SelectSyncPeer(localHeight)</text><polygon fill="#000000" points="516.75,203.1646,526.75,207.1646,516.75,211.1646,520.75,207.1646" style="stroke:#000000;stroke-width:1.0;"/><line style="stroke:#000000;stroke-width:1.0;" x1="344.75" x2="522.75" y1="207.1646" y2="207.1646"/><text fill="#000000" font-family="Verdana" font-size="13" lengthAdjust="spacing" textLength="89" x="392.25" y="202.4351">GetAllPeers()</text><polygon fill="#000000" points="355.75,232.9639,345.75,236.9639,355.75,240.9639,351.75,236.9639" style="stroke:#000000;stroke-width:1.0;"/><line style="stroke:#000000;stroke-width:1.0;stroke-dasharray:2.0,2.0;" x1="349.75" x2="527.75" y1="236.9639" y2="236.9639"/><text fill="#000000" font-family="Verdana" font-size="13" lengthAdjust="spacing" textLength="55" x="409.25" y="232.2344">Peer list</text><line style="stroke:#000000;stroke-width:1.0;" x1="344.75" x2="386.75" y1="266.7632" y2="266.7632"/><line style="stroke:#000000;stroke-width:1.0;" x1="386.75" x2="386.75" y1="266.7632" y2="279.7632"/><line style="stroke:#000000;stroke-width:1.0;" x1="345.75" x2="386.75" y1="279.7632" y2="279.7632"/><polygon fill="#000000" points="355.75,275.7632,345.75,279.7632,355.75,283.7632,351.75,279.7632" style="stroke:#000000;stroke-width:1.0;"/><text fill="#000000" font-family="Verdana" font-size="13" lengthAdjust="spacing" textLength="170" x="351.75" y="262.0337">Apply selection algorithm</text><polygon fill="#000000" points="142.75,305.5625,132.75,309.5625,142.75,313.5625,138.75,309.5625" style="stroke:#000000;stroke-width:1.0;"/><line style="stroke:#000000;stroke-width:1.0;stroke-dasharray:2.0,2.0;" x1="136.75" x2="343.75" y1="309.5625" y2="309.5625"/><text fill="#000000" font-family="Verdana" font-size="13" lengthAdjust="spacing" textLength="123" x="176.75" y="304.833">Best peer for sync</text><rect fill="#FFFFFF" height="3" style="stroke:#FFFFFF;stroke-width:1.0;" width="801.5" x="28.75" y="338.4622"/><line style="stroke:#000000;stroke-width:0.5;" x1="28.75" x2="830.25" y1="338.4622" y2="338.4622"/><line style="stroke:#000000;stroke-width:0.5;" x1="28.75" x2="830.25" y1="341.4622" y2="341.4622"/><rect fill="#FFFFFF" height="23.7993" style="stroke:#000000;stroke-width:1.0;" width="127" x="366" y="327.5625"/><text fill="#000000" font-family="Verdana" font-size="13" font-weight="bold" lengthAdjust="spacing" textLength="109" x="372" y="344.6323">Block Retrieval</text><polygon fill="#000000" points="511.75,379.1611,521.75,383.1611,511.75,387.1611,515.75,383.1611" style="stroke:#000000;stroke-width:1.0;"/><line style="stroke:#000000;stroke-width:1.0;" x1="131.75" x2="517.75" y1="383.1611" y2="383.1611"/><text fill="#000000" font-family="Verdana" font-size="13" lengthAdjust="spacing" textLength="188" x="233.75" y="378.4316">RecordSyncAttempt(peerID)</text><line style="stroke:#000000;stroke-width:1.0;" x1="533.75" x2="575.75" y1="417.9604" y2="417.9604"/><line style="stroke:#000000;stroke-width:1.0;" x1="575.75" x2="575.75" y1="417.9604" y2="430.9604"/><line style="stroke:#000000;stroke-width:1.0;" x1="528.75" x2="575.75" y1="430.9604" y2="430.9604"/><polygon fill="#000000" points="538.75,426.9604,528.75,430.9604,538.75,434.9604,534.75,430.9604" style="stroke:#000000;stroke-width:1.0;"/><text fill="#000000" font-family="Verdana" font-size="13" lengthAdjust="spacing" textLength="180" x="540.75" y="413.231">Update attempt timestamp</text><polygon fill="#000000" points="728.75,451.7598,738.75,455.7598,728.75,459.7598,732.75,455.7598" style="stroke:#000000;stroke-width:1.0;"/><line style="stroke:#000000;stroke-width:1.0;" x1="131.75" x2="734.75" y1="455.7598" y2="455.7598"/><text fill="#000000" font-family="Verdana" font-size="13" lengthAdjust="spacing" textLength="142" x="365.25" y="451.0303">RequestBlock(height)</text><path d="M38.75,470.7598 L102.75,470.7598 L102.75,478.5591 L92.75,488.5591 L38.75,488.5591 L38.75,470.7598 " fill="#FFFFFF" style="stroke:#000000;stroke-width:1.0;"/><rect fill="none" height="748.5229" style="stroke:#000000;stroke-width:1.0;" width="781.5" x="38.75" y="470.7598"/><text fill="#000000" font-family="Verdana" font-size="13" font-weight="bold" lengthAdjust="spacing" textLength="19" x="53.75" y="484.8296">alt</text><text fill="#000000" font-family="Verdana" font-size="11" font-weight="bold" lengthAdjust="spacing" textLength="61" x="117.75" y="483.8188">[Success]</text><polygon fill="#000000" points="142.75,506.3584,132.75,510.3584,142.75,514.3584,138.75,510.3584" style="stroke:#000000;stroke-width:1.0;"/><line style="stroke:#000000;stroke-width:1.0;stroke-dasharray:2.0,2.0;" x1="136.75" x2="744.75" y1="510.3584" y2="510.3584"/><text fill="#000000" font-family="Verdana" font-size="13" lengthAdjust="spacing" textLength="70" x="403.75" y="505.6289">Block data</text><line style="stroke:#000000;stroke-width:1.0;" x1="131.75" x2="173.75" y1="540.1577" y2="540.1577"/><line style="stroke:#000000;stroke-width:1.0;" x1="173.75" x2="173.75" y1="540.1577" y2="553.1577"/><line style="stroke:#000000;stroke-width:1.0;" x1="132.75" x2="173.75" y1="553.1577" y2="553.1577"/><polygon fill="#000000" points="142.75,549.1577,132.75,553.1577,142.75,557.1577,138.75,553.1577" style="stroke:#000000;stroke-width:1.0;"/><text fill="#000000" font-family="Verdana" font-size="13" lengthAdjust="spacing" textLength="94" x="138.75" y="535.4282">Validate block</text><path d="M48.75,568.1577 L112.75,568.1577 L112.75,575.957 L102.75,585.957 L48.75,585.957 L48.75,568.1577 " fill="#FFFFFF" style="stroke:#000000;stroke-width:1.0;"/><rect fill="none" height="395.1611" style="stroke:#000000;stroke-width:1.0;" width="681" x="48.75" y="568.1577"/><text fill="#000000" font-family="Verdana" font-size="13" font-weight="bold" lengthAdjust="spacing" textLength="19" x="63.75" y="582.2275">alt</text><text fill="#000000" font-family="Verdana" font-size="11" font-weight="bold" lengthAdjust="spacing" textLength="79" x="127.75" y="581.2168">[Block valid]</text><polygon fill="#000000" points="511.75,603.7563,521.75,607.7563,511.75,611.7563,515.75,607.7563" style="stroke:#000000;stroke-width:1.0;"/><line style="stroke:#000000;stroke-width:1.0;" x1="131.75" x2="517.75" y1="607.7563" y2="607.7563"/><text fill="#000000" font-family="Verdana" font-size="13" lengthAdjust="spacing" textLength="257" x="199.25" y="603.0269">ReportSuccess(peerID, responseTime)</text><line style="stroke:#000000;stroke-width:1.0;" x1="533.75" x2="575.75" y1="637.5557" y2="637.5557"/><line style="stroke:#000000;stroke-width:1.0;" x1="575.75" x2="575.75" y1="637.5557" y2="650.5557"/><line style="stroke:#000000;stroke-width:1.0;" x1="534.75" x2="575.75" y1="650.5557" y2="650.5557"/><polygon fill="#000000" points="544.75,646.5557,534.75,650.5557,544.75,654.5557,540.75,650.5557" style="stroke:#000000;stroke-width:1.0;"/><text fill="#000000" font-family="Verdana" font-size="13" lengthAdjust="spacing" textLength="139" x="540.75" y="632.8262">Increment successes</text><line style="stroke:#000000;stroke-width:1.0;" x1="533.75" x2="575.75" y1="680.355" y2="680.355"/><line style="stroke:#000000;stroke-width:1.0;" x1="575.75" x2="575.75" y1="680.355" y2="693.355"/><line style="stroke:#000000;stroke-width:1.0;" x1="534.75" x2="575.75" y1="693.355" y2="693.355"/><polygon fill="#000000" points="544.75,689.355,534.75,693.355,544.75,697.355,540.75,693.355" style="stroke:#000000;stroke-width:1.0;"/><text fill="#000000" font-family="Verdana" font-size="13" lengthAdjust="spacing" textLength="176" x="540.75" y="675.6255">Update avg response time</text><line style="stroke:#000000;stroke-width:1.0;" x1="533.75" x2="575.75" y1="723.1543" y2="723.1543"/><line style="stroke:#000000;stroke-width:1.0;" x1="575.75" x2="575.75" y1="723.1543" y2="736.1543"/><line style="stroke:#000000;stroke-width:1.0;" x1="534.75" x2="575.75" y1="736.1543" y2="736.1543"/><polygon fill="#000000" points="544.75,732.1543,534.75,736.1543,544.75,740.1543,540.75,736.1543" style="stroke:#000000;stroke-width:1.0;"/><text fill="#000000" font-family="Verdana" font-size="13" lengthAdjust="spacing" textLength="177" x="540.75" y="718.4248">Increment blocks received</text><line style="stroke:#000000;stroke-width:1.0;" x1="533.75" x2="575.75" y1="770.9536" y2="770.9536"/><line style="stroke:#000000;stroke-width:1.0;" x1="575.75" x2="575.75" y1="770.9536" y2="783.9536"/><line style="stroke:#000000;stroke-width:1.0;" x1="528.75" x2="575.75" y1="783.9536" y2="783.9536"/><polygon fill="#000000" points="538.75,779.9536,528.75,783.9536,538.75,787.9536,534.75,783.9536" style="stroke:#000000;stroke-width:1.0;"/><text fill="#000000" font-family="Verdana" font-size="13" lengthAdjust="spacing" textLength="149" x="540.75" y="766.2241">Recalculate reputation</text><line style="stroke:#000000;stroke-width:1.0;stroke-dasharray:2.0,2.0;" x1="48.75" x2="729.75" y1="787.9536" y2="787.9536"/><text fill="#000000" font-family="Verdana" font-size="11" font-weight="bold" lengthAdjust="spacing" textLength="91" x="53.75" y="799.0127">[Block invalid]</text><polygon fill="#000000" points="511.75,820.1216,521.75,824.1216,511.75,828.1216,515.75,824.1216" style="stroke:#000000;stroke-width:1.0;"/><line style="stroke:#000000;stroke-width:1.0;" x1="131.75" x2="517.75" y1="824.1216" y2="824.1216"/><text fill="#000000" font-family="Verdana" font-size="13" lengthAdjust="spacing" textLength="162" x="246.75" y="819.3921">ReportMalicious(peerID)</text><line style="stroke:#000000;stroke-width:1.0;" x1="533.75" x2="575.75" y1="853.9209" y2="853.9209"/><line style="stroke:#000000;stroke-width:1.0;" x1="575.75" x2="575.75" y1="853.9209" y2="866.9209"/><line style="stroke:#000000;stroke-width:1.0;" x1="534.75" x2="575.75" y1="866.9209" y2="866.9209"/><polygon fill="#000000" points="544.75,862.9209,534.75,866.9209,544.75,870.9209,540.75,866.9209" style="stroke:#000000;stroke-width:1.0;"/><text fill="#000000" font-family="Verdana" font-size="13" lengthAdjust="spacing" textLength="177" x="540.75" y="849.1914">Increment malicious count</text><line style="stroke:#000000;stroke-width:1.0;" x1="533.75" x2="575.75" y1="901.7202" y2="901.7202"/><line style="stroke:#000000;stroke-width:1.0;" x1="575.75" x2="575.75" y1="901.7202" y2="914.7202"/><line style="stroke:#000000;stroke-width:1.0;" x1="528.75" x2="575.75" y1="914.7202" y2="914.7202"/><polygon fill="#000000" points="538.75,910.7202,528.75,914.7202,538.75,918.7202,534.75,914.7202" style="stroke:#000000;stroke-width:1.0;"/><text fill="#000000" font-family="Verdana" font-size="13" lengthAdjust="spacing" textLength="137" x="540.75" y="896.9907">Set reputation = 5.0</text><polygon fill="#000000" points="332.75,951.3188,342.75,955.3188,332.75,959.3188,336.75,955.3188" style="stroke:#000000;stroke-width:1.0;"/><line style="stroke:#000000;stroke-width:1.0;" x1="131.75" x2="338.75" y1="955.3188" y2="955.3188"/><text fill="#000000" font-family="Verdana" font-size="13" lengthAdjust="spacing" textLength="163" x="156.75" y="934.79">SelectSyncPeer(criteria)</text><text fill="#000000" font-family="Verdana" font-size="13" lengthAdjust="spacing" textLength="182" x="147.25" y="950.5894">with previous peer rotation</text><line style="stroke:#000000;stroke-width:1.0;stroke-dasharray:2.0,2.0;" x1="38.75" x2="820.25" y1="971.3188" y2="971.3188"/><text fill="#000000" font-family="Verdana" font-size="11" font-weight="bold" lengthAdjust="spacing" textLength="113" x="43.75" y="982.3779">[Failure/Timeout]</text><polygon fill="#000000" points="142.75,1003.4868,132.75,1007.4868,142.75,1011.4868,138.75,1007.4868" style="stroke:#000000;stroke-width:1.0;"/><line style="stroke:#000000;stroke-width:1.0;stroke-dasharray:2.0,2.0;" x1="136.75" x2="744.75" y1="1007.4868" y2="1007.4868"/><text fill="#000000" font-family="Verdana" font-size="13" lengthAdjust="spacing" textLength="34" x="421.75" y="1002.7573">Error</text><polygon fill="#000000" points="511.75,1033.2861,521.75,1037.2861,511.75,1041.2861,515.75,1037.2861" style="stroke:#000000;stroke-width:1.0;"/><line style="stroke:#000000;stroke-width:1.0;" x1="131.75" x2="517.75" y1="1037.2861" y2="1037.2861"/><text fill="#000000" font-family="Verdana" font-size="13" lengthAdjust="spacing" textLength="190" x="232.75" y="1032.5566">ReportFailure(peerID, error)</text><line style="stroke:#000000;stroke-width:1.0;" x1="533.75" x2="575.75" y1="1067.0854" y2="1067.0854"/><line style="stroke:#000000;stroke-width:1.0;" x1="575.75" x2="575.75" y1="1067.0854" y2="1080.0854"/><line style="stroke:#000000;stroke-width:1.0;" x1="534.75" x2="575.75" y1="1080.0854" y2="1080.0854"/><polygon fill="#000000" points="544.75,1076.0854,534.75,1080.0854,544.75,1084.0854,540.75,1080.0854" style="stroke:#000000;stroke-width:1.0;"/><text fill="#000000" font-family="Verdana" font-size="13" lengthAdjust="spacing" textLength="123" x="540.75" y="1062.356">Increment failures</text><line style="stroke:#000000;stroke-width:1.0;" x1="533.75" x2="575.75" y1="1109.8848" y2="1109.8848"/><line style="stroke:#000000;stroke-width:1.0;" x1="575.75" x2="575.75" y1="1109.8848" y2="1122.8848"/><line style="stroke:#000000;stroke-width:1.0;" x1="534.75" x2="575.75" y1="1122.8848" y2="1122.8848"/><polygon fill="#000000" points="544.75,1118.8848,534.75,1122.8848,544.75,1126.8848,540.75,1122.8848" style="stroke:#000000;stroke-width:1.0;"/><text fill="#000000" font-family="Verdana" font-size="13" lengthAdjust="spacing" textLength="134" x="540.75" y="1105.1553">Record error details</text><line style="stroke:#000000;stroke-width:1.0;" x1="533.75" x2="575.75" y1="1157.6841" y2="1157.6841"/><line style="stroke:#000000;stroke-width:1.0;" x1="575.75" x2="575.75" y1="1157.6841" y2="1170.6841"/><line style="stroke:#000000;stroke-width:1.0;" x1="528.75" x2="575.75" y1="1170.6841" y2="1170.6841"/><polygon fill="#000000" points="538.75,1166.6841,528.75,1170.6841,538.75,1174.6841,534.75,1170.6841" style="stroke:#000000;stroke-width:1.0;"/><text fill="#000000" font-family="Verdana" font-size="13" lengthAdjust="spacing" textLength="139" x="540.75" y="1152.9546">Apply failure penalty</text><polygon fill="#000000" points="332.75,1207.2827,342.75,1211.2827,332.75,1215.2827,336.75,1211.2827" style="stroke:#000000;stroke-width:1.0;"/><line style="stroke:#000000;stroke-width:1.0;" x1="131.75" x2="338.75" y1="1211.2827" y2="1211.2827"/><text fill="#000000" font-family="Verdana" font-size="13" lengthAdjust="spacing" textLength="163" x="156.75" y="1190.7539">SelectSyncPeer(criteria)</text><text fill="#000000" font-family="Verdana" font-size="13" lengthAdjust="spacing" textLength="182" x="147.25" y="1206.5532">with previous peer rotation</text><rect fill="#FFFFFF" height="3" style="stroke:#FFFFFF;stroke-width:1.0;" width="801.5" x="28.75" y="1247.1824"/><line style="stroke:#000000;stroke-width:0.5;" x1="28.75" x2="830.25" y1="1247.1824" y2="1247.1824"/><line style="stroke:#000000;stroke-width:0.5;" x1="28.75" x2="830.25" y1="1250.1824" y2="1250.1824"/><rect fill="#FFFFFF" height="23.7993" style="stroke:#000000;stroke-width:1.0;" width="148" x="355.5" y="1236.2827"/><text fill="#000000" font-family="Verdana" font-size="13" font-weight="bold" lengthAdjust="spacing" textLength="130" x="361.5" y="1253.3525">Periodic Recovery</text><polygon fill="#000000" points="511.75,1287.8813,521.75,1291.8813,511.75,1295.8813,515.75,1291.8813" style="stroke:#000000;stroke-width:1.0;"/><line style="stroke:#000000;stroke-width:1.0;" x1="131.75" x2="517.75" y1="1291.8813" y2="1291.8813"/><text fill="#000000" font-family="Verdana" font-size="13" lengthAdjust="spacing" textLength="147" x="254.25" y="1287.1519">ReconsiderBadPeers()</text><line style="stroke:#000000;stroke-width:1.0;" x1="533.75" x2="575.75" y1="1321.6807" y2="1321.6807"/><line style="stroke:#000000;stroke-width:1.0;" x1="575.75" x2="575.75" y1="1321.6807" y2="1334.6807"/><line style="stroke:#000000;stroke-width:1.0;" x1="534.75" x2="575.75" y1="1334.6807" y2="1334.6807"/><polygon fill="#000000" points="544.75,1330.6807,534.75,1334.6807,544.75,1338.6807,540.75,1334.6807" style="stroke:#000000;stroke-width:1.0;"/><text fill="#000000" font-family="Verdana" font-size="13" lengthAdjust="spacing" textLength="193" x="540.75" y="1316.9512">Find peers with score &lt; 20.0</text><line style="stroke:#000000;stroke-width:1.0;" x1="533.75" x2="575.75" y1="1364.48" y2="1364.48"/><line style="stroke:#000000;stroke-width:1.0;" x1="575.75" x2="575.75" y1="1364.48" y2="1377.48"/><line style="stroke:#000000;stroke-width:1.0;" x1="534.75" x2="575.75" y1="1377.48" y2="1377.48"/><polygon fill="#000000" points="544.75,1373.48,534.75,1377.48,544.75,1381.48,540.75,1377.48" style="stroke:#000000;stroke-width:1.0;"/><text fill="#000000" font-family="Verdana" font-size="13" lengthAdjust="spacing" textLength="161" x="540.75" y="1359.7505">Check cooldown periods</text><line style="stroke:#000000;stroke-width:1.0;" x1="533.75" x2="575.75" y1="1412.2793" y2="1412.2793"/><line style="stroke:#000000;stroke-width:1.0;" x1="575.75" x2="575.75" y1="1412.2793" y2="1425.2793"/><line style="stroke:#000000;stroke-width:1.0;" x1="528.75" x2="575.75" y1="1425.2793" y2="1425.2793"/><polygon fill="#000000" points="538.75,1421.2793,528.75,1425.2793,538.75,1429.2793,534.75,1425.2793" style="stroke:#000000;stroke-width:1.0;"/><text fill="#000000" font-family="Verdana" font-size="13" lengthAdjust="spacing" textLength="184" x="540.75" y="1407.5498">Reset eligible peers to 30.0</text><!--SRC=[fLN1RXCn4BtxAuQU4eb21U9I4QGaKEYXKfI5d7fnlTDTguwzsBDRXQzdR6-ItJILa3Yk_TwyDyzZxnkgSOlG6Acj24_QDjBBBJn8zLHvrzfowOppy5nhmi5-mDyjMeLt68AiS6vqPK6X9VH2a2Q3KEoiWgLpljHMadRs6XR6gIVOIAFBj0BIbh12zB36IWVoExZb4fLFkqAm5ccb6sa9Bax9zxP0tsc55o03B3PZTAfQe455pYV4gZY3sEjcn7gCo7JC5XEYM0ancy5IaghRXirgqcpeJ-vcDXDYiO7BBwnrtOl7529zmkwb-O6wgcagLaL2hQ_XEzBSc8W84rvVmsLFJ_OCczk3UMtUD6R7sSV2AJvJEQ-ftYOCWnOR3Xa3GHFPZtnmWVMJvnpV6ibhxAGPccKRQrHyKD7id0Yt3KrYXTklKo5PgfE4CPreB-D_DMLSanaCfBUiAhUDA758w1MALLJWYGcKR4pgFeS3DWOh3K7HAiKZ9O1NZXqbwomeUNqW44a0MIBY-jb0U8Y4k1TBPdONztXbZyzDDyvJBzat_1OyXiRPW3-vfsbY33kAtySORgtoV7ruM4AkWk44iG-ggmw5Krgl5ahU0uCLwWxB4noVapIgDR6cnwQbV5CYQ9my01gMoirh-thxTxoZj6l3uSJ_jUNjdWcA7mewmHL80uSmWq_lhixwF5XwUMSK3pTwBQVtzfd771gFNH9Cu-tTeNkqfH2fuHkfJUlnVJmzrz9uaBvvx_phCtGCfQzoc0cCn9ZCsFgvL1upDOYJO-FhbSkmEZ5c3CWtk-ToUvOdToTEmnB_drLAYf-35MDTgLMorY6_l2yV11jqYNuXo_tpTFujkD7yYaUL04avSAy8d-735P_u4RQiaKTHEMTAzsoP40q4CGmfyCmW_qhqWy6-8Zdu6EkCW_WB]--></g></svg>